<?xml version="1.0" encoding="UTF-8" standalone="no"?>
<!-- Created with Inkscape (http://www.inkscape.org/) -->

<svg
   xmlns:dc="http://purl.org/dc/elements/1.1/"
   xmlns:cc="http://creativecommons.org/ns#"
   xmlns:rdf="http://www.w3.org/1999/02/22-rdf-syntax-ns#"
   xmlns:svg="http://www.w3.org/2000/svg"
   xmlns="http://www.w3.org/2000/svg"
   xmlns:xlink="http://www.w3.org/1999/xlink"
   xmlns:sodipodi="http://sodipodi.sourceforge.net/DTD/sodipodi-0.dtd"
   xmlns:inkscape="http://www.inkscape.org/namespaces/inkscape"
   width="210mm"
   height="100mm"
   viewBox="0 0 744.09448 354.3307"
   id="svg2"
   version="1.1"
   inkscape:version="0.91 r"
   sodipodi:docname="logo.svg">
  <defs
     id="defs4" />
  <sodipodi:namedview
     id="base"
     pagecolor="#ffffff"
     bordercolor="#666666"
     borderopacity="1.0"
     inkscape:pageopacity="0.0"
     inkscape:pageshadow="2"
     inkscape:zoom="1.4"
     inkscape:cx="432.8461"
     inkscape:cy="81.28798"
     inkscape:document-units="px"
     inkscape:current-layer="layer1"
     showgrid="false"
     width="200mm"
     inkscape:window-width="1680"
     inkscape:window-height="1006"
     inkscape:window-x="0"
     inkscape:window-y="22"
     inkscape:window-maximized="1" />
  <metadata
     id="metadata7">
    <rdf:RDF>
      <cc:Work
         rdf:about="">
        <dc:format>image/svg+xml</dc:format>
        <dc:type
           rdf:resource="http://purl.org/dc/dcmitype/StillImage" />
        <dc:title></dc:title>
      </cc:Work>
    </rdf:RDF>
  </metadata>
  <g
     inkscape:label="Ebene 1"
     inkscape:groupmode="layer"
     id="layer1"
     transform="translate(0,-698.0315)">
    <g
       id="surface4560"
       transform="scale(1.25,1.25)" />
    <g
       transform="matrix(1.25,0,0,-1.25,0,1052.5)"
       inkscape:label="ink_ext_XXXXXX"
       id="g3392">
      <g
         transform="scale(0.1,0.1)"
         id="g3394" />
    </g>
    <image
       sodipodi:absref="/home/toka/dv/transformap/partners/Grünanteil_Logo_2_bis A4.png"
       xlink:href="/home/toka/dv/transformap/partners/Grünanteil_Logo_2_bis A4.png"
       width="744"
       height="350.39999"
       preserveAspectRatio="none"
       id="image3460"
       x="-0.57142746"
       y="702.87653" />
    <path
       style="fill:#000000"
       d="m 95.633161,1002.0862 c -0.256683,-0.8028 -1.416054,-4.42968 -2.576382,-8.05968 C 90.4,985.71498 89.64298,983.79403 88.668316,982.89074 c -0.482607,-0.44726 -0.743952,-0.97094 -0.685023,-1.37264 0.09291,-0.63334 0.212673,-0.65003 4.82028,-0.67179 4.537197,-0.0214 4.724817,0.001 4.720407,0.57895 -0.0065,0.8495 -0.334323,1.26685 -1.276512,1.62507 -0.620226,0.23581 -0.818895,0.51323 -0.818895,1.14352 0,0.88819 3.274176,11.00849 3.491286,10.79138 0.0709,-0.0709 1.182231,-3.28561 2.469621,-7.14381 l 2.3407,-7.0149 1.15062,0 1.15061,0 2.6397,6.9 c 1.45184,3.795 2.6437,7.06875 2.64858,7.275 0.0296,1.24809 0.61837,-0.20931 1.75843,-4.35237 1.56276,-5.6792 1.58321,-6.91014 0.12545,-7.55177 -0.79503,-0.34993 -0.975,-0.59911 -0.975,-1.35 l 0,-0.92086 3.3,0 3.3,0 0,0.96445 c 0,0.65573 -0.19106,1.06669 -0.59689,1.28389 -0.96891,0.51855 -1.37284,1.61883 -4.02091,10.95277 -1.38691,4.88859 -2.59163,8.95837 -2.67715,9.04387 -0.0855,0.086 -0.67289,0.2241 -1.30527,0.308 l -1.14978,0.1525 -0.56077,-1.6027 c -1.17742,-3.36523 -4.79335,-12.71472 -5.01484,-12.96658 -0.1276,-0.14509 -1.27215,2.95991 -2.54344,6.9 -1.271301,3.94009 -2.34969,7.20888 -2.396424,7.26408 -0.04673,0.055 -0.620082,0.1719 -1.274106,0.2597 l -1.189134,0.1595 -0.466695,-1.4598 z m 58.362169,1.0906 c -4.57287,-0.9686 -7.76047,-5.02314 -8.08781,-10.28741 -0.32941,-5.2976 1.71567,-9.18714 5.91488,-11.24947 1.5288,-0.75084 1.93303,-0.81229 5.25617,-0.79901 2.9569,0.0118 3.86796,0.12679 5.1,0.64363 l 1.5,0.62925 -0.10799,2.65637 c -0.0594,1.461 -0.1269,2.6722 -0.15,2.69156 -0.0231,0.0194 -0.54124,0.12542 -1.15141,0.23567 -1.09887,0.19857 -1.11107,0.18968 -1.28473,-0.9352 -0.45013,-2.91572 -2.17007,-4.46162 -4.61981,-4.15235 -0.72266,0.0912 -1.74561,0.43267 -2.27322,0.75875 -2.19437,1.35619 -3.49661,5.75419 -2.89717,9.78452 0.94177,6.33205 5.02274,9.00729 10.43632,6.84156 1.97986,-0.79207 2.36772,-0.74269 2.54794,0.32433 0.0797,0.4722 -0.35689,0.8238 -2.14993,1.7314 -1.85688,0.9399 -2.64312,1.1616 -4.5,1.2686 -1.2375,0.071 -2.82746,0.01 -3.53324,-0.1422 z m 48.65537,0.01 c -0.67533,-0.1443 -1.86705,-0.5628 -2.64827,-0.93 l -1.42039,-0.6677 0.21215,-2.581 c 0.11668,-1.41957 0.3634,-2.68021 0.54827,-2.80144 0.18486,-0.12122 0.84236,-0.22247 1.46111,-0.225 1.06884,-0.004 1.12533,0.0441 1.13159,0.97041 0.009,1.2758 0.9812,3.39033 1.74818,3.80083 0.33318,0.1783 1.2793,0.3242 2.10249,0.3242 2.92785,0 4.32758,-2.38359 2.60318,-4.43292 -0.40676,-0.4834 -2.10218,-1.59529 -3.76759,-2.47087 -4.35532,-2.28991 -5.6971,-4.05931 -5.68459,-7.49639 0.01,-2.62741 1.75065,-5.02708 4.12606,-5.68679 1.70269,-0.47289 5.41463,-0.35555 7.11568,0.22492 l 1.5,0.51187 0.16537,2.4 c 0.0909,1.32 0.0909,2.49434 0,2.60964 -0.0909,0.11531 -0.73912,0.30132 -1.44037,0.41335 -0.98129,0.15677 -1.27538,0.10848 -1.27667,-0.20965 -0.004,-0.9866 -0.66048,-2.64279 -1.33686,-3.37261 -1.01781,-1.09824 -3.15374,-1.12573 -4.2251,-0.0544 -0.92336,0.92335 -0.97772,2.47588 -0.12467,3.56037 0.33644,0.4277 2.08164,1.54138 3.87822,2.47484 4.86502,2.52773 6.01008,3.89539 6.01008,7.17842 0,2.80992 -1.25528,4.75928 -3.79646,5.89548 -1.44413,0.6457 -5.09799,0.9453 -6.88141,0.5643 z m 50.57787,-7.6969 c -3.2175,-4.38269 -5.96711,-8.04131 -6.11025,-8.13025 -0.40625,-0.25244 -0.0776,11.95001 0.34238,12.71075 0.19536,0.3539 0.76306,0.7856 1.26154,0.9594 0.74146,0.2584 0.90633,0.4825 0.90633,1.2315 l 0,0.9156 -3.6,0 -3.6,0 0,-1.05 c 0,-0.8368 0.1174,-1.05 0.57823,-1.05 0.31802,0 0.85802,-0.3557 1.2,-0.7904 0.59253,-0.75332 0.62177,-1.15443 0.62177,-8.52826 l 0,-7.73777 -0.79046,-0.62177 c -0.43475,-0.34198 -0.97475,-0.62178 -1.2,-0.62178 -0.26204,0 -0.40955,-0.35116 -0.40957,-0.975 l -3e-5,-0.975 3.22085,0.0212 3.22085,0.0212 5.17918,7.14777 5.17918,7.14777 0,-4.94921 c 0,-5.74569 -0.21314,-6.66003 -1.67583,-7.18895 -0.86348,-0.31222 -1.02417,-0.51519 -1.02417,-1.29361 l 0,-0.92327 3.44996,0.009 3.44996,0.009 -0.002,0.9 c -0.002,0.67408 -0.21588,1.02173 -0.85445,1.38493 -0.55721,0.31692 -0.92032,0.82359 -1.0481,1.4625 -0.10759,0.53764 -0.19557,4.92873 -0.19557,9.75795 0,7.72988 -0.0568,8.80218 -0.47453,8.96248 -1.43418,0.5504 -1.66497,0.3142 -7.62547,-7.8049 z m 80.25,7.6775 c -0.66,-0.158 -1.82535,-0.5737 -2.58963,-0.9236 l -1.38963,-0.6363 0.15762,-2.59029 c 0.0867,-1.42466 0.30702,-2.68947 0.48963,-2.8107 0.18261,-0.12122 0.81126,-0.22247 1.39698,-0.225 1.05981,-0.005 1.06677,0.004 1.43259,1.77511 0.49476,2.39538 1.54176,3.32028 3.7587,3.32028 1.78155,0 2.64699,-0.48 3.17838,-1.76292 0.56154,-1.35566 -0.27747,-2.87216 -2.15109,-3.88814 -6.22956,-3.37796 -7.24215,-4.31169 -7.77717,-7.17153 -0.6138,-3.28092 1.02894,-6.36869 3.83562,-7.20959 1.683,-0.50423 5.38179,-0.46203 7.21482,0.0823 l 1.51572,0.45013 0.21252,2.4361 c 0.11712,1.34284 0.0931,2.5555 -0.0536,2.70216 -0.14631,0.14633 -0.78078,0.29878 -1.40991,0.33878 -1.13226,0.072 -1.14825,0.0575 -1.5732,-1.42729 -0.57477,-2.00802 -1.54338,-2.85 -3.27873,-2.85 -1.66365,0 -2.81964,0.98016 -2.81964,2.39077 0,1.41961 1.54998,2.82799 5.25,4.77033 3.85725,2.0249 5.06409,3.2965 5.39211,5.68155 0.60132,4.37218 -2.34237,7.44703 -7.38792,7.71723 -1.2123,0.065 -2.74419,-0.011 -3.40419,-0.1694 z m 128.59521,-2.4655 c -1.12947,-1.52623 -3.8292,-5.1843 -5.9994,-8.12902 l -3.94581,-5.35404 0,6.13858 c 0,5.75598 0.0388,6.18785 0.62178,6.92908 0.34197,0.4347 0.88197,0.7904 1.2,0.7904 0.46083,0 0.57822,0.2132 0.57822,1.05 l 0,1.05 -3.6,0 -3.6,0 0,-0.9074 c 0,-0.6867 0.17862,-0.9753 0.73431,-1.1866 0.40386,-0.1536 0.97761,-0.6502 1.275,-1.10358 0.4758,-0.72545 0.55251,-1.70107 0.6393,-8.13002 0.10923,-8.09243 0.0234,-8.5332 -1.73844,-8.92015 -0.78015,-0.17134 -0.91017,-0.33578 -0.91017,-1.15107 l 0,-0.95116 3.25185,0 3.25185,0 5.07315,7.01289 5.07315,7.01288 0.0821,-4.94973 c 0.0472,-2.84906 -0.0475,-5.29059 -0.22329,-5.75289 -0.18138,-0.47708 -0.67218,-0.93104 -1.20888,-1.11813 -0.87309,-0.30436 -1.53078,-1.52415 -1.07016,-1.98476 0.11097,-0.11099 1.6797,-0.20595 3.486,-0.21103 l 3.28422,-0.009 0,0.95478 c 3e-5,0.69149 -0.16551,1.00733 -0.6003,1.14532 -1.25541,0.39846 -1.34526,1.06983 -1.44468,10.79456 -0.0689,6.73893 -0.1926,9.35673 -0.45,9.52043 -1.05276,0.6695 -1.71642,0.2211 -3.75978,-2.5401 z m 66.07608,2.3529 c -2.06496,-0.5013 -3.37119,-1.4981 -4.128,-3.15023 -0.56844,-1.24093 -0.64923,-2.12196 -0.81408,-8.87765 -0.10068,-4.125 -0.20466,-7.54077 -0.23112,-7.5906 -0.0264,-0.0498 -0.45309,-0.23179 -0.94809,-0.40435 -0.74337,-0.25914 -0.89997,-0.47832 -0.89982,-1.2594 l 1.8e-4,-0.94565 4.64982,-0.002 4.64982,-0.002 0,0.92276 c 0,0.75304 -0.17934,1.0017 -0.975,1.35191 l -0.975,0.42914 -0.0808,6.69641 c -0.0461,3.81917 0.0485,7.17673 0.2202,7.81429 0.66951,2.48637 3.67872,3.79517 5.98449,2.60277 1.86099,-0.96233 2.11203,-2.1115 2.1195,-9.70211 l 0.007,-6.68864 -0.73635,-0.73636 c -0.405,-0.405 -0.8775,-0.73636 -1.05,-0.73636 -0.1725,0 -0.31368,-0.43875 -0.31368,-0.975 l -3e-5,-0.975 3.22503,0.0212 c 2.28288,0.015 3.21627,0.12457 3.19503,0.375 -0.0165,0.19457 -0.0503,0.6021 -0.075,0.90561 -0.0246,0.30352 -0.37434,0.7019 -0.77685,0.88529 -1.11879,0.50976 -1.36464,2.01622 -1.36647,8.3731 0,3.16813 -0.15264,6.47563 -0.33717,7.35 -0.80382,3.80903 -5.08188,5.59483 -10.34322,4.31763 z m 32.20005,-1.0655 c -2.75796,-6.37354 -3.90426,-8.11238 -5.34801,-8.11238 l -0.87333,0 0,2.68047 c 0,2.92559 0.30438,4.12911 1.1205,4.43031 0.69246,0.2556 0.96927,0.6855 0.97491,1.5142 0.005,0.6712 -0.0219,0.675 -4.64541,0.675 l -4.65,0 0,-1.05 c 0,-0.8206 0.12093,-1.05 0.5535,-1.05 0.30444,0 0.81069,-0.2839 1.125,-0.6309 0.52119,-0.57544 0.57963,-1.24246 0.66375,-7.57504 0.10926,-8.22531 -0.0219,-9.16498 -1.36701,-9.79404 -0.77595,-0.36287 -0.96351,-0.62988 -0.96876,-1.37913 l -0.007,-0.92913 6.825,0.0291 c 6.52908,0.0279 6.88713,0.0597 8.25816,0.73484 0.78822,0.38814 1.80072,1.18809 2.25,1.77767 0.73317,0.96215 0.81684,1.32007 0.81684,3.49429 0,2.09564 -0.10026,2.56394 -0.74343,3.47233 -0.90111,1.27271 -1.68723,1.95736 -2.78094,2.42202 l -0.82434,0.35024 0.89991,1.02495 c 0.49497,0.56371 1.25313,1.72198 1.68483,2.57392 1.36401,2.69175 2.23698,3.79835 3.29949,4.18255 0.70647,0.2555 1.0131,0.5535 1.00989,0.9816 -0.008,1.1437 -0.37743,1.2902 -3.56496,1.4162 l -3.11958,0.1233 -0.58953,-1.3624 z m -2.33985,-11.06056 c 1.8786,-1.0075 2.64564,-3.62567 1.70991,-5.83645 -0.70779,-1.67229 -1.52124,-2.16172 -3.59601,-2.16365 l -1.84539,-0.002 -0.0832,4.275 -0.0832,4.275 1.4379,0 c 0.81969,0 1.8774,-0.23569 2.46006,-0.54818 z m -437.98149,11.51706 c 0,-0.4386 0.41056,-1.1288 1.02609,-1.725 0.84193,-0.8155 1.70965,-2.70337 4.83476,-10.51888 l 3.80867,-9.525 0.98315,0 c 0.54073,0 1.05292,0.16875 1.13822,0.375 0.0853,0.20625 1.98856,4.56 4.22949,9.675 3.09647,7.06781 4.29105,9.48528 4.97702,10.07188 0.5865,0.5015 0.9026,1.0531 0.9026,1.575 l 0,0.8031 -4.6875,0 -4.6875,0 0.19429,-0.975 c 0.10687,-0.5362 0.3071,-1.0136 0.44496,-1.0608 0.13787,-0.047 0.49582,-0.2651 0.79546,-0.4842 0.52546,-0.3842 0.5242,-0.4557 -0.0355,-2.01416 l -0.58028,-1.61582 -3.32768,-0.0844 c -4.04176,-0.10252 -4.6819,0.0988 -5.14858,1.61939 -0.28907,0.94188 -0.27179,1.26668 0.0974,1.8301 0.24684,0.3767 0.64818,0.6849 0.89188,0.6849 0.30638,0 0.44308,0.324 0.44308,1.05 l 0,1.05 -3.15,0 c -3.13829,0 -3.15,-0 -3.15,-0.7311 z m 12.3,-7.53418 c 0,-0.0909 -0.52331,-1.40716 -1.16293,-2.925 -0.63961,-1.51783 -1.32984,-3.28038 -1.53384,-3.91676 l -0.37092,-1.15705 -1.45788,3.85705 c -0.80183,2.12138 -1.4616,3.95831 -1.46615,4.08206 -0.005,0.12375 1.34172,0.225 2.99172,0.225 1.65,0 3,-0.0744 3,-0.1653 z m 37.8,7.21528 c 0,-0.8206 0.12093,-1.05 0.55351,-1.05 0.30442,0 0.81067,-0.2841 1.125,-0.6314 0.53072,-0.5863 0.57149,-1.18021 0.57149,-8.32496 0,-8.25965 -0.0997,-8.86896 -1.50866,-9.2226 -0.59165,-0.14849 -0.74134,-0.37636 -0.74134,-1.12854 l 0,-0.94248 4.8,0 4.8,0 0,0.84031 c 0,0.67104 -0.20417,0.92562 -1.01361,1.26382 -0.55749,0.23294 -1.09749,0.64209 -1.2,0.90923 -0.10251,0.26714 -0.18639,1.89217 -0.18639,3.61118 l 0,3.12546 3.9,0 3.9,0 -0.004,-2.925 c -0.005,-3.73846 -0.1412,-4.20231 -1.384,-4.72158 -0.80773,-0.33749 -1.0119,-0.59235 -1.01191,-1.26311 l 0,-0.84031 4.725,0.0131 c 2.59875,0.007 4.75876,0.10844 4.80001,0.225 0.24555,0.69389 0.0226,1.71194 -0.375,1.71194 -0.2475,0 -0.72,0.27 -1.05,0.6 -0.5702,0.57019 -0.6,1 -0.6,8.6535 0,7.42111 0.0431,8.09249 0.54862,8.54999 0.30174,0.2731 0.77424,0.4965 1.05,0.4965 0.29425,0 0.50138,0.2377 0.50138,0.5755 0,0.3165 0.0819,0.789 0.18209,1.05 0.16155,0.421 -0.38023,0.4745 -4.8,0.4745 -4.7113,0 -4.98211,-0.031 -4.98211,-0.5754 0,-0.9647 0.33609,-1.5246 0.91509,-1.5246 1.14593,0 1.48491,-1.11098 1.48491,-4.86673 l 0,-3.53325 -3.9,0 -3.9,0 0,3.6 c 0,3.2 0.0667,3.66667 0.6,4.19998 0.33,0.33 0.78806,0.6 1.01791,0.6 0.4587,0 0.78209,0.6304 0.78209,1.5246 0,0.5433 -0.26822,0.5754 -4.8,0.5754 l -4.8,0 0,-1.05 z m 49.01092,0.375 c 0.0995,-0.3712 0.18273,-0.8437 0.18499,-1.05 0.002,-0.2062 0.26644,-0.375 0.58708,-0.375 0.32065,0 0.79315,-0.3 1.05,-0.6667 0.39343,-0.56174 0.46701,-1.88825 0.46701,-8.41975 0,-4.45492 -0.12425,-7.98514 -0.29208,-8.29874 -0.16065,-0.30018 -0.61822,-0.62762 -1.01683,-0.72767 -0.68663,-0.17233 -1.35481,-1.5234 -0.95241,-1.92579 0.0923,-0.0923 3.73841,-0.17766 8.1024,-0.1896 l 7.93452,-0.0217 0.18016,1.5 c 0.0991,0.825 0.20582,2.10749 0.2372,2.84999 0.0566,1.33898 0.0485,1.3507 -0.99296,1.43577 -0.98829,0.0807 -1.08209,0.007 -1.59619,-1.25438 -0.73813,-1.81111 -1.66067,-2.34948 -4.31834,-2.52003 l -2.18547,-0.14026 0,4.08945 0,4.08945 1.21972,0 c 1.57515,0 2.2613,-0.38509 2.51956,-1.41408 0.24455,-0.97437 0.63407,-1.27495 1.66072,-1.28155 l 0.75,-0.005 0,3.74985 0,3.74985 -1.125,3e-4 c -0.93345,3e-4 -1.125,-0.1041 -1.125,-0.61326 0,-1.06237 -1.31837,-2.08628 -2.68636,-2.08628 l -1.21364,0 0,3.31364 c 0,3.15851 0.0361,3.34972 0.77091,4.08454 0.69359,0.6936 0.94975,0.758 2.55403,0.6419 2.18632,-0.1581 3.17039,-0.8131 4.14558,-2.75907 0.67413,-1.34524 0.77975,-1.42595 1.64062,-1.25378 1.35471,0.27094 1.49959,0.54753 1.13851,2.17351 -0.177,0.79709 -0.40745,2.02304 -0.51211,2.72424 l -0.19028,1.275 -8.55862,0 -8.55862,0 0.1809,-0.675 z m 49.99318,0.3 c 0.0106,-0.9706 0.41028,-1.725 0.91388,-1.725 0.3014,0 0.75816,-0.3 1.01501,-0.6667 0.39343,-0.56174 0.46701,-1.88825 0.46701,-8.41975 0,-4.45492 -0.12425,-7.98514 -0.29208,-8.29874 -0.16065,-0.30018 -0.6311,-0.63086 -1.04543,-0.73485 -0.76125,-0.19106 -1.30678,-1.34195 -0.92722,-1.9561 0.12574,-0.20345 2.38181,-0.27346 6.55324,-0.20333 6.89282,0.11587 8.76172,0.47048 11.25941,2.13637 2.42224,1.61558 3.51352,4.75634 3.28702,9.46017 -0.28052,5.82551 -3.05091,9.17603 -8.55082,10.34153 -2.69198,0.5704 -12.6861,0.6228 -12.68002,0.066 z m 12.45831,-2.2889 c 2.74892,-1.24864 3.58626,-3.21793 3.58704,-8.43608 6e-4,-3.42326 -0.0682,-3.89656 -0.7882,-5.43209 -1.22066,-2.60313 -3.64194,-4.04454 -6.41125,-3.81666 l -1.2,0.0987 -0.0798,8.33388 -0.0798,8.33387 0.74112,0.74113 c 0.90931,0.9093 2.47477,0.9749 4.23081,0.1772 z m 14.53759,2.0885 c 0,-0.8942 0.32339,-1.5246 0.7821,-1.5246 0.22984,0 0.6879,-0.27 1.0179,-0.6 0.56914,-0.56911 0.6,-0.99998 0.6,-8.37544 0,-4.27651 -0.0839,-7.99404 -0.18638,-8.26118 -0.10251,-0.26714 -0.64251,-0.67629 -1.2,-0.90923 -0.80945,-0.3382 -1.01361,-0.59277 -1.0136,-1.26382 l 3e-5,-0.84031 8.06092,0 8.06091,0 0.32877,2.6703 c 0.18081,1.46867 0.25794,2.78492 0.17136,2.925 -0.0866,0.14009 -0.59169,0.2547 -1.12248,0.2547 -0.83967,0 -1.04202,-0.16379 -1.5573,-1.26052 -0.87171,-1.85537 -1.86915,-2.44878 -4.35183,-2.58907 l -2.0904,-0.11811 0,4.08385 0,4.08385 1.32822,0 c 1.0776,0 1.44555,-0.14916 1.95,-0.79046 0.34197,-0.43475 0.62178,-0.96031 0.62178,-1.1679 0,-0.42239 0.65625,-0.74164 1.52454,-0.74164 0.53658,0 0.57546,0.2533 0.57546,3.75 l 0,3.75 -1.00659,0 c -0.8775,0 -1.04235,-0.12457 -1.28514,-0.97119 -0.31605,-1.10194 -1.29231,-1.71785 -2.73327,-1.72439 l -0.975,-0.004 0,3.39266 c 0,4.37782 0.11634,4.55732 2.95383,4.55732 2.53935,0 3.44838,-0.5371 4.51668,-2.66897 0.67413,-1.34524 0.77976,-1.42595 1.64064,-1.25378 0.50604,0.10121 1.02036,0.28427 1.14288,0.4068 0.12252,0.12253 -0.007,1.47 -0.28773,2.99435 l -0.51051,2.7716 -8.47791,0 c -8.15738,0 -8.47788,-0.022 -8.47788,-0.5754 z m 56.40411,0.2004 c 0.0117,-1.0742 0.40422,-1.725 1.04043,-1.725 0.37101,0 1.03026,-0.2798 1.46499,-0.6218 l 0.79047,-0.62173 0,-8.56772 0,-8.56773 -1.22949,0.16491 c -1.55472,0.20853 -2.61333,1.1917 -3.05295,2.83538 -0.30801,1.15158 -0.43275,1.27826 -1.25478,1.27412 -1.60104,-0.008 -1.66149,-0.163 -1.28829,-3.30187 l 0.33807,-2.84354 9.16872,0.011 9.16872,0.0109 0.21798,2.82569 c 0.23748,3.07807 0.15075,3.28956 -1.3524,3.29784 -0.84339,0.005 -0.92346,-0.0956 -1.24266,-1.55617 -0.31677,-1.4493 -1.39488,-2.3816 -2.95782,-2.55777 l -1.4151,-0.1595 0,8.53168 c 0,9.38971 0.01,9.44131 1.81467,9.80751 0.89304,0.1812 1.04826,0.3426 1.12935,1.1744 l 0.094,0.9644 -5.71899,0 c -4.37739,0 -5.71806,-0.088 -5.71491,-0.375 z m 17.99589,-0.377 c 0,-0.4371 0.32646,-1.0337 0.77982,-1.425 1.06968,-0.9231 1.62288,-2.11405 5.50377,-11.84798 l 3.37893,-8.475 0.98058,0 0.98058,0 4.15167,9.525 c 3.1482,7.22277 4.39011,9.75579 5.13816,10.47988 0.61116,0.5915 0.98649,1.2478 0.98649,1.725 l 0,0.7701 -4.6875,0 -4.6875,0 0.19428,-0.975 c 0.10686,-0.5362 0.30711,-1.0136 0.44496,-1.0608 0.13788,-0.047 0.49704,-0.266 0.79815,-0.4861 0.52827,-0.3863 0.52599,-0.457 -0.0652,-2.01423 l -0.61263,-1.61385 -3.29802,-0.0844 c -1.81392,-0.0464 -3.64731,0.0484 -4.07424,0.21071 -1.05798,0.40224 -1.59816,2.2454 -0.94863,3.23668 0.24756,0.3779 0.6495,0.687 0.89322,0.687 0.30636,0 0.44307,0.324 0.44307,1.05 l 0,1.05 -3.15,0 -3.15,0 0,-0.752 z m 12.3,-7.46309 c 0,-0.0633 -0.52221,-1.37957 -1.16046,-2.925 -0.63825,-1.54544 -1.33089,-3.33783 -1.53918,-3.98308 l -0.37869,-1.1732 -1.45797,3.8732 c -0.80187,2.13025 -1.45923,3.97444 -1.46082,4.09819 -0.003,0.12375 1.34712,0.225 2.99712,0.225 1.65,0 3,-0.0518 3,-0.11511 z m 14.7,7.29949 c 0,-0.7523 0.16428,-0.9729 0.92142,-1.2368 0.51933,-0.181 1.04298,-0.6409 1.2,-1.05392 0.38736,-1.01886 0.36036,-15.28028 -0.0303,-16.01028 -0.16989,-0.31744 -0.70989,-0.78453 -1.2,-1.03798 -0.67641,-0.34977 -0.89112,-0.66979 -0.89112,-1.32809 l 0,-0.86729 4.875,-6e-4 c 6.05457,-6e-4 9.19188,0.36952 11.325,1.33651 3.08499,1.39849 4.31151,3.16603 4.87377,7.02365 1.08588,7.45025 -2.36928,12.6946 -9.07377,13.7724 -1.0725,0.1724 -4.21125,0.3145 -6.975,0.3157 l -5.025,0 0,-0.9156 z m 12.48483,-1.7583 c 1.40403,-0.63761 2.55609,-2.0224 3.14145,-3.77608 0.61407,-1.83965 0.54441,-7.44513 -0.1161,-9.34279 -1.01928,-2.92837 -3.67854,-4.74072 -6.67764,-4.55099 l -1.48254,0.0938 0,7.95 c 0,4.3725 0.1053,8.3271 0.23397,8.78799 0.40428,1.44789 2.69526,1.83969 4.90086,0.83809 z m 17.51517,2.0985 c 0,-1.0353 0.35163,-1.5246 1.09572,-1.5246 0.40236,0 1.06293,-0.3313 1.46793,-0.7363 l 0.73635,-0.73641 0,-8.45313 0,-8.45314 -1.22949,0.16491 c -1.50267,0.20155 -2.49561,1.08605 -3.15372,2.80929 -0.41343,1.08254 -0.63189,1.30402 -1.28256,1.30021 -1.53615,-0.009 -1.62219,-0.24126 -1.23339,-3.32969 l 0.35445,-2.81572 9.08865,0 9.08865,0 0.3225,2.83922 c 0.35823,3.1537 0.29787,3.29828 -1.38009,3.30619 -0.78285,0.004 -0.975,-0.11601 -0.975,-0.60736 0,-1.01492 -1.10037,-2.84635 -1.94004,-3.22893 -0.4335,-0.19751 -1.18683,-0.35912 -1.67409,-0.35912 l -0.88587,0 0,8.49266 c 0,9.34722 0.0102,9.40242 1.81467,9.76852 0.89304,0.1811 1.04826,0.3425 1.12935,1.1744 l 0.094,0.9644 -5.71899,0 c -5.43774,0 -5.71902,-0.028 -5.71902,-0.5754 z m 44.7,-0.2277 c 0,-0.5295 0.3144,-1.0662 0.92265,-1.575 0.75552,-0.6321 1.61994,-2.51096 4.77159,-10.37188 l 3.84891,-9.6 1.01244,-0.0892 1.01244,-0.0892 2.97129,6.83918 c 4.39839,10.12413 5.70858,12.84865 6.41757,13.34525 0.35133,0.246 0.72414,0.8741 0.82845,1.3957 l 0.18966,0.9482 -4.6875,0 -4.6875,0 0,-0.8923 c 0,-0.688 0.20604,-0.9988 0.9,-1.3577 1.07193,-0.5543 1.08309,-0.6632 0.26307,-2.56936 l -0.63696,-1.48062 -3.07554,0 c -4.5408,0 -4.81371,0.0897 -5.27367,1.73249 -0.38103,1.36093 -0.37746,1.37456 0.56982,2.16539 0.63549,0.5305 0.95328,1.0636 0.95328,1.599 l 0,0.8031 -3.15,0 -3.15,0 0,-0.8031 z m 12.3,-7.40955 c 0,-0.062 -0.35517,-0.90572 -0.78924,-1.875 -0.4341,-0.96928 -1.15188,-2.74546 -1.5951,-3.94706 l -0.80586,-2.18473 -1.4106,3.83473 c -0.77583,2.1091 -1.40805,3.93598 -1.4049,4.05973 0.006,0.22083 6.0057,0.33305 6.0057,0.11233 z m 15.95598,7.24825 c 0.0805,-0.8262 0.23844,-0.9937 1.1022,-1.1689 2.01138,-0.4079 1.98237,-0.2724 2.07999,-9.72694 l 0.0882,-8.53974 -0.7728,0 c -1.70727,0 -2.73135,0.7436 -3.46638,2.51699 -0.6066,1.46357 -0.80451,1.68301 -1.51782,1.68301 -1.52283,0 -1.7133,-0.20943 -1.44759,-1.59177 0.13302,-0.69202 0.32307,-2.00073 0.42231,-2.90823 l 0.18045,-1.65 9.09873,0 9.09873,0 0.30498,2.85 c 0.33732,3.15218 0.28173,3.28771 -1.35195,3.29541 -0.72786,0.003 -0.97668,-0.12849 -0.9816,-0.52041 -0.004,-0.28875 -0.2565,-1.07529 -0.56199,-1.74786 -0.6132,-1.35014 -1.79664,-2.03843 -3.22416,-1.87518 l -0.85725,0.098 0,8.50182 0,8.50182 0.70824,0.57314 c 0.38952,0.3153 1.01634,0.5732 1.3929,0.5732 0.7011,0 1.04886,0.5055 1.04886,1.5246 0,0.5471 -0.28128,0.5754 -5.71902,0.5754 l -5.71899,0 0.094,-0.9644 z M 88.828501,964.61729 c 5.7e-5,-0.73407 0.172884,-0.97446 0.897174,-1.24784 0.51165,-0.19313 1.027245,-0.68093 1.2,-1.1353 0.382575,-1.00625 0.403818,-14.85312 0.02433,-15.85128 -0.157014,-0.41298 -0.680661,-0.87288 -1.2,-1.05392 -0.76302,-0.26599 -0.921432,-0.48211 -0.921432,-1.2571 l 0,-0.93589 6.825,0.0953 c 6.764687,0.0944 6.836957,0.10232 8.178227,0.89087 4.37297,2.57094 3.8025,10.45373 -0.93129,12.86873 -2.26173,1.15385 -5.971937,1.15175 -5.971937,-0.003 0,-1.03552 0.30702,-1.42639 1.014213,-1.2912 1.104042,0.21105 2.792164,-0.6685 3.348724,-1.74475 0.75016,-1.45065 0.84693,-4.04395 0.21711,-5.81804 -0.70002,-1.97185 -2.048059,-2.92119 -3.969874,-2.79574 l -1.360173,0.0888 0,8.1671 c 0,8.09675 0.0059,8.17297 0.682683,8.85 0.375477,0.37559 1.117977,0.82909 1.65,1.00776 0.756195,0.25395 0.986589,0.51586 1.055613,1.2 l 0.0883,0.87514 -5.413368,0 -5.413368,0 7.2e-5,-0.90923 z m 23.700039,0.0919 c 2e-5,-0.60286 0.23384,-0.93821 0.89114,-1.27811 0.49011,-0.25344 1.03011,-0.72054 1.2,-1.03798 0.39068,-0.72999 0.41768,-14.99141 0.0303,-16.01027 -0.15702,-0.41298 -0.68067,-0.87288 -1.2,-1.05392 -0.75714,-0.26394 -0.92143,-0.48447 -0.92143,-1.23682 l 0,-0.91561 4.8,0 4.8,0 0,1.05 c 0,0.8206 -0.12092,1.05 -0.5535,1.05 -0.30443,0 -0.81068,0.28425 -1.125,0.63165 -0.53099,0.58688 -0.5715,1.18172 -0.5715,8.39177 0,7.64311 0.0102,7.77028 0.6737,8.43371 0.53622,0.53615 0.99693,0.66892 2.25778,0.6507 2.30641,-0.0333 3.42278,-0.72619 4.31688,-2.67917 0.4101,-0.89576 0.80757,-1.62866 0.88327,-1.62866 0.0757,0 0.62163,0.20222 1.21316,0.44938 0.90088,0.37641 1.04483,0.55909 0.88652,1.125 -0.10394,0.37159 -0.34138,1.62062 -0.52764,2.77562 l -0.33866,2.1 -8.35754,0 -8.35754,0 4e-5,-0.81729 z m 21.90003,0.12538 c 0,-0.38055 0.38981,-1.05555 0.86625,-1.5 1.14083,-1.06424 1.45204,-1.73549 5.42404,-11.69895 l 3.38493,-8.49087 1.05434,0.0909 1.05433,0.0909 3.95127,9 c 4.65537,10.60374 4.77907,10.85061 5.56155,11.09896 0.43787,0.13897 0.60333,0.45328 0.60341,1.14626 l 1.2e-4,0.95478 -4.56574,-0.0469 c -2.54552,-0.0261 -4.60744,-0.17195 -4.65997,-0.32956 -0.18065,-0.54194 0.51408,-1.87358 0.97746,-1.87358 0.75684,0 0.84625,-0.79437 0.26983,-2.39735 l -0.54034,-1.50265 -3.94259,0 c -3.93371,0 -3.94336,0.002 -4.29073,0.76412 -0.19149,0.42026 -0.34816,1.23316 -0.34816,1.80643 0,0.82068 0.15948,1.11498 0.75,1.38404 0.56443,0.25717 0.75,0.57106 0.75,1.26857 l 0,0.92684 -3.15,0 c -3.08948,0 -3.15,-0.0133 -3.15,-0.69191 z m 12.25,-7.81519 c -2.0078,-5.16205 -3.11238,-7.52011 -3.29864,-7.04191 -0.11761,0.30196 -0.6835,1.83151 -1.25753,3.39901 -0.57403,1.5675 -1.13692,3.08625 -1.25086,3.375 -0.18909,0.47921 0.0595,0.525 2.84993,0.525 1.68141,0 3.0121,-0.11569 2.9571,-0.2571 z m 15.95403,8.2071 c 0.0149,-1.07624 0.42082,-1.60664 1.36496,-1.78377 1.88853,-0.35429 1.93101,-0.57059 1.93101,-9.83298 l 0,-8.33325 -0.88047,0 c -1.94485,0 -2.88932,0.93326 -3.75236,3.7078 -0.1452,0.46679 -0.35652,0.5236 -1.29534,0.34824 -0.617,-0.11525 -1.15781,-0.24474 -1.20178,-0.28775 -0.044,-0.043 0.0846,-1.38096 0.2857,-2.97324 l 0.36565,-2.89505 9.19522,0 9.19523,0 0.1742,2.91988 c 0.0958,1.60593 0.1494,2.94389 0.11908,2.97324 -0.0303,0.0293 -0.55257,0.14628 -1.16056,0.25984 -1.09818,0.20512 -1.10769,0.19809 -1.44933,-1.07065 -0.49834,-1.85069 -1.73994,-2.98231 -3.27216,-2.98231 l -1.22308,0 0,8.33325 c 0,9.28145 0.0392,9.47807 1.95862,9.83816 0.92586,0.17369 1.04137,0.29983 1.04127,1.13698 l -1.1e-4,0.94161 -5.69996,0 c -3.60275,0 -5.69843,-0.11038 -5.69579,-0.3 z m 24.65756,-0.57689 c 0.0745,-0.73929 0.29154,-0.94431 1.3828,-1.30647 0.87534,-0.29049 1.38523,-0.6685 1.575,-1.16763 0.15434,-0.40594 0.28061,-4.37428 0.28061,-8.81854 l 0,-8.08047 -1.22307,0 c -1.53319,0 -2.77388,1.13185 -3.27315,2.98599 -0.32836,1.21943 -0.38881,1.27201 -1.26183,1.0974 -0.50432,-0.10086 -1.05251,-0.18339 -1.2182,-0.18339 -0.2848,0 -0.17555,-1.89834 0.28056,-4.875 l 0.17238,-1.125 9.05682,0 9.05682,0 0.34098,2.91386 c 0.18754,1.60262 0.3121,2.94273 0.2768,2.97803 -0.0353,0.0353 -0.58581,0.10782 -1.22336,0.16115 -1.14517,0.0958 -1.16421,0.08 -1.57551,-1.30905 -0.53958,-1.8223 -1.57163,-2.64399 -3.32086,-2.64399 l -1.33071,0 0.10628,8.325 c 0.0585,4.57875 0.21459,8.55387 0.34697,8.8336 0.13238,0.27973 0.80283,0.69513 1.48989,0.92311 1.04522,0.34682 1.26363,0.55768 1.33761,1.2914 l 0.0884,0.87689 -5.72683,0 -5.72683,0 0.0884,-0.87689 z m 20.04487,-0.0231 c 0.005,-0.71641 0.20282,-0.9918 0.96877,-1.35 0.56219,-0.26292 1.04596,-0.76182 1.1636,-1.2 0.32628,-1.21527 0.28656,-14.14654 -0.0471,-15.34797 -0.22708,-0.81757 -0.53311,-1.1775 -1.19832,-1.40939 -0.72799,-0.25378 -0.89337,-0.48093 -0.89337,-1.22704 l 0,-0.91561 8.03938,0 8.03937,0 0.34863,2.762 c 0.19175,1.5191 0.30326,2.80737 0.2478,2.86283 -0.0555,0.0555 -0.56644,0.17639 -1.13551,0.26874 -1.00323,0.1628 -1.051,0.12516 -1.57169,-1.23823 -0.75006,-1.96402 -1.80877,-2.55278 -4.59298,-2.55421 l -2.175,-0.001 0,4.5 0,4.5 1.33047,0 c 1.98039,0 2.80491,-0.41572 3.10024,-1.56314 0.22269,-0.8652 0.39056,-0.99834 1.36165,-1.07997 l 1.10764,-0.0931 0,3.76811 0,3.76811 -1.02673,0 c -0.90784,0 -1.06696,-0.12186 -1.37403,-1.0523 -0.43188,-1.30862 -1.04503,-1.6477 -2.97952,-1.6477 l -1.51972,0 0,2.25964 c 0,3.05792 0.50197,4.19703 2.05447,4.66217 0.87743,0.26288 1.25132,0.56041 1.38785,1.1044 0.10279,0.40953 0.11915,0.81233 0.0364,0.89511 -0.0828,0.0828 -2.51937,0.16811 -5.41463,0.1896 l -5.26411,0.0391 0.007,-0.9 z m 28.89328,0.51146 c -2.8926,-1.03093 -4.89986,-3.10128 -6.12545,-6.31802 -0.81966,-2.15131 -0.8949,-6.67685 -0.14536,-8.74344 1.74819,-4.82006 6.17391,-7.5632 11.41978,-7.07819 3.99765,0.36961 7.10176,2.43855 8.7772,5.85014 0.75978,1.5471 0.82409,1.95898 0.82409,5.27805 0,3.27124 -0.0729,3.75547 -0.79812,5.30254 -1.06669,2.27544 -2.94884,4.25507 -4.99943,5.25832 -2.23115,1.09161 -6.54496,1.30872 -8.95271,0.4506 z m 6.49151,-2.00694 c 4.21326,-2.17876 4.41898,-13.29996 0.30998,-16.75745 -3.08877,-2.59903 -6.74643,-1.19675 -7.99347,3.06455 -0.53392,1.82449 -0.43747,7.16248 0.16428,9.09157 0.53709,1.72181 2.17303,3.94439 3.32796,4.52134 1.28538,0.64212 3.03948,0.6756 4.19125,0.08 z m 14.22087,2.18427 c -0.3245,-0.52527 0.30097,-1.75575 0.97897,-1.92591 0.39861,-0.10005 0.85618,-0.4275 1.01683,-0.72767 0.1683,-0.31447 0.29208,-3.90365 0.29208,-8.469 0,-7.29489 -0.0435,-7.96259 -0.54862,-8.41972 -0.30174,-0.27307 -0.77424,-0.49649 -1.05,-0.49649 -0.27576,0 -0.50322,-0.16875 -0.50547,-0.375 -0.002,-0.20625 -0.0879,-0.68774 -0.19022,-1.06998 l -0.18611,-0.69497 7.16521,0.095 c 8.07518,0.10704 8.64791,0.24241 10.44923,2.46991 0.84663,1.04693 0.91598,1.3103 0.91598,3.47825 0,2.1253 -0.0845,2.46424 -0.9,3.60947 -0.495,0.69515 -1.44,1.55043 -2.1,1.90063 -0.66,0.35019 -1.25171,0.66593 -1.31492,0.70164 -0.0632,0.0357 0.30905,0.5478 0.82724,1.13799 0.51818,0.59018 1.34514,1.87137 1.83768,2.84709 1.1167,2.21217 2.46916,3.77701 3.48467,4.03189 0.62463,0.15677 0.7432,0.32583 0.60086,0.85671 -0.0975,0.36377 -0.17918,0.83015 -0.18143,1.0364 -0.003,0.27663 -0.85522,0.375 -3.24877,0.375 l -3.24468,0 -1.44783,-3.33241 c -1.81587,-4.17952 -2.98222,-5.78283 -4.30047,-5.9116 l -0.96235,-0.094 0,3.019 c 0,2.55192 0.087,3.10604 0.5625,3.58151 0.30938,0.30938 0.71827,0.61442 0.90865,0.67789 0.19038,0.0634 0.376,0.50058 0.4125,0.97138 l 0.0663,0.85601 -4.6037,0.0411 c -2.53204,0.0226 -4.66242,-0.0539 -4.73418,-0.17009 z m 10.87313,-11.91292 c 1.96774,-0.89358 2.81826,-2.66399 2.3862,-4.96704 -0.40975,-2.18416 -2.82425,-3.78044 -4.99655,-3.30332 l -0.8749,0.19216 0,4.32616 0,4.32616 1.125,-0.007 c 0.61875,-0.004 1.68086,-0.25901 2.36025,-0.56753 z m 14.52622,11.22412 c 0.009,-0.67789 0.24638,-1.04807 0.96281,-1.5 0.6499,-0.40996 1.06563,-0.99634 1.31255,-1.85133 0.4877,-1.68875 1.4743,-13.83605 1.20877,-14.88277 -0.15533,-0.61231 -0.44878,-0.88153 -1.1036,-1.0125 -0.59139,-0.11827 -0.892,-0.3597 -0.892,-0.71636 0,-0.29588 -0.0819,-0.75151 -0.18209,-1.0125 -0.16006,-0.4171 0.2666,-0.47392 3.525,-0.46942 l 3.70709,0.005 3.3,7.78976 c 1.815,4.28437 3.3675,7.79092 3.45,7.79232 0.0825,0.002 1.4325,-3.50589 3,-7.79399 l 2.85,-7.79654 3.675,-9e-4 c 3.42309,-9e-4 3.675,0.0385 3.675,0.57457 0,0.95063 -0.33339,1.52453 -0.8856,1.52453 -0.894,0 -1.5144,0.99821 -1.5144,2.43665 0,1.99407 1.1469,12.75202 1.4988,14.05893 0.22407,0.83211 0.54381,1.23213 1.20318,1.50525 0.72681,0.30105 0.89799,0.55092 0.8979,1.31057 l -1.2e-4,0.9386 -4.79994,0 -4.79997,0 0.007,-0.9 c 0.005,-0.71823 0.20217,-0.99088 0.97506,-1.35 0.88194,-0.40977 0.97548,-0.5841 1.04649,-1.95 0.0429,-0.825 -0.16617,-3.795 -0.46461,-6.6 l -0.54264,-5.1 -3.14688,7.95 -3.14686,7.95 -1.03849,0.0827 -1.03852,0.0827 -3.45,-7.92857 c -1.8975,-4.36072 -3.47558,-7.90486 -3.50684,-7.87587 -0.15377,0.14258 -0.99316,9.19107 -0.99316,10.70604 0,1.5072 0.10214,1.81978 0.76506,2.34123 0.42078,0.33098 0.88049,0.64453 1.02159,0.69677 0.1411,0.0522 0.30307,0.48187 0.35995,0.95473 l 0.1034,0.85975 -3.52508,0.0403 -3.52509,0.0403 0.0116,-0.9 z m 44.68847,-0.009 c 6e-5,-0.73408 0.17286,-0.97446 0.89715,-1.24784 0.51165,-0.19313 1.02726,-0.68093 1.2,-1.13531 0.38259,-1.00624 0.40383,-14.85312 0.0243,-15.85127 -0.15702,-0.41298 -0.68067,-0.87289 -1.2,-1.05393 -0.75714,-0.26393 -0.92142,-0.48446 -0.92142,-1.23681 l 0,-0.91561 8.1,0 c 4.455,0 8.1,0.10479 8.1,0.23287 0,0.12808 0.1419,1.3646 0.31536,2.74781 0.34437,2.74661 0.23907,3.00587 -1.2246,3.01473 -0.62421,0.004 -0.83766,-0.22048 -1.2,-1.26063 -0.66969,-1.9224 -1.93644,-2.63478 -4.68513,-2.63478 l -2.20563,0 0,4.5 0,4.5 1.425,-0.004 c 1.89009,-0.006 2.82903,-0.52039 3.13974,-1.72058 0.22374,-0.86428 0.37068,-0.975 1.29384,-0.975 l 1.04142,0 0,3.75 0,3.75 -0.9153,0 c -0.76068,0 -0.98865,-0.17555 -1.34952,-1.03918 -0.54726,-1.30989 -1.20555,-1.66082 -3.11544,-1.66082 l -1.51971,0 0.0168,2.175 c 0.0249,3.21014 0.43719,4.15111 2.08308,4.75549 1.12584,0.41342 1.36467,0.63883 1.43829,1.35762 l 0.0883,0.86189 -5.41335,0 -5.41338,0 9e-5,-0.90923 z m 28.51101,0.707 c -1.43958,-0.41304 -2.54544,-1.26035 -3.3648,-2.57814 -0.66759,-1.07368 -0.70233,-1.42865 -0.84684,-8.64935 -0.16059,-8.02522 -0.20847,-8.27247 -1.71198,-8.8441 -0.50736,-0.1929 -0.68733,-0.49894 -0.68733,-1.16875 l 0,-0.90743 4.8,0 c 4.77915,0 4.79997,0.003 4.79541,0.675 -0.006,0.8729 -0.26181,1.20659 -1.26213,1.64591 -0.44919,0.19728 -0.89775,0.68154 -0.99681,1.07614 -0.099,0.3946 -0.1365,3.60544 -0.0833,7.1352 0.0889,5.89736 0.14931,6.51584 0.7446,7.62751 0.35628,0.66536 1.01835,1.40786 1.47126,1.65 1.11126,0.59411 3.47682,0.52574 4.47666,-0.12938 1.49727,-0.98105 1.76061,-2.17543 1.8933,-8.58649 0.14031,-6.78073 -0.0828,-8.14256 -1.45005,-8.84959 -0.68301,-0.35319 -0.88899,-0.66645 -0.88899,-1.352 l 0,-0.8923 3.3,0 3.3,0 0,0.8923 c 0,0.68501 -0.20595,0.9988 -0.88656,1.35074 -1.13055,0.58464 -1.16679,0.83085 -1.30308,8.85696 -0.0892,5.25456 -0.20496,6.67165 -0.62427,7.64591 -1.19676,2.78056 -3.00459,3.75025 -6.93609,3.72045 -1.485,-0.0113 -3.16758,-0.15462 -3.73905,-0.31859 z m 19.18905,-0.61505 c 0,-0.60287 0.23379,-0.9382 0.89112,-1.27811 0.49011,-0.25344 1.03011,-0.72054 1.2,-1.03798 0.18855,-0.35231 0.30888,-3.53927 0.30888,-8.18014 0,-8.18421 -0.10485,-8.78172 -1.57764,-8.99096 -0.51774,-0.0735 -0.69432,-0.32428 -0.76785,-1.09032 l -0.0955,-0.9948 7.14549,0.0948 c 6.75753,0.0897 7.2147,0.13177 8.42016,0.77573 0.70107,0.37451 1.64607,1.24227 2.1,1.92837 1.11579,1.68646 1.15227,4.56041 0.082,6.46463 -0.65862,1.17183 -2.09796,2.3865 -3.40086,2.87 -0.49674,0.18434 -0.47757,0.26092 0.21981,0.879 0.42018,0.37239 1.48938,1.95957 2.376,3.52707 1.27644,2.2567 1.84305,2.96609 2.72175,3.40763 0.97008,0.48746 1.09821,0.6762 1.01814,1.5 l -0.0916,0.94237 -3.23802,0 -3.23799,0 -1.236,-2.85 c -0.67983,-1.5675 -1.7202,-3.5925 -2.31201,-4.5 -0.9513,-1.45882 -1.20633,-1.66079 -2.20098,-1.74311 l -1.125,-0.0931 0,1.3241 c 0,0.72826 0.0887,2.17233 0.19701,3.20905 0.17346,1.65951 0.2988,1.94284 1.04811,2.36901 0.63705,0.36233 0.85155,0.71039 0.85299,1.38406 l 0.003,0.9 -4.65,0 -4.65,0 0,-0.81729 z m 11.00511,-11.31572 c 1.90428,-0.86457 2.75217,-2.92956 2.16324,-5.2684 -0.5715,-2.2696 -3.07458,-3.66365 -5.15682,-2.87198 l -0.81153,0.30854 0,4.00743 c 0,2.20408 0.09,4.09742 0.20001,4.20742 0.38928,0.38929 2.36679,0.17919 3.6051,-0.38301 z m -29.82747,-12.22292 c -1.6371,-0.32896 -2.1471,-2.90258 -0.78717,-3.97229 1.58733,-1.24861 3.82386,-0.5251 4.18635,1.35428 0.31527,1.63464 -1.46589,3.00648 -3.39918,2.61801 z m 7.22946,-0.0802 c -0.35361,-0.14894 -0.85986,-0.58053 -1.125,-0.95909 -1.61247,-2.3021 1.54932,-4.725 3.82743,-2.93301 1.50915,1.18709 0.78114,3.71078 -1.15953,4.01966 -0.495,0.0788 -1.18932,0.0214 -1.5429,-0.12756 z m 120.31158,-64.10081 c 0.0973,-3.77468 0.25905,-21.02315 0.35952,-38.32992 l 0.18267,-31.46685 -4.45542,0.19762 c -2.45049,0.1087 -6.3117,0.28148 -8.58045,0.38397 l -4.125,0.18633 0,-5.86001 c 0,-6.55547 -0.12003,-6.2242 2.25501,-6.2242 1.90035,0 2.70009,-0.41048 3.47052,-1.78128 l 0.68496,-1.21872 9.16974,-3e-4 c 5.04339,-2.4e-4 14.35248,-0.09 20.68692,-0.19945 l 11.51715,-0.19901 -0.20052,3.12444 c -0.58812,9.16291 -0.52476,8.67432 -1.12488,8.67432 -0.4704,0 -0.5589,0.23663 -0.5589,1.49447 l 0,1.49447 -6.975,0.0805 -6.975,0.0805 -0.0762,37.69882 -0.0761,37.69883 -1.12386,0.16164 c -0.61809,0.0889 -3.21633,0.23942 -5.77383,0.33447 -2.5575,0.095 -5.50683,0.25371 -6.5541,0.35259 l -1.90407,0.17977 0.17685,-6.86306 z m 128.74368,6.11193 c -0.0654,-0.20625 -0.26595,-1.9275 -0.44577,-3.825 -0.17982,-1.89749 -0.40746,-4.02374 -0.50583,-4.72499 -0.16503,-1.17624 -0.12645,-1.275 0.49824,-1.275 l 0.6771,0 -0.19182,-15.675 c -0.10548,-8.62125 -0.27894,-24.39221 -0.38547,-35.04657 l -0.19368,-19.37156 0.79005,-2.37844 c 0.43455,-1.30814 1.0335,-3.59343 1.33107,-5.07843 l 0.54099,-2.7 7.15914,-0.0805 7.15914,-0.0806 -0.19632,15.08055 c -0.10797,8.29429 -0.28599,25.50929 -0.39561,38.25554 l -0.19932,23.175 1.47285,-0.006 c 0.81009,-0.003 6.67038,-0.27058 13.02288,-0.59427 6.3525,-0.3237 11.78625,-0.59112 12.075,-0.59427 0.48021,-0.005 0.525,0.44208 0.525,5.24427 l 0,5.25 -1.12458,0 c -1.00578,0 -1.33503,0.22425 -3.11679,2.12271 l -1.99224,2.12272 -12.55818,0.26635 c -18.30909,0.38833 -23.80164,0.36842 -23.94585,-0.0868 z m -263.18736,-1.53411 c -3.67125,-0.67987 -6.675,-1.33945 -6.675,-1.46573 0,-0.12628 3.645,-19.8026 8.1,-43.72515 4.455,-23.92256 8.1,-43.56406 8.1,-43.64778 0,-0.0837 3.52779,-0.15222 7.83951,-0.15222 l 7.83948,0 -0.16095,1.2 c -0.0907,0.67651 -0.0356,1.2 0.1263,1.2 0.15795,0 1.23462,-0.21549 2.39259,-0.47886 1.15794,-0.26337 2.17875,-0.40547 2.26845,-0.31577 0.0897,0.0897 4.43913,19.73248 9.66546,43.65065 l 9.50235,43.48757 -1.06158,0.15733 c -3.19794,0.47396 -13.85127,1.17714 -14.08182,0.92948 -0.14355,-0.15422 -1.04097,-3.99291 -1.99428,-8.5304 -0.95331,-4.5375 -1.81254,-8.33552 -1.90938,-8.44005 -0.0969,-0.10452 -2.39577,0.44641 -5.10867,1.22429 l -4.93251,1.41431 -3.16749,-0.69982 c -1.7421,-0.3849 -3.7206,-0.78261 -4.39665,-0.88378 l -1.22916,-0.18395 -0.33456,1.7595 c -2.92089,15.36129 -2.79186,14.81161 -3.468,14.77301 -0.35151,-0.0201 -3.64284,-0.59275 -7.31409,-1.27263 z m 24.39798,-29.47649 c 1.38987,-0.59708 2.52201,-1.10333 2.51589,-1.125 -0.006,-0.0217 -1.53879,-7.05939 -3.40593,-15.63939 -3.32676,-15.28748 -3.40119,-15.56995 -3.71469,-14.1 -1.11849,5.24433 -5.80812,30.51014 -5.68572,30.63251 0.17274,0.17275 6.02562,1.23752 7.06545,1.28537 0.38388,0.0177 1.83513,-0.4564 3.225,-1.05349 z m 151.92702,25.08561 0,-5.4 0.75,0 c 0.4125,0 0.75102,-0.10125 0.75228,-0.225 0,-0.12375 0.13341,-1.035 0.2937,-2.025 0.27642,-1.70701 1.1967,-22.44231 1.20168,-27.075 l 0.003,-2.175 -1.65,0 -1.65,0 0,-5.40644 0,-5.40643 0.75,-0.34172 0.75,-0.34172 0,-10.70488 c 0,-9.92357 -0.0438,-10.83217 -0.6,-12.44881 -0.51708,-1.5029 -0.6,-2.52524 -0.6,-7.39697 l -6.6e-4,-5.65303 0.675,-0.007 c 0.37125,-0.004 8.4375,-0.20318 17.925,-0.44319 9.4875,-0.24 18.76875,-0.43943 20.625,-0.44318 l 3.375,-0.007 0,6.34629 0,6.3463 -13.05,-0.16918 -13.05,-0.16918 0,12.72288 0,12.72289 11.4,0 11.4,0 0,6 0,6 -11.4,0 -11.4,0 0,13.04428 0,13.04429 0.675,0.15145 c 0.37125,0.0833 6.30015,0.18713 13.17531,0.23072 6.87519,0.0436 12.56412,0.14676 12.64209,0.22926 0.0779,0.0825 0.29556,1.8375 0.48357,3.9 0.18801,2.0625 0.42066,4.32375 0.51699,5.025 0.16752,1.21944 0.141,1.27499 -0.60891,1.27499 -0.77073,0 -0.78405,0.0357 -0.78405,2.1 l 0,2.1 -21.3,0 -21.3,0 0,-5.39999 z m -436.799997,1.19999 0,-3.59999 118.649997,0 118.65,0 0,3.59999 0,3.6 -118.65,0 -118.649997,0 0,-3.6 z m 320.399997,-41.10533 0,-44.70533 7.22364,0.0803 7.22364,0.0803 9.2139,25.26252 c 5.06763,13.89439 9.30948,25.35814 9.42633,25.475 0.11688,0.11686 0.21249,-11.28502 0.21249,-25.33752 l 0,-25.55 6.9,0 6.9,0 0,44.7 0,44.69999 -6.70449,0 -6.70449,0 -9.72051,-27.89877 c -5.34627,-15.34433 -9.82176,-27.89933 -9.94551,-27.9 -0.12375,-6.7e-4 -0.225,12.55378 -0.225,27.89878 l 0,27.89999 -6.9,0 -6.9,0 0,-44.70533 z m 173.1,0.005 0,-44.7 7.65,0 7.65,0 0,44.7 0,44.7 -7.65,0 -7.65,0 0,-44.7 z m -278.50491,-7.30559 -12.77705,-30.64441 -0.009,29.625 -0.009,29.625 -6.75,0 -6.75,0 0,-40.65 0,-40.65 2.1,0 c 1.155,0 2.1,-0.10741 2.1,-0.23868 0,-0.13127 -0.86812,-2.25565 -1.92915,-4.72085 -1.06103,-2.46519 -1.8951,-4.51622 -1.85349,-4.55783 0.38392,-0.38393 12.3413,-5.13526 12.48762,-4.96202 0.10655,0.12616 4.77277,11.21172 10.36938,24.63458 l 10.17564,24.40521 0.077,-21.63021 0.077,-21.6302 7.49802,0 7.49802,0 0,38.678 c 0,33.51216 -0.058,38.69095 -0.43425,38.775 -0.33291,0.0744 0.0171,1.17614 1.49991,4.72207 1.0638,2.5438 1.90047,4.64909 1.85925,4.67844 -0.0412,0.0293 -1.15491,0.49881 -2.47491,1.04325 -1.32,0.54444 -4.10502,1.69913 -6.18894,2.56598 l -3.78894,1.57609 -12.77703,-30.64442 z m -71.44509,28.12612 c -8.21989,-1.81452 -13.78666,-6.99162 -16.09759,-14.97076 l -0.69503,-2.39977 -0.0868,-36.375 -0.0868,-36.375 7.65807,0 7.65806,0 0,34.5949 c 0,23.74697 0.10284,35.15119 0.32795,36.36895 0.76061,4.11451 2.79931,6.00567 6.83936,6.34437 3.88399,0.32562 6.53831,-1.08272 7.74493,-4.10934 0.50486,-1.26636 0.54271,-3.54669 0.61866,-37.27388 l 0.0809,-35.925 7.6441,0 7.6441,0 0,35.36686 c 0,38.47506 0.0289,37.74984 -1.68495,42.30624 -2.15057,5.7175 -6.8514,10.01693 -13.16505,12.04089 -2.79316,0.8954 -11.12043,1.1305 -14.4,0.40654 z m -127.01122,-0.14328 c -0.39117,-0.15659 -2.34867,-1.48263 -4.35,-2.94674 -2.001326,-1.46412 -4.545962,-3.22997 -5.654744,-3.92412 l -2.015967,-1.26208 -1.829364,-5.55282 c -1.006149,-3.05405 -1.756953,-5.74152 -1.66845,-5.97215 0.09279,-0.24181 -0.02562,-0.41934 -0.279666,-0.41934 -0.382788,0 -0.440328,-2.46958 -0.438627,-18.825 l 0.0021,-18.825 4.802142,-1.7709 c 2.641179,-0.97399 4.742601,-1.83044 4.669827,-1.90321 -0.07277,-0.0728 -1.921113,-0.66112 -4.10742,-1.30743 -2.186304,-0.6463 -4.020051,-1.22004 -4.074987,-1.27498 -0.05494,-0.0549 0.102909,-0.67467 0.350769,-1.37718 0.279324,-0.79169 0.571287,-3.46124 0.767961,-7.0218 0.174519,-3.15947 0.384378,-6.18375 0.46635,-6.72062 0.215511,-1.4114 7.339686,-7.45472 12.081736,-10.24873 l 3.4897,-2.05613 4.5,-0.28568 4.5,-0.28568 5.3469,2.40123 c 4.36805,1.96164 5.32165,2.4978 5.20896,2.92873 -0.087,0.33274 -0.001,0.47496 0.23281,0.38521 0.20392,-0.0782 1.43739,0.59465 2.74105,1.49532 2.36358,1.63295 2.37762,1.65061 4.96189,6.23972 l 2.59161,4.60213 0.21716,6.34162 0.21716,6.34163 -1.75877,0.17881 c -4.18828,0.42583 -12.14174,0.85496 -12.33136,0.66534 -0.11387,-0.11386 -0.27911,-2.32661 -0.36722,-4.91721 -0.15716,-4.61697 -0.17923,-4.74285 -1.11531,-6.36019 -0.53851,-0.93043 -1.38891,-1.90344 -1.95,-2.23114 -0.54726,-0.31963 -1.13002,-0.75065 -1.29502,-0.95784 -0.53255,-0.66871 -5.16086,-2.51102 -6.30825,-2.51102 -1.15703,0 -3.99392,1.67893 -6.06205,3.58764 l -0.97031,0.89551 -0.20192,4.28342 c -0.16806,3.5654 -0.34486,4.70774 -1.05469,6.8147 l -0.85278,2.53128 0,19.38021 0,19.38022 0.975,2.90336 c 0.96223,2.86531 0.99951,2.92118 2.84527,4.26351 l 1.87028,1.36015 2.69664,0 c 2.68234,0 2.70857,-0.007 4.94264,-1.38607 l 2.24599,-1.38606 0.87936,-2.88894 c 0.81675,-2.68323 0.89302,-3.35354 1.07117,-9.41393 l 0.1918,-6.525 -3.90907,0 -3.90908,0 0,-5.7 0,-5.7 12,0 12,0 0,5.7 0,5.7 -0.75,0 -0.75,0 0,16.5 0,16.5 -0.675,-0.005 c -0.98289,-0.008 -6.26459,-0.83422 -6.43761,-1.00724 -0.0809,-0.0809 -0.28634,-1.23798 -0.45656,-2.57132 -0.21755,-1.7041 -0.4092,-2.34839 -0.64515,-2.16888 -3.62315,2.75636 -8.37186,6.10043 -9.0043,6.34089 -1.02842,0.391 -12.66189,0.38178 -13.6426,-0.0108 z m 46.92081,-7.55225 c 0.6374,-26.39063 0.70251,-34.87313 0.27025,-35.20808 -0.35156,-0.27241 -0.42984,-1.62216 -0.42984,-7.41179 l 0,-7.07873 -0.94665,-1.5882 -0.94666,-1.5882 0.53171,-6.54499 c 0.29245,-3.59975 0.66919,-7.37975 0.83722,-8.4 0.16802,-1.02026 0.38849,-5.37932 0.48994,-9.6868 l 0.18444,-7.83179 4.5,2.05844 c 2.78221,1.27267 4.72904,1.99718 5.1,1.89795 0.33,-0.0883 4.13623,-1.01237 8.45829,-2.05354 l 7.85829,-1.89305 7.52864,3.19589 7.52864,3.1959 4.19707,6.99354 4.19708,6.99353 -0.72902,8.18823 -0.72902,8.18821 -5.33615,6.15736 c -4.70643,5.43073 -5.46301,6.17879 -6.41112,6.33897 -0.59124,0.0999 -1.25844,0.29501 -1.48269,0.4336 -0.31627,0.19547 1.56177,4.27982 8.37334,18.21027 4.82958,9.87705 9.5057,19.40953 10.39136,21.18328 l 1.61031,3.225 -8.94217,0 -8.94217,0 -8.65551,-20.08038 -8.65552,-20.08038 -1.82982,-0.80082 c -1.00641,-0.44045 -1.99858,-0.86872 -2.20483,-0.95172 -0.29715,-0.11957 -0.375,3.11542 -0.375,15.58311 0,8.6537 -0.0888,18.18564 -0.19734,21.18209 l -0.19734,5.4481 -7.61072,0 -7.61072,0 0.17571,-7.275 z m 25.86142,-48.98293 3.23225,-0.75793 2.16109,-2.51559 2.16109,-2.51559 0.33771,-3.25148 0.33772,-3.25148 -1.69176,-2.89856 -1.69176,-2.89857 -3.11592,-1.2523 -3.11592,-1.2523 -3.16198,0.67471 c -3.11211,0.66407 -3.181,0.69726 -4.36775,2.10469 l -1.20578,1.42997 0,6.45706 c 0,4.19388 0.11986,6.72012 0.34195,7.20757 0.24979,0.54822 1.15943,1.11362 3.375,2.09776 1.66818,0.741 3.06427,1.35463 3.10243,1.36362 0.0382,0.009 1.52389,-0.32472 3.30163,-0.74158 z m 167.77899,-29.84207 0,-3.6 154.65,0 154.65,0 0,3.6 0,3.6 -154.65,0 -154.65,0 0,-3.6 z m -120.6,-13.95 0,-4.95 13.2,0 13.2,0 0,4.95 0,4.95 -13.2,0 -13.2,0 0,-4.95 z"
       id="path3463"
       inkscape:connector-curvature="0" />
  </g>
</svg>
