<?xml version="1.0" encoding="UTF-8" standalone="no"?>
<!-- Created with Inkscape (http://www.inkscape.org/) -->

<svg
   xmlns:dc="http://purl.org/dc/elements/1.1/"
   xmlns:cc="http://creativecommons.org/ns#"
   xmlns:rdf="http://www.w3.org/1999/02/22-rdf-syntax-ns#"
   xmlns:svg="http://www.w3.org/2000/svg"
   xmlns="http://www.w3.org/2000/svg"
   xmlns:sodipodi="http://sodipodi.sourceforge.net/DTD/sodipodi-0.dtd"
   xmlns:inkscape="http://www.inkscape.org/namespaces/inkscape"
   version="1.1"
   width="1000"
   height="650"
   id="svg2"
   xml:space="preserve"
   inkscape:version="0.48.4 r9939"
   sodipodi:docname="tess_logo_cmyk+payoff.svg"><sodipodi:namedview
     pagecolor="#ffffff"
     bordercolor="#666666"
     borderopacity="1"
     objecttolerance="10"
     gridtolerance="10"
     guidetolerance="10"
     inkscape:pageopacity="0"
     inkscape:pageshadow="2"
     inkscape:window-width="1173"
     inkscape:window-height="739"
     id="namedview84"
     showgrid="false"
     inkscape:zoom="0.31716168"
     inkscape:cx="526.18127"
     inkscape:cy="372.04999"
     inkscape:window-x="0"
     inkscape:window-y="22"
     inkscape:window-maximized="0"
     inkscape:current-layer="g14" /><metadata
     id="metadata8"><rdf:RDF><cc:Work
         rdf:about=""><dc:format>image/svg+xml</dc:format><dc:type
           rdf:resource="http://purl.org/dc/dcmitype/StillImage" /><dc:title></dc:title></cc:Work></rdf:RDF></metadata><defs
     id="defs6"><clipPath
       id="clipPath16"><path
         d="m 0,595.28 841.89,0 L 841.89,0 0,0 0,595.28 z"
         id="path18"
         inkscape:connector-curvature="0" /></clipPath></defs><g
     clip-path="url(#clipPath16)"
     id="g14"
     transform="matrix(1.25,0,0,-1.25,0,650.00002)"><g
       id="g3212"
       transform="matrix(1.8859752,0,0,1.8859752,-255.45791,-339.61746)"><g
         id="g20"
         transform="translate(363.5801,387.4434)"><path
           inkscape:connector-curvature="0"
           style="fill:#337abe;fill-opacity:1;fill-rule:nonzero;stroke:none"
           id="path22"
           d="m 0,0 c 0,0 -3.362,-8.914 -13.481,-5.609 -0.446,0.148 -0.909,0.302 -1.363,0.452 -1.665,0.529 -3.283,0.925 -4.869,1.228 -2.666,-5.53 -4.62,-11.464 -5.786,-17.676 2.995,-1.499 6.208,-3.105 9.623,-4.821 3.418,-1.707 6.638,-3.866 9.648,-6.465 3.003,-2.597 5.517,-5.885 7.497,-9.86 1.418,-2.848 2.323,-6.227 2.724,-10.06 l 0.101,0.216 c 14.391,-6.727 16.216,-7.754 18.335,-8.841 2.129,-1.095 4.35,-2.129 6.675,-3.083 2.332,-0.961 4.615,-1.753 6.895,-2.363 2.253,-0.628 4.272,-0.924 6.055,-0.924 3.148,0 5.798,0.752 8.006,2.254 2.191,1.517 3.288,3.974 3.288,7.403 0,2.598 -0.955,4.755 -2.871,6.471 -1.919,1.699 -4.353,3.28 -7.288,4.711 -2.95,1.447 -6.144,2.95 -9.563,4.529 -3.435,1.572 -6.612,3.617 -9.555,6.16 -2.949,2.527 -5.373,5.712 -7.3,9.555 -1.92,3.833 -2.856,8.695 -2.856,14.586 0,5.347 1.118,10.032 3.388,14.071 2.254,4.037 5.204,7.387 8.828,10.063 3.63,2.674 7.73,4.663 12.316,5.959 4.595,1.303 9.139,1.951 13.677,1.951 6.01,0 11.521,-0.823 16.521,-2.465 3.228,-1.06 6.464,-2.436 9.718,-4.067 3.842,-1.229 7.18,-1.056 8.637,0.599 1.37,1.556 2.613,3.301 3.849,5.16 -12.465,10.733 -28.673,17.237 -46.412,17.237 -19.516,0 -37.19,-7.86 -50.05,-20.579 3.542,-1.445 7.106,-3.212 10.684,-5.338 L 0,0 z" /></g><g
         id="g24"
         transform="translate(461.9082,399.1045)"><path
           inkscape:connector-curvature="0"
           style="fill:#337abe;fill-opacity:1;fill-rule:nonzero;stroke:none"
           id="path26"
           d="M 0,0 C -0.951,1.101 -1.93,2.175 -2.946,3.216 -9.649,0.411 -14.388,-1.923 -15.595,-3.326 l -4.298,-8.829 c 0,0 -3.867,-8.311 -12.898,-5.242 -0.556,0.206 -1.125,0.393 -1.711,0.579 -3.834,1.221 -7.466,1.848 -10.879,1.848 -2.613,0 -4.993,-0.517 -7.098,-1.535 -2.136,-1.033 -3.185,-3.052 -3.185,-6.064 0,-2.467 0.988,-4.494 2.983,-6.065 1.978,-1.574 4.466,-3.107 7.497,-4.616 3.01,-1.503 6.228,-3.116 9.663,-4.837 3.412,-1.707 6.628,-3.866 9.642,-6.465 3.01,-2.597 5.515,-5.885 7.495,-9.861 1.988,-3.967 2.983,-8.904 2.983,-14.788 0,-5.617 -1.172,-10.549 -3.491,-14.787 -2.339,-4.259 -5.384,-7.749 -9.147,-10.473 -3.772,-2.755 -8.037,-4.805 -12.835,-6.166 -4.806,-1.362 -9.71,-2.058 -14.79,-2.058 -6.425,0 -12.631,1.195 -18.593,3.594 -4.437,1.783 -8.81,3.675 -18.186,8.511 -5.227,2.694 -9.936,-0.201 -11.661,-1.738 -0.773,-0.719 -1.592,-1.397 -2.456,-2.024 13.018,-14.316 31.793,-23.303 52.669,-23.303 9.161,0 17.921,1.754 25.965,4.909 l 5.054,-8.633 c -3.939,-5.248 -4.586,-12.555 -1.064,-18.576 l 28.93,-49.481 c 4.694,-8.015 14.992,-10.717 23.001,-6.031 l 5.109,2.994 c 8.021,4.68 10.721,14.983 6.031,23 l -28.933,49.483 c -3.706,6.324 -10.901,9.32 -17.714,7.998 l -4.615,7.898 c 17.819,12.935 29.414,33.918 29.414,57.619 0,14.214 -4.183,27.441 -11.362,38.553 -9.578,1.538 -16.029,3.763 -16.029,3.763 0,0 4.12,1.691 10.104,4.149" /></g><g
         id="g28"
         transform="translate(228.3682,374.0684)"><path
           inkscape:connector-curvature="0"
           style="fill:#337abe;fill-opacity:1;fill-rule:nonzero;stroke:none"
           id="path30"
           d="m 0,0 c 1.167,2.74 2.534,4.854 4.109,6.371 1.572,1.511 3.216,2.506 4.944,2.989 1.691,0.468 3.381,0.706 5.016,0.706 4.79,0 8.352,-1.504 10.691,-4.517 2.314,-3.012 3.761,-8.083 4.303,-15.204 l -31.434,-1.22 C -1.949,-6.367 -1.166,-2.746 0,0 m 109.713,-8.23 c -0.01,0.005 -0.022,0.012 -0.032,0.017 -3.021,1.508 -5.519,3.041 -7.506,4.615 -1.988,1.572 -2.983,3.598 -2.983,6.065 0,3.012 1.067,5.032 3.194,6.064 2.114,1.018 4.483,1.535 7.089,1.535 1.937,0 3.951,-0.222 6.024,-0.62 3.556,7.371 8.347,14.03 14.1,19.721 -1.476,0.604 -2.95,1.166 -4.417,1.65 -4.993,1.642 -10.509,2.465 -16.537,2.465 -4.514,0 -9.069,-0.648 -13.655,-1.951 C 90.406,30.035 86.282,28.046 82.659,25.372 79.035,22.696 76.094,19.346 73.833,15.309 71.571,11.27 70.437,6.585 70.437,1.238 c 0,-5.891 0.953,-10.753 2.876,-14.586 1.927,-3.843 4.354,-7.028 7.296,-9.555 2.951,-2.543 6.134,-4.588 9.561,-6.16 3.413,-1.579 6.591,-3.082 9.54,-4.529 2.95,-1.431 5.383,-3.012 7.3,-4.711 1.909,-1.716 2.873,-3.873 2.873,-6.471 0,-3.429 -1.097,-5.886 -3.295,-7.403 -2.191,-1.502 -4.852,-2.254 -8.013,-2.254 -1.776,0 -3.795,0.296 -6.041,0.924 -2.27,0.61 -4.564,1.402 -6.887,2.363 -2.346,0.954 -4.555,1.988 -6.682,3.083 -1.76,0.907 -3.31,1.783 -10.368,5.697 -4.634,2.58 -8.406,1.145 -9.925,0.483 -19.068,-8.237 -23.671,-9.9 -27.66,-10.907 -4.304,-1.104 -8.522,-1.643 -12.622,-1.643 -6.035,0 -10.799,1.675 -14.281,5.031 -3.501,3.355 -5.664,9.477 -6.48,18.383 l 50.473,1.704 c 0,0 10.471,0.722 10.485,10.282 0.017,5.543 -0.892,11.097 -2.104,16.679 -1.431,6.624 -3.828,12.59 -7.184,17.865 -3.365,5.273 -7.91,9.547 -13.67,12.833 -5.736,3.294 -12.937,4.936 -21.56,4.936 -8.763,0 -16.087,-1.745 -21.981,-5.236 -5.894,-3.488 -10.611,-7.947 -14.181,-13.364 -3.558,-5.408 -6.094,-11.394 -7.597,-17.967 -1.504,-6.576 -2.26,-12.871 -2.26,-18.898 0,-6.566 0.861,-13.187 2.558,-19.823 0.751,-2.865 1.723,-5.549 2.847,-8.152 -8.796,-2.952 -10.695,-3.48 -12.207,-3.758 -1.855,-0.342 -3.184,-0.515 -3.998,-0.515 -2.757,0 -4.834,0.639 -6.268,1.938 -1.44,1.31 -2.167,4.351 -2.167,9.148 l 0,56.916 12.309,0 c 8.973,0 10.056,9.452 10.056,9.452 l 1.265,10.057 -23.63,0 0,19.478 -20.02,-3.055 c 0,0 -8.331,-1.485 -8.331,-10.468 l 0,-5.955 0,-0.487 0,-19.022 0,-60.818 c 0,-10.675 2.981,-18.412 8.942,-23.211 5.957,-4.806 13.726,-7.191 23.313,-7.191 3.012,0 6.612,0.421 10.799,1.23 3.661,0.733 7.151,1.862 18.538,6.135 1.582,0.593 5.321,1.55 9.079,-0.706 0.967,-0.576 1.971,-1.19 3.002,-1.737 6.3,-3.286 14.038,-4.922 23.212,-4.922 6.588,0 12.959,0.82 19.116,2.466 4.595,1.219 9.22,2.814 21.107,7.856 1.57,0.656 5.232,2.115 9.607,-0.283 5.98,-3.26 9.681,-4.935 13.43,-6.445 5.962,-2.399 12.153,-3.594 18.583,-3.594 5.071,0 9.995,0.696 14.798,2.058 4.788,1.361 9.073,3.411 12.834,6.166 0.053,0.038 0.103,0.081 0.156,0.119 -11.5,12.642 -18.508,29.441 -18.508,47.877 0,4.512 0.439,8.92 1.241,13.199" /></g><g
         id="g32"
         transform="translate(343.8672,383.5142)"><path
           inkscape:connector-curvature="0"
           style="fill:#4b65ae;fill-opacity:1;fill-rule:nonzero;stroke:none"
           id="path34"
           d="m 0,0 c 1.586,-0.303 3.204,-0.699 4.869,-1.228 0.454,-0.15 0.917,-0.304 1.362,-0.452 10.12,-3.305 13.482,5.609 13.482,5.609 l 5.071,10.454 C 21.206,16.509 17.642,18.276 14.1,19.722 8.347,14.03 3.556,7.372 0,0" /></g><g
         id="g36"
         transform="translate(343.8672,383.5142)"><path
           inkscape:connector-curvature="0"
           style="fill:#90c84b;fill-opacity:1;fill-rule:nonzero;stroke:none"
           id="path38"
           d="m 0,0 c 1.586,-0.303 3.204,-0.699 4.869,-1.228 0.454,-0.15 0.917,-0.304 1.362,-0.452 10.12,-3.305 13.482,5.609 13.482,5.609 l 5.071,10.454 C 21.206,16.509 17.642,18.276 14.1,19.722 8.347,14.03 3.556,7.372 0,0" /></g><g
         id="g40"
         transform="translate(369.4653,308.5249)"><path
           inkscape:connector-curvature="0"
           style="fill:#4b65ae;fill-opacity:1;fill-rule:nonzero;stroke:none"
           id="path42"
           d="m 0,0 c 9.375,-4.836 13.749,-6.729 18.186,-8.512 5.962,-2.398 12.168,-3.593 18.593,-3.593 5.08,0 9.984,0.696 14.79,2.057 4.798,1.361 9.063,3.411 12.835,6.166 3.763,2.725 6.807,6.215 9.147,10.473 2.319,4.238 3.491,9.17 3.491,14.788 0,5.884 -0.995,10.821 -2.983,14.788 -1.98,3.976 -4.485,7.264 -7.495,9.861 -3.014,2.598 -6.231,4.757 -9.642,6.464 -3.435,1.721 -6.653,3.335 -9.663,4.838 -3.031,1.509 -5.519,3.042 -7.497,4.615 -1.995,1.572 -2.983,3.598 -2.983,6.065 0,3.012 1.049,5.032 3.185,6.064 2.105,1.018 4.485,1.536 7.098,1.536 3.413,0 7.045,-0.628 10.879,-1.848 0.586,-0.187 1.155,-0.374 1.711,-0.579 9.031,-3.069 12.898,5.242 12.898,5.242 l 4.298,8.829 c 1.207,1.402 5.945,3.737 12.649,6.541 -1.448,1.485 -2.961,2.903 -4.534,4.257 -1.235,-1.858 -2.478,-3.603 -3.848,-5.16 -1.457,-1.654 -4.795,-1.828 -8.637,-0.598 -3.254,1.63 -6.49,3.007 -9.719,4.066 -5,1.642 -10.51,2.465 -16.52,2.465 -4.538,0 -9.083,-0.648 -13.677,-1.95 C 27.976,95.579 23.875,93.59 20.246,90.916 16.622,88.239 13.672,84.89 11.417,80.853 9.148,76.813 8.03,72.128 8.03,66.781 c 0,-5.89 0.936,-10.752 2.856,-14.585 1.927,-3.843 4.351,-7.029 7.3,-9.556 2.943,-2.542 6.12,-4.587 9.555,-6.16 3.419,-1.578 6.613,-3.082 9.563,-4.529 2.935,-1.431 5.369,-3.012 7.287,-4.711 1.917,-1.716 2.872,-3.872 2.872,-6.471 0,-3.429 -1.097,-5.885 -3.288,-7.403 -2.208,-1.501 -4.859,-2.254 -8.006,-2.254 -1.783,0 -3.802,0.297 -6.055,0.924 -2.28,0.61 -4.564,1.402 -6.895,2.364 -2.325,0.954 -4.547,1.987 -6.676,3.082 -2.119,1.087 -3.943,2.114 -18.335,8.841 l -0.101,-0.216 c -0.4,3.833 -1.306,7.212 -2.724,10.06 -1.98,3.976 -4.493,7.264 -7.496,9.861 -3.011,2.598 -6.23,4.757 -9.649,6.464 -3.414,1.716 -6.627,3.323 -9.622,4.821 -0.803,-4.279 -1.241,-8.687 -1.241,-13.199 0,-18.435 7.008,-35.234 18.508,-47.877 0.864,0.627 1.683,1.306 2.456,2.025 C -9.936,-0.201 -5.227,2.693 0,0" /></g><g
         id="g44"
         transform="translate(451.8047,394.9556)"><path
           inkscape:connector-curvature="0"
           style="fill:#4b65ae;fill-opacity:1;fill-rule:nonzero;stroke:none"
           id="path46"
           d="M 0,0 C 0,0 6.45,-2.225 16.028,-3.763 14.235,-0.985 12.255,1.656 10.104,4.149 4.119,1.69 0,0 0,0" /></g><g
         id="g48"
         transform="translate(516.9316,436.7612)"><path
           inkscape:connector-curvature="0"
           style="fill:#90c84b;fill-opacity:1;fill-rule:nonzero;stroke:none"
           id="path50"
           d="m 0,0 c -45.966,0.43 -54.073,-17.514 -62.503,-30.184 -1.235,-1.858 -2.478,-3.604 -3.849,-5.16 -1.457,-1.655 -4.794,-1.828 -8.636,-0.598 -3.254,1.63 -6.491,3.006 -9.719,4.066 -5,1.642 -10.51,2.465 -16.521,2.465 -4.537,0 -9.082,-0.648 -13.676,-1.951 -4.586,-1.296 -8.687,-3.284 -12.316,-5.959 -3.624,-2.676 -6.574,-6.026 -8.829,-10.063 -2.269,-4.039 -3.388,-8.724 -3.388,-14.071 0,-5.891 0.937,-10.753 2.857,-14.586 1.927,-3.843 4.351,-7.028 7.299,-9.555 2.944,-2.543 6.12,-4.588 9.556,-6.16 3.418,-1.578 6.612,-3.082 9.562,-4.529 2.935,-1.431 5.37,-3.012 7.288,-4.711 1.917,-1.716 2.872,-3.873 2.872,-6.471 0,-3.429 -1.098,-5.886 -3.289,-7.403 -2.208,-1.502 -4.858,-2.254 -8.005,-2.254 -1.784,0 -3.803,0.296 -6.056,0.924 -2.279,0.61 -4.563,1.402 -6.895,2.364 -2.324,0.953 -4.546,1.987 -6.675,3.082 -2.119,1.087 -3.943,2.114 -18.335,8.841 l -0.101,-0.216 c -0.401,3.833 -1.306,7.212 -2.724,10.06 -1.98,3.975 -4.493,7.263 -7.497,9.861 -3.01,2.598 -6.23,4.757 -9.648,6.464 -3.415,1.716 -6.627,3.323 -9.623,4.821 -0.802,-4.279 -1.241,-8.687 -1.241,-13.199 0,-18.436 7.009,-35.234 18.509,-47.877 0.863,0.627 1.683,1.306 2.456,2.024 1.725,1.537 6.434,4.432 11.661,1.739 9.375,-4.836 13.749,-6.729 18.185,-8.512 5.963,-2.398 12.169,-3.594 18.594,-3.594 5.08,0 9.984,0.696 14.79,2.058 4.797,1.361 9.063,3.411 12.834,6.166 3.763,2.724 6.808,6.215 9.148,10.473 2.318,4.238 3.49,9.17 3.49,14.788 0,5.883 -0.994,10.82 -2.982,14.788 -1.981,3.975 -4.486,7.263 -7.495,9.861 -3.014,2.598 -6.231,4.757 -9.642,6.464 -3.435,1.721 -6.653,3.334 -9.664,4.838 -3.03,1.509 -5.518,3.041 -7.496,4.615 -1.996,1.572 -2.983,3.598 -2.983,6.065 0,3.012 1.049,5.032 3.185,6.064 2.105,1.018 4.485,1.536 7.097,1.536 3.414,0 7.046,-0.628 10.88,-1.849 0.586,-0.186 1.155,-0.373 1.711,-0.579 9.031,-3.069 12.898,5.242 12.898,5.242 l 4.298,8.83 c 1.207,1.402 5.945,3.736 12.648,6.541 24.883,10.417 76.946,27.344 76.946,27.344 0,0 -31.847,-13.201 -47.856,-19.802 -8.791,-3.626 -18.852,-7.763 -26.143,-10.758 -5.985,-2.458 -10.104,-4.149 -10.104,-4.149 0,0 6.45,-2.225 16.028,-3.762 12.746,-2.044 31.038,-2.865 47.118,4.422 28.162,12.762 30.802,41.804 30.802,41.804 0,0 -5.28,-0.879 -28.821,-0.658" /></g></g></g></svg>