<?xml version="1.0" encoding="UTF-8" standalone="no"?>
<!-- Created with Inkscape (http://www.inkscape.org/) -->

<svg
   xmlns:dc="http://purl.org/dc/elements/1.1/"
   xmlns:cc="http://creativecommons.org/ns#"
   xmlns:rdf="http://www.w3.org/1999/02/22-rdf-syntax-ns#"
   xmlns:svg="http://www.w3.org/2000/svg"
   xmlns="http://www.w3.org/2000/svg"
   version="1.1"
   width="1052.3625"
   height="744.09998"
   id="svg2"
   xml:space="preserve"><metadata
     id="metadata8"><rdf:RDF><cc:Work
         rdf:about=""><dc:format>image/svg+xml</dc:format><dc:type
           rdf:resource="http://purl.org/dc/dcmitype/StillImage" /><dc:title></dc:title></cc:Work></rdf:RDF></metadata><defs
     id="defs6"><clipPath
       id="clipPath16"><path
         d="m 0,595.28 841.89,0 L 841.89,0 0,0 0,595.28 z"
         id="path18" /></clipPath></defs><g
     transform="matrix(1.25,0,0,-1.25,0,744.1)"
     id="g10"><g
       id="g12"><g
         clip-path="url(#clipPath16)"
         id="g14"><g
           transform="translate(363.5801,387.4434)"
           id="g20"><path
             d="m 0,0 c 0,0 -3.362,-8.914 -13.481,-5.609 -0.446,0.148 -0.909,0.302 -1.363,0.452 -1.665,0.529 -3.283,0.925 -4.869,1.228 -2.666,-5.53 -4.62,-11.464 -5.786,-17.676 2.995,-1.499 6.208,-3.105 9.623,-4.821 3.418,-1.707 6.638,-3.866 9.648,-6.465 3.003,-2.597 5.517,-5.885 7.497,-9.86 1.418,-2.848 2.323,-6.227 2.724,-10.06 l 0.101,0.216 c 14.391,-6.727 16.216,-7.754 18.335,-8.841 2.129,-1.095 4.35,-2.129 6.675,-3.083 2.332,-0.961 4.615,-1.753 6.895,-2.363 2.253,-0.628 4.272,-0.924 6.055,-0.924 3.148,0 5.798,0.752 8.006,2.254 2.191,1.517 3.288,3.974 3.288,7.403 0,2.598 -0.955,4.755 -2.871,6.471 -1.919,1.699 -4.353,3.28 -7.288,4.711 -2.95,1.447 -6.144,2.95 -9.563,4.529 -3.435,1.572 -6.612,3.617 -9.555,6.16 -2.949,2.527 -5.373,5.712 -7.3,9.555 -1.92,3.833 -2.856,8.695 -2.856,14.586 0,5.347 1.118,10.032 3.388,14.071 2.254,4.037 5.204,7.387 8.828,10.063 3.63,2.674 7.73,4.663 12.316,5.959 4.595,1.303 9.139,1.951 13.677,1.951 6.01,0 11.521,-0.823 16.521,-2.465 3.228,-1.06 6.464,-2.436 9.718,-4.067 3.842,-1.229 7.18,-1.056 8.637,0.599 1.37,1.556 2.613,3.301 3.849,5.16 -12.465,10.733 -28.673,17.237 -46.412,17.237 -19.516,0 -37.19,-7.86 -50.05,-20.579 3.542,-1.445 7.106,-3.212 10.684,-5.338 L 0,0 z"
             id="path22"
             style="fill:#337abe;fill-opacity:1;fill-rule:nonzero;stroke:none" /></g><g
           transform="translate(461.9082,399.1045)"
           id="g24"><path
             d="M 0,0 C -0.951,1.101 -1.93,2.175 -2.946,3.216 -9.649,0.411 -14.388,-1.923 -15.595,-3.326 l -4.298,-8.829 c 0,0 -3.867,-8.311 -12.898,-5.242 -0.556,0.206 -1.125,0.393 -1.711,0.579 -3.834,1.221 -7.466,1.848 -10.879,1.848 -2.613,0 -4.993,-0.517 -7.098,-1.535 -2.136,-1.033 -3.185,-3.052 -3.185,-6.064 0,-2.467 0.988,-4.494 2.983,-6.065 1.978,-1.574 4.466,-3.107 7.497,-4.616 3.01,-1.503 6.228,-3.116 9.663,-4.837 3.412,-1.707 6.628,-3.866 9.642,-6.465 3.01,-2.597 5.515,-5.885 7.495,-9.861 1.988,-3.967 2.983,-8.904 2.983,-14.788 0,-5.617 -1.172,-10.549 -3.491,-14.787 -2.339,-4.259 -5.384,-7.749 -9.147,-10.473 -3.772,-2.755 -8.037,-4.805 -12.835,-6.166 -4.806,-1.362 -9.71,-2.058 -14.79,-2.058 -6.425,0 -12.631,1.195 -18.593,3.594 -4.437,1.783 -8.81,3.675 -18.186,8.511 -5.227,2.694 -9.936,-0.201 -11.661,-1.738 -0.773,-0.719 -1.592,-1.397 -2.456,-2.024 13.018,-14.316 31.793,-23.303 52.669,-23.303 9.161,0 17.921,1.754 25.965,4.909 l 5.054,-8.633 c -3.939,-5.248 -4.586,-12.555 -1.064,-18.576 l 28.93,-49.481 c 4.694,-8.015 14.992,-10.717 23.001,-6.031 l 5.109,2.994 c 8.021,4.68 10.721,14.983 6.031,23 l -28.933,49.483 c -3.706,6.324 -10.901,9.32 -17.714,7.998 l -4.615,7.898 c 17.819,12.935 29.414,33.918 29.414,57.619 0,14.214 -4.183,27.441 -11.362,38.553 -9.578,1.538 -16.029,3.763 -16.029,3.763 0,0 4.12,1.691 10.104,4.149"
             id="path26"
             style="fill:#337abe;fill-opacity:1;fill-rule:nonzero;stroke:none" /></g><g
           transform="translate(228.3682,374.0684)"
           id="g28"><path
             d="m 0,0 c 1.167,2.74 2.534,4.854 4.109,6.371 1.572,1.511 3.216,2.506 4.944,2.989 1.691,0.468 3.381,0.706 5.016,0.706 4.79,0 8.352,-1.504 10.691,-4.517 2.314,-3.012 3.761,-8.083 4.303,-15.204 l -31.434,-1.22 C -1.949,-6.367 -1.166,-2.746 0,0 m 109.713,-8.23 c -0.01,0.005 -0.022,0.012 -0.032,0.017 -3.021,1.508 -5.519,3.041 -7.506,4.615 -1.988,1.572 -2.983,3.598 -2.983,6.065 0,3.012 1.067,5.032 3.194,6.064 2.114,1.018 4.483,1.535 7.089,1.535 1.937,0 3.951,-0.222 6.024,-0.62 3.556,7.371 8.347,14.03 14.1,19.721 -1.476,0.604 -2.95,1.166 -4.417,1.65 -4.993,1.642 -10.509,2.465 -16.537,2.465 -4.514,0 -9.069,-0.648 -13.655,-1.951 C 90.406,30.035 86.282,28.046 82.659,25.372 79.035,22.696 76.094,19.346 73.833,15.309 71.571,11.27 70.437,6.585 70.437,1.238 c 0,-5.891 0.953,-10.753 2.876,-14.586 1.927,-3.843 4.354,-7.028 7.296,-9.555 2.951,-2.543 6.134,-4.588 9.561,-6.16 3.413,-1.579 6.591,-3.082 9.54,-4.529 2.95,-1.431 5.383,-3.012 7.3,-4.711 1.909,-1.716 2.873,-3.873 2.873,-6.471 0,-3.429 -1.097,-5.886 -3.295,-7.403 -2.191,-1.502 -4.852,-2.254 -8.013,-2.254 -1.776,0 -3.795,0.296 -6.041,0.924 -2.27,0.61 -4.564,1.402 -6.887,2.363 -2.346,0.954 -4.555,1.988 -6.682,3.083 -1.76,0.907 -3.31,1.783 -10.368,5.697 -4.634,2.58 -8.406,1.145 -9.925,0.483 -19.068,-8.237 -23.671,-9.9 -27.66,-10.907 -4.304,-1.104 -8.522,-1.643 -12.622,-1.643 -6.035,0 -10.799,1.675 -14.281,5.031 -3.501,3.355 -5.664,9.477 -6.48,18.383 l 50.473,1.704 c 0,0 10.471,0.722 10.485,10.282 0.017,5.543 -0.892,11.097 -2.104,16.679 -1.431,6.624 -3.828,12.59 -7.184,17.865 -3.365,5.273 -7.91,9.547 -13.67,12.833 -5.736,3.294 -12.937,4.936 -21.56,4.936 -8.763,0 -16.087,-1.745 -21.981,-5.236 -5.894,-3.488 -10.611,-7.947 -14.181,-13.364 -3.558,-5.408 -6.094,-11.394 -7.597,-17.967 -1.504,-6.576 -2.26,-12.871 -2.26,-18.898 0,-6.566 0.861,-13.187 2.558,-19.823 0.751,-2.865 1.723,-5.549 2.847,-8.152 -8.796,-2.952 -10.695,-3.48 -12.207,-3.758 -1.855,-0.342 -3.184,-0.515 -3.998,-0.515 -2.757,0 -4.834,0.639 -6.268,1.938 -1.44,1.31 -2.167,4.351 -2.167,9.148 l 0,56.916 12.309,0 c 8.973,0 10.056,9.452 10.056,9.452 l 1.265,10.057 -23.63,0 0,19.478 -20.02,-3.055 c 0,0 -8.331,-1.485 -8.331,-10.468 l 0,-5.955 0,-0.487 0,-19.022 0,-60.818 c 0,-10.675 2.981,-18.412 8.942,-23.211 5.957,-4.806 13.726,-7.191 23.313,-7.191 3.012,0 6.612,0.421 10.799,1.23 3.661,0.733 7.151,1.862 18.538,6.135 1.582,0.593 5.321,1.55 9.079,-0.706 0.967,-0.576 1.971,-1.19 3.002,-1.737 6.3,-3.286 14.038,-4.922 23.212,-4.922 6.588,0 12.959,0.82 19.116,2.466 4.595,1.219 9.22,2.814 21.107,7.856 1.57,0.656 5.232,2.115 9.607,-0.283 5.98,-3.26 9.681,-4.935 13.43,-6.445 5.962,-2.399 12.153,-3.594 18.583,-3.594 5.071,0 9.995,0.696 14.798,2.058 4.788,1.361 9.073,3.411 12.834,6.166 0.053,0.038 0.103,0.081 0.156,0.119 -11.5,12.642 -18.508,29.441 -18.508,47.877 0,4.512 0.439,8.92 1.241,13.199"
             id="path30"
             style="fill:#337abe;fill-opacity:1;fill-rule:nonzero;stroke:none" /></g><g
           transform="translate(343.8672,383.5142)"
           id="g32"><path
             d="m 0,0 c 1.586,-0.303 3.204,-0.699 4.869,-1.228 0.454,-0.15 0.917,-0.304 1.362,-0.452 10.12,-3.305 13.482,5.609 13.482,5.609 l 5.071,10.454 C 21.206,16.509 17.642,18.276 14.1,19.722 8.347,14.03 3.556,7.372 0,0"
             id="path34"
             style="fill:#4b65ae;fill-opacity:1;fill-rule:nonzero;stroke:none" /></g><g
           transform="translate(343.8672,383.5142)"
           id="g36"><path
             d="m 0,0 c 1.586,-0.303 3.204,-0.699 4.869,-1.228 0.454,-0.15 0.917,-0.304 1.362,-0.452 10.12,-3.305 13.482,5.609 13.482,5.609 l 5.071,10.454 C 21.206,16.509 17.642,18.276 14.1,19.722 8.347,14.03 3.556,7.372 0,0"
             id="path38"
             style="fill:#90c84b;fill-opacity:1;fill-rule:nonzero;stroke:none" /></g><g
           transform="translate(369.4653,308.5249)"
           id="g40"><path
             d="m 0,0 c 9.375,-4.836 13.749,-6.729 18.186,-8.512 5.962,-2.398 12.168,-3.593 18.593,-3.593 5.08,0 9.984,0.696 14.79,2.057 4.798,1.361 9.063,3.411 12.835,6.166 3.763,2.725 6.807,6.215 9.147,10.473 2.319,4.238 3.491,9.17 3.491,14.788 0,5.884 -0.995,10.821 -2.983,14.788 -1.98,3.976 -4.485,7.264 -7.495,9.861 -3.014,2.598 -6.231,4.757 -9.642,6.464 -3.435,1.721 -6.653,3.335 -9.663,4.838 -3.031,1.509 -5.519,3.042 -7.497,4.615 -1.995,1.572 -2.983,3.598 -2.983,6.065 0,3.012 1.049,5.032 3.185,6.064 2.105,1.018 4.485,1.536 7.098,1.536 3.413,0 7.045,-0.628 10.879,-1.848 0.586,-0.187 1.155,-0.374 1.711,-0.579 9.031,-3.069 12.898,5.242 12.898,5.242 l 4.298,8.829 c 1.207,1.402 5.945,3.737 12.649,6.541 -1.448,1.485 -2.961,2.903 -4.534,4.257 -1.235,-1.858 -2.478,-3.603 -3.848,-5.16 -1.457,-1.654 -4.795,-1.828 -8.637,-0.598 -3.254,1.63 -6.49,3.007 -9.719,4.066 -5,1.642 -10.51,2.465 -16.52,2.465 -4.538,0 -9.083,-0.648 -13.677,-1.95 C 27.976,95.579 23.875,93.59 20.246,90.916 16.622,88.239 13.672,84.89 11.417,80.853 9.148,76.813 8.03,72.128 8.03,66.781 c 0,-5.89 0.936,-10.752 2.856,-14.585 1.927,-3.843 4.351,-7.029 7.3,-9.556 2.943,-2.542 6.12,-4.587 9.555,-6.16 3.419,-1.578 6.613,-3.082 9.563,-4.529 2.935,-1.431 5.369,-3.012 7.287,-4.711 1.917,-1.716 2.872,-3.872 2.872,-6.471 0,-3.429 -1.097,-5.885 -3.288,-7.403 -2.208,-1.501 -4.859,-2.254 -8.006,-2.254 -1.783,0 -3.802,0.297 -6.055,0.924 -2.28,0.61 -4.564,1.402 -6.895,2.364 -2.325,0.954 -4.547,1.987 -6.676,3.082 -2.119,1.087 -3.943,2.114 -18.335,8.841 l -0.101,-0.216 c -0.4,3.833 -1.306,7.212 -2.724,10.06 -1.98,3.976 -4.493,7.264 -7.496,9.861 -3.011,2.598 -6.23,4.757 -9.649,6.464 -3.414,1.716 -6.627,3.323 -9.622,4.821 -0.803,-4.279 -1.241,-8.687 -1.241,-13.199 0,-18.435 7.008,-35.234 18.508,-47.877 0.864,0.627 1.683,1.306 2.456,2.025 C -9.936,-0.201 -5.227,2.693 0,0"
             id="path42"
             style="fill:#4b65ae;fill-opacity:1;fill-rule:nonzero;stroke:none" /></g><g
           transform="translate(451.8047,394.9556)"
           id="g44"><path
             d="M 0,0 C 0,0 6.45,-2.225 16.028,-3.763 14.235,-0.985 12.255,1.656 10.104,4.149 4.119,1.69 0,0 0,0"
             id="path46"
             style="fill:#4b65ae;fill-opacity:1;fill-rule:nonzero;stroke:none" /></g><g
           transform="translate(516.9316,436.7612)"
           id="g48"><path
             d="m 0,0 c -45.966,0.43 -54.073,-17.514 -62.503,-30.184 -1.235,-1.858 -2.478,-3.604 -3.849,-5.16 -1.457,-1.655 -4.794,-1.828 -8.636,-0.598 -3.254,1.63 -6.491,3.006 -9.719,4.066 -5,1.642 -10.51,2.465 -16.521,2.465 -4.537,0 -9.082,-0.648 -13.676,-1.951 -4.586,-1.296 -8.687,-3.284 -12.316,-5.959 -3.624,-2.676 -6.574,-6.026 -8.829,-10.063 -2.269,-4.039 -3.388,-8.724 -3.388,-14.071 0,-5.891 0.937,-10.753 2.857,-14.586 1.927,-3.843 4.351,-7.028 7.299,-9.555 2.944,-2.543 6.12,-4.588 9.556,-6.16 3.418,-1.578 6.612,-3.082 9.562,-4.529 2.935,-1.431 5.37,-3.012 7.288,-4.711 1.917,-1.716 2.872,-3.873 2.872,-6.471 0,-3.429 -1.098,-5.886 -3.289,-7.403 -2.208,-1.502 -4.858,-2.254 -8.005,-2.254 -1.784,0 -3.803,0.296 -6.056,0.924 -2.279,0.61 -4.563,1.402 -6.895,2.364 -2.324,0.953 -4.546,1.987 -6.675,3.082 -2.119,1.087 -3.943,2.114 -18.335,8.841 l -0.101,-0.216 c -0.401,3.833 -1.306,7.212 -2.724,10.06 -1.98,3.975 -4.493,7.263 -7.497,9.861 -3.01,2.598 -6.23,4.757 -9.648,6.464 -3.415,1.716 -6.627,3.323 -9.623,4.821 -0.802,-4.279 -1.241,-8.687 -1.241,-13.199 0,-18.436 7.009,-35.234 18.509,-47.877 0.863,0.627 1.683,1.306 2.456,2.024 1.725,1.537 6.434,4.432 11.661,1.739 9.375,-4.836 13.749,-6.729 18.185,-8.512 5.963,-2.398 12.169,-3.594 18.594,-3.594 5.08,0 9.984,0.696 14.79,2.058 4.797,1.361 9.063,3.411 12.834,6.166 3.763,2.724 6.808,6.215 9.148,10.473 2.318,4.238 3.49,9.17 3.49,14.788 0,5.883 -0.994,10.82 -2.982,14.788 -1.981,3.975 -4.486,7.263 -7.495,9.861 -3.014,2.598 -6.231,4.757 -9.642,6.464 -3.435,1.721 -6.653,3.334 -9.664,4.838 -3.03,1.509 -5.518,3.041 -7.496,4.615 -1.996,1.572 -2.983,3.598 -2.983,6.065 0,3.012 1.049,5.032 3.185,6.064 2.105,1.018 4.485,1.536 7.097,1.536 3.414,0 7.046,-0.628 10.88,-1.849 0.586,-0.186 1.155,-0.373 1.711,-0.579 9.031,-3.069 12.898,5.242 12.898,5.242 l 4.298,8.83 c 1.207,1.402 5.945,3.736 12.648,6.541 24.883,10.417 76.946,27.344 76.946,27.344 0,0 -31.847,-13.201 -47.856,-19.802 -8.791,-3.626 -18.852,-7.763 -26.143,-10.758 -5.985,-2.458 -10.104,-4.149 -10.104,-4.149 0,0 6.45,-2.225 16.028,-3.762 12.746,-2.044 31.038,-2.865 47.118,4.422 28.162,12.762 30.802,41.804 30.802,41.804 0,0 -5.28,-0.879 -28.821,-0.658"
             id="path50"
             style="fill:#90c84b;fill-opacity:1;fill-rule:nonzero;stroke:none" /></g><g
           transform="translate(541.0508,288.4131)"
           id="g52"><path
             d="M 0,0 C 0,0.533 -0.049,1.023 -0.145,1.472 -0.24,1.92 -0.41,2.309 -0.656,2.64 -0.902,2.971 -1.227,3.231 -1.633,3.424 -2.037,3.615 -2.539,3.711 -3.137,3.711 l -2.367,0 0,-7.487 2.272,0 c 0.576,0 1.066,0.1 1.472,0.303 0.405,0.203 0.737,0.481 0.992,0.832 0.256,0.352 0.448,0.758 0.577,1.217 C -0.064,-0.966 0,-0.492 0,0 m 0.512,-15.521 -4,8.672 -2.047,0 0,-8.672 -3.904,0 0,22.464 6.4,0 c 0.98,0 1.908,-0.149 2.783,-0.447 C 0.619,6.196 1.381,5.748 2.031,5.151 2.684,4.555 3.195,3.824 3.568,2.959 3.941,2.096 4.129,1.108 4.129,0 c 0,-1.516 -0.4,-2.801 -1.201,-3.856 -0.799,-1.056 -1.807,-1.84 -3.024,-2.353 l 4.928,-9.312 -4.32,0 z"
             id="path54"
             style="fill:#90c84b;fill-opacity:1;fill-rule:nonzero;stroke:none" /></g><g
           transform="translate(548.1865,272.8926)"
           id="g56"><path
             d="m 0,0 0,22.464 12.416,0 -0.288,-3.233 -8.224,0 0,-6.175 7.617,0 0,-3.232 -7.617,0 0,-6.593 8.449,0 L 12.64,0 0,0 z"
             id="path58"
             style="fill:#90c84b;fill-opacity:1;fill-rule:nonzero;stroke:none" /></g><g
           transform="translate(576.0586,279.0361)"
           id="g60"><path
             d="m 0,0 c 0,-1.045 -0.213,-1.973 -0.64,-2.783 -0.426,-0.812 -0.992,-1.488 -1.696,-2.032 -0.704,-0.544 -1.51,-0.96 -2.416,-1.248 -0.907,-0.289 -1.84,-0.433 -2.8,-0.433 -1.131,0 -2.272,0.22 -3.424,0.656 -1.152,0.438 -2.187,0.977 -3.104,1.616 l 1.408,2.816 c 0.362,-0.213 0.752,-0.432 1.168,-0.655 0.416,-0.224 0.843,-0.421 1.28,-0.593 0.437,-0.17 0.885,-0.315 1.344,-0.432 0.459,-0.117 0.901,-0.176 1.328,-0.176 1.088,0 1.947,0.315 2.576,0.945 0.629,0.629 0.944,1.465 0.944,2.511 0,0.704 -0.213,1.286 -0.64,1.745 -0.427,0.458 -0.966,0.874 -1.616,1.248 -0.65,0.373 -1.355,0.741 -2.111,1.104 -0.758,0.361 -1.462,0.811 -2.113,1.344 -0.651,0.533 -1.189,1.183 -1.616,1.951 -0.427,0.769 -0.64,1.738 -0.64,2.912 0,0.961 0.197,1.818 0.592,2.576 0.395,0.758 0.917,1.397 1.569,1.92 0.65,0.524 1.396,0.928 2.239,1.217 0.843,0.287 1.712,0.432 2.608,0.432 1.024,0 2.011,-0.172 2.96,-0.512 0.949,-0.342 1.862,-0.736 2.737,-1.185 l -1.409,-2.815 c -0.662,0.361 -1.36,0.666 -2.095,0.912 -0.737,0.244 -1.456,0.367 -2.161,0.367 -0.491,0 -0.928,-0.08 -1.312,-0.24 -0.384,-0.16 -0.704,-0.373 -0.96,-0.64 -0.256,-0.266 -0.448,-0.571 -0.576,-0.912 -0.128,-0.341 -0.192,-0.704 -0.192,-1.088 0,-0.811 0.218,-1.462 0.656,-1.952 0.437,-0.49 0.976,-0.917 1.616,-1.279 C -5.855,6.934 -5.152,6.582 -4.384,6.24 -3.616,5.898 -2.912,5.478 -2.271,4.977 -1.632,4.475 -1.094,3.83 -0.656,3.041 -0.219,2.251 0,1.237 0,0"
             id="path62"
             style="fill:#90c84b;fill-opacity:1;fill-rule:nonzero;stroke:none" /></g><g
           transform="translate(579.002,272.8926)"
           id="g64"><path
             d="m 0,0 0,22.464 12.416,0 -0.288,-3.233 -8.224,0 0,-6.175 7.617,0 0,-3.232 -7.617,0 0,-6.593 8.449,0 L 12.64,0 0,0 z"
             id="path66"
             style="fill:#90c84b;fill-opacity:1;fill-rule:nonzero;stroke:none" /></g><g
           transform="translate(603.7705,286.876)"
           id="g68"><path
             d="m 0,0 c -0.107,0.385 -0.235,0.811 -0.385,1.281 -0.128,0.405 -0.277,0.879 -0.447,1.424 -0.171,0.543 -0.353,1.156 -0.544,1.84 l -0.064,0 C -1.633,3.861 -1.813,3.248 -1.984,2.705 -2.155,2.16 -2.305,1.686 -2.433,1.281 -2.582,0.811 -2.71,0.385 -2.816,0 l -1.409,-4.768 5.632,0 L 0,0 z m 4.128,-13.983 -1.824,6.24 -7.424,0 -1.857,-6.24 -4,0 7.233,22.463 4.672,0 7.231,-22.463 -4.031,0 z"
             id="path70"
             style="fill:#90c84b;fill-opacity:1;fill-rule:nonzero;stroke:none" /></g><g
           transform="translate(623.3545,288.4131)"
           id="g72"><path
             d="M 0,0 C 0,0.533 -0.049,1.023 -0.145,1.472 -0.24,1.92 -0.411,2.309 -0.656,2.64 -0.902,2.971 -1.228,3.231 -1.633,3.424 -2.038,3.615 -2.539,3.711 -3.137,3.711 l -2.367,0 0,-7.487 2.272,0 c 0.576,0 1.066,0.1 1.471,0.303 0.406,0.203 0.737,0.481 0.992,0.832 0.256,0.352 0.449,0.758 0.577,1.217 C -0.064,-0.966 0,-0.492 0,0 m 0.512,-15.521 -4,8.672 -2.048,0 0,-8.672 -3.904,0 0,22.464 6.4,0 c 0.98,0 1.908,-0.149 2.783,-0.447 C 0.618,6.196 1.381,5.748 2.031,5.151 2.683,4.555 3.194,3.824 3.567,2.959 3.94,2.096 4.128,1.108 4.128,0 c 0,-1.516 -0.4,-2.801 -1.2,-3.856 -0.8,-1.056 -1.808,-1.84 -3.025,-2.353 l 4.929,-9.312 -4.32,0 z"
             id="path74"
             style="fill:#90c84b;fill-opacity:1;fill-rule:nonzero;stroke:none" /></g><g
           transform="translate(644.7617,291.3252)"
           id="g76"><path
             d="m 0,0 c -0.96,0.426 -1.83,0.719 -2.608,0.879 -0.78,0.16 -1.564,0.24 -2.352,0.24 -1.089,0 -2.021,-0.223 -2.801,-0.672 -0.778,-0.447 -1.424,-1.061 -1.935,-1.84 -0.512,-0.779 -0.886,-1.685 -1.12,-2.72 -0.236,-1.034 -0.352,-2.139 -0.352,-3.312 0,-1.194 0.101,-2.288 0.304,-3.28 0.202,-0.992 0.533,-1.851 0.992,-2.576 0.458,-0.725 1.05,-1.285 1.775,-1.68 0.726,-0.394 1.611,-0.592 2.657,-0.592 0.789,0 1.658,0.096 2.608,0.288 0.948,0.193 1.893,0.501 2.832,0.929 l 1.088,-2.945 c -1.152,-0.575 -2.277,-0.971 -3.376,-1.184 -1.1,-0.213 -2.203,-0.32 -3.313,-0.32 -1.621,0 -3.04,0.294 -4.255,0.881 -1.216,0.586 -2.224,1.391 -3.025,2.416 -0.8,1.023 -1.397,2.228 -1.792,3.615 -0.394,1.387 -0.592,2.869 -0.592,4.448 0,1.536 0.208,3.013 0.624,4.433 0.416,1.418 1.051,2.672 1.905,3.76 0.852,1.087 1.924,1.957 3.215,2.607 1.292,0.65 2.8,0.977 4.529,0.977 1.023,0 2.032,-0.102 3.023,-0.305 C -0.977,3.844 0.053,3.498 1.119,3.008 L 0,0 z"
             id="path78"
             style="fill:#90c84b;fill-opacity:1;fill-rule:nonzero;stroke:none" /></g><g
           transform="translate(660.0254,272.8926)"
           id="g80"><path
             d="m 0,0 0,9.824 -7.456,0 0,-9.824 -3.904,0 0,22.464 3.936,0 0,-9.408 7.424,0 0,9.408 3.936,0 L 3.936,0 0,0 z"
             id="path82"
             style="fill:#90c84b;fill-opacity:1;fill-rule:nonzero;stroke:none" /></g><g
           transform="translate(543.7715,256.125)"
           id="g84"><path
             d="m 0,0 -8.256,0 0,-6.177 7.68,0 0,-3.231 -7.68,0 0,-9.824 -3.904,0 0,22.463 12.447,0 L 0,0 z"
             id="path86"
             style="fill:#90c84b;fill-opacity:1;fill-rule:nonzero;stroke:none" /></g><g
           transform="translate(559.9297,248.125)"
           id="g88"><path
             d="M 0,0 C 0,1.13 -0.069,2.202 -0.207,3.216 -0.347,4.229 -0.597,5.114 -0.96,5.871 -1.322,6.629 -1.813,7.231 -2.432,7.68 -3.051,8.128 -3.851,8.352 -4.831,8.352 -5.792,8.352 -6.587,8.128 -7.216,7.68 -7.845,7.231 -8.341,6.629 -8.703,5.871 -9.066,5.114 -9.317,4.229 -9.455,3.216 -9.595,2.202 -9.663,1.13 -9.663,0 c 0,-1.132 0.068,-2.203 0.208,-3.217 0.138,-1.012 0.389,-1.898 0.752,-2.655 0.362,-0.758 0.858,-1.36 1.487,-1.809 0.629,-0.448 1.424,-0.672 2.385,-0.672 0.98,0 1.78,0.224 2.399,0.672 0.619,0.449 1.11,1.051 1.472,1.809 0.363,0.757 0.613,1.643 0.753,2.655 C -0.069,-2.203 0,-1.132 0,0 m 4.097,0 c 0,-1.345 -0.14,-2.699 -0.416,-4.064 -0.278,-1.366 -0.763,-2.609 -1.456,-3.728 -0.694,-1.12 -1.612,-2.032 -2.752,-2.736 -1.142,-0.704 -2.577,-1.056 -4.304,-1.056 -1.729,0 -3.163,0.352 -4.305,1.056 -1.141,0.704 -2.053,1.616 -2.735,2.736 -0.684,1.119 -1.168,2.362 -1.456,3.728 -0.288,1.365 -0.433,2.719 -0.433,4.064 0,1.344 0.145,2.698 0.433,4.063 0.288,1.366 0.772,2.603 1.456,3.712 0.682,1.11 1.594,2.017 2.735,2.72 1.142,0.704 2.576,1.057 4.305,1.057 1.727,0 3.162,-0.353 4.304,-1.057 C 0.613,9.792 1.531,8.885 2.225,7.775 2.918,6.666 3.403,5.429 3.681,4.063 3.957,2.698 4.097,1.344 4.097,0"
             id="path90"
             style="fill:#90c84b;fill-opacity:1;fill-rule:nonzero;stroke:none" /></g><g
           transform="translate(576.4111,252.4121)"
           id="g92"><path
             d="M 0,0 C 0,0.533 -0.049,1.024 -0.145,1.473 -0.24,1.921 -0.411,2.31 -0.656,2.641 -0.902,2.971 -1.228,3.232 -1.633,3.425 -2.038,3.616 -2.539,3.713 -3.137,3.713 l -2.367,0 0,-7.488 2.272,0 c 0.576,0 1.066,0.1 1.471,0.303 0.406,0.203 0.737,0.481 0.992,0.832 0.256,0.353 0.449,0.757 0.577,1.216 C -0.064,-0.965 0,-0.49 0,0 m 0.512,-15.52 -4,8.672 -2.048,0 0,-8.672 -3.904,0 0,22.464 6.4,0 c 0.98,0 1.908,-0.149 2.783,-0.448 C 0.618,6.197 1.381,5.749 2.031,5.152 2.683,4.555 3.194,3.824 3.567,2.961 3.94,2.097 4.128,1.109 4.128,0 c 0,-1.515 -0.4,-2.8 -1.2,-3.855 -0.8,-1.056 -1.808,-1.84 -3.025,-2.353 l 4.929,-9.312 -4.32,0 z"
             id="path94"
             style="fill:#90c84b;fill-opacity:1;fill-rule:nonzero;stroke:none" /></g><g
           transform="translate(590.8096,236.8926)"
           id="g96"><path
             d="m 0,0 0,22.464 3.904,0 0,-19.232 8.928,0 L 12.832,0 0,0 z"
             id="path98"
             style="fill:#90c84b;fill-opacity:1;fill-rule:nonzero;stroke:none" /></g><g
           transform="translate(618.7129,248.125)"
           id="g100"><path
             d="M 0,0 C 0,1.13 -0.069,2.202 -0.207,3.216 -0.347,4.229 -0.597,5.114 -0.96,5.871 -1.322,6.629 -1.813,7.231 -2.432,7.68 -3.051,8.128 -3.851,8.352 -4.831,8.352 -5.792,8.352 -6.587,8.128 -7.216,7.68 -7.845,7.231 -8.341,6.629 -8.703,5.871 -9.066,5.114 -9.317,4.229 -9.455,3.216 -9.595,2.202 -9.663,1.13 -9.663,0 c 0,-1.132 0.068,-2.203 0.208,-3.217 0.138,-1.012 0.389,-1.898 0.752,-2.655 0.362,-0.758 0.858,-1.36 1.487,-1.809 0.629,-0.448 1.424,-0.672 2.385,-0.672 0.98,0 1.78,0.224 2.399,0.672 0.619,0.449 1.11,1.051 1.472,1.809 0.363,0.757 0.613,1.643 0.753,2.655 C -0.069,-2.203 0,-1.132 0,0 m 4.097,0 c 0,-1.345 -0.14,-2.699 -0.416,-4.064 -0.278,-1.366 -0.763,-2.609 -1.456,-3.728 -0.694,-1.12 -1.612,-2.032 -2.752,-2.736 -1.142,-0.704 -2.577,-1.056 -4.304,-1.056 -1.729,0 -3.163,0.352 -4.305,1.056 -1.141,0.704 -2.053,1.616 -2.735,2.736 -0.684,1.119 -1.168,2.362 -1.456,3.728 -0.288,1.365 -0.433,2.719 -0.433,4.064 0,1.344 0.145,2.698 0.433,4.063 0.288,1.366 0.772,2.603 1.456,3.712 0.682,1.11 1.594,2.017 2.735,2.72 1.142,0.704 2.576,1.057 4.305,1.057 1.727,0 3.162,-0.353 4.304,-1.057 C 0.613,9.792 1.531,8.885 2.225,7.775 2.918,6.666 3.403,5.429 3.681,4.063 3.957,2.698 4.097,1.344 4.097,0"
             id="path102"
             style="fill:#90c84b;fill-opacity:1;fill-rule:nonzero;stroke:none" /></g><g
           transform="translate(645.4023,236.8926)"
           id="g104"><path
             d="m 0,0 -4.608,0 -3.232,12.992 -0.736,3.36 -0.064,0 -0.736,-3.36 L -12.608,0 l -4.608,0 -4.704,22.304 3.936,0.32 2.336,-11.744 c 0.085,-0.384 0.17,-0.854 0.256,-1.408 0.085,-0.491 0.176,-1.099 0.272,-1.824 0.096,-0.725 0.219,-1.6 0.368,-2.624 l 0.064,0 c 0.341,1.984 0.629,3.466 0.864,4.448 0.128,0.554 0.245,1.024 0.352,1.408 l 2.816,9.76 4.096,0 2.816,-9.76 c 0.106,-0.384 0.223,-0.854 0.352,-1.408 0.107,-0.491 0.24,-1.099 0.4,-1.824 0.16,-0.725 0.325,-1.6 0.496,-2.624 l 0.064,0 c 0.128,1.024 0.24,1.899 0.336,2.624 0.096,0.725 0.187,1.333 0.272,1.824 0.085,0.554 0.171,1.024 0.256,1.408 l 2.304,11.584 4.032,0 L 0,0 z"
             id="path106"
             style="fill:#90c84b;fill-opacity:1;fill-rule:nonzero;stroke:none" /></g><g
           transform="translate(674.0098,255.3242)"
           id="g108"><path
             d="M 0,0 C -0.96,0.427 -1.83,0.721 -2.608,0.88 -3.388,1.04 -4.172,1.12 -4.96,1.12 -6.049,1.12 -6.981,0.896 -7.761,0.448 -8.539,0 -9.185,-0.613 -9.696,-1.392 c -0.512,-0.779 -0.886,-1.685 -1.12,-2.719 -0.236,-1.035 -0.352,-2.14 -0.352,-3.313 0,-1.194 0.101,-2.288 0.304,-3.28 0.202,-0.991 0.533,-1.851 0.992,-2.575 0.458,-0.726 1.05,-1.286 1.775,-1.681 0.726,-0.394 1.611,-0.592 2.657,-0.592 0.789,0 1.658,0.096 2.608,0.288 0.948,0.193 1.893,0.501 2.832,0.928 l 1.088,-2.943 c -1.152,-0.576 -2.277,-0.972 -3.376,-1.185 -1.1,-0.213 -2.203,-0.319 -3.313,-0.319 -1.621,0 -3.04,0.293 -4.255,0.88 -1.216,0.586 -2.224,1.391 -3.025,2.416 -0.8,1.023 -1.397,2.228 -1.792,3.615 -0.394,1.387 -0.592,2.869 -0.592,4.448 0,1.536 0.208,3.014 0.624,4.433 0.416,1.418 1.051,2.672 1.905,3.76 0.852,1.087 1.924,1.957 3.215,2.607 1.292,0.651 2.8,0.977 4.529,0.977 1.023,0 2.032,-0.102 3.023,-0.304 0.992,-0.203 2.022,-0.55 3.088,-1.04 L 0,0 z"
             id="path110"
             style="fill:#90c84b;fill-opacity:1;fill-rule:nonzero;stroke:none" /></g><g
           transform="translate(686.9375,250.877)"
           id="g112"><path
             d="m 0,0 c -0.107,0.384 -0.235,0.811 -0.385,1.279 -0.128,0.406 -0.277,0.88 -0.447,1.425 -0.171,0.544 -0.353,1.156 -0.544,1.84 l -0.064,0 C -1.633,3.86 -1.813,3.248 -1.984,2.704 -2.155,2.159 -2.305,1.685 -2.433,1.279 -2.582,0.811 -2.71,0.384 -2.816,0 l -1.409,-4.769 5.632,0 L 0,0 z m 4.128,-13.984 -1.824,6.24 -7.424,0 -1.857,-6.24 -4,0 7.233,22.463 4.672,0 7.231,-22.463 -4.031,0 z"
             id="path114"
             style="fill:#90c84b;fill-opacity:1;fill-rule:nonzero;stroke:none" /></g><g
           transform="translate(706.5215,252.4121)"
           id="g116"><path
             d="M 0,0 C 0,0.533 -0.049,1.024 -0.145,1.473 -0.24,1.921 -0.411,2.31 -0.656,2.641 -0.902,2.971 -1.228,3.232 -1.633,3.425 -2.038,3.616 -2.539,3.713 -3.137,3.713 l -2.367,0 0,-7.488 2.272,0 c 0.576,0 1.066,0.1 1.471,0.303 0.406,0.203 0.737,0.481 0.992,0.832 0.256,0.353 0.449,0.757 0.577,1.216 C -0.064,-0.965 0,-0.49 0,0 m 0.512,-15.52 -4,8.672 -2.048,0 0,-8.672 -3.904,0 0,22.464 6.4,0 c 0.98,0 1.908,-0.149 2.783,-0.448 C 0.618,6.197 1.381,5.749 2.031,5.152 2.683,4.555 3.194,3.824 3.567,2.961 3.94,2.097 4.128,1.109 4.128,0 c 0,-1.515 -0.4,-2.8 -1.2,-3.855 -0.8,-1.056 -1.808,-1.84 -3.025,-2.353 l 4.929,-9.312 -4.32,0 z"
             id="path118"
             style="fill:#90c84b;fill-opacity:1;fill-rule:nonzero;stroke:none" /></g><g
           transform="translate(723.96,243.7725)"
           id="g120"><path
             d="M 0,0 C 0,0.469 -0.053,0.917 -0.159,1.344 -0.267,1.771 -0.447,2.145 -0.704,2.464 -0.96,2.784 -1.307,3.04 -1.743,3.232 -2.181,3.424 -2.72,3.521 -3.359,3.521 l -3.04,0 0,-7.168 2.624,0 c 0.832,0 1.498,0.106 2,0.319 0.501,0.213 0.879,0.496 1.135,0.849 0.256,0.351 0.427,0.746 0.512,1.183 C -0.043,-0.858 0,-0.427 0,0 m -0.8,9.344 c 0,0.853 -0.24,1.568 -0.72,2.144 -0.48,0.576 -1.349,0.865 -2.608,0.865 l -2.271,0 0,-6.017 2.591,0 c 0.64,0 1.158,0.096 1.552,0.288 0.395,0.192 0.698,0.438 0.912,0.736 0.213,0.298 0.358,0.624 0.432,0.976 0.075,0.352 0.112,0.688 0.112,1.008 m 4.897,-9.568 c 0,-0.704 -0.128,-1.451 -0.385,-2.24 C 3.456,-3.253 3.029,-3.974 2.433,-4.624 1.835,-5.274 1.051,-5.813 0.08,-6.24 -0.891,-6.667 -2.08,-6.88 -3.487,-6.88 l -6.817,0 0,22.464 6.241,0 c 2.303,0 4.106,-0.518 5.408,-1.552 C 2.646,12.997 3.296,11.563 3.296,9.729 3.296,9.387 3.237,9.008 3.12,8.592 3.003,8.176 2.821,7.765 2.576,7.36 2.331,6.955 2.011,6.565 1.616,6.192 1.222,5.818 0.747,5.493 0.192,5.216 l 0,-0.064 C 0.96,4.832 1.595,4.442 2.097,3.984 2.598,3.525 2.997,3.051 3.296,2.561 3.595,2.069 3.803,1.584 3.92,1.104 4.037,0.624 4.097,0.181 4.097,-0.224"
             id="path122"
             style="fill:#90c84b;fill-opacity:1;fill-rule:nonzero;stroke:none" /></g><g
           transform="translate(743.5762,248.125)"
           id="g124"><path
             d="M 0,0 C 0,1.13 -0.069,2.202 -0.207,3.216 -0.347,4.229 -0.597,5.114 -0.96,5.871 -1.322,6.629 -1.813,7.231 -2.432,7.68 -3.051,8.128 -3.851,8.352 -4.831,8.352 -5.792,8.352 -6.587,8.128 -7.216,7.68 -7.845,7.231 -8.341,6.629 -8.703,5.871 -9.066,5.114 -9.317,4.229 -9.455,3.216 -9.595,2.202 -9.663,1.13 -9.663,0 c 0,-1.132 0.068,-2.203 0.208,-3.217 0.138,-1.012 0.389,-1.898 0.752,-2.655 0.362,-0.758 0.858,-1.36 1.487,-1.809 0.629,-0.448 1.424,-0.672 2.385,-0.672 0.98,0 1.78,0.224 2.399,0.672 0.619,0.449 1.11,1.051 1.472,1.809 0.363,0.757 0.613,1.643 0.753,2.655 C -0.069,-2.203 0,-1.132 0,0 m 4.097,0 c 0,-1.345 -0.14,-2.699 -0.416,-4.064 -0.278,-1.366 -0.763,-2.609 -1.456,-3.728 -0.694,-1.12 -1.612,-2.032 -2.752,-2.736 -1.142,-0.704 -2.577,-1.056 -4.304,-1.056 -1.729,0 -3.163,0.352 -4.305,1.056 -1.141,0.704 -2.053,1.616 -2.735,2.736 -0.684,1.119 -1.168,2.362 -1.456,3.728 -0.288,1.365 -0.433,2.719 -0.433,4.064 0,1.344 0.145,2.698 0.433,4.063 0.288,1.366 0.772,2.603 1.456,3.712 0.682,1.11 1.594,2.017 2.735,2.72 1.142,0.704 2.576,1.057 4.305,1.057 1.727,0 3.162,-0.353 4.304,-1.057 C 0.613,9.792 1.531,8.885 2.225,7.775 2.918,6.666 3.403,5.429 3.681,4.063 3.957,2.698 4.097,1.344 4.097,0"
             id="path126"
             style="fill:#90c84b;fill-opacity:1;fill-rule:nonzero;stroke:none" /></g><g
           transform="translate(762.4883,236.8926)"
           id="g128"><path
             d="m 0,0 -8.224,14.112 -0.064,0 c 0.021,-1.046 0.043,-1.931 0.064,-2.656 0.021,-0.726 0.032,-1.312 0.032,-1.76 l 0,-1.28 0,-8.416 -3.808,0 0,22.112 3.264,0.352 8.352,-14.56 0.064,0 c -0.064,2.069 -0.096,3.531 -0.096,4.384 l 0,1.28 0,8.896 3.808,0 L 3.392,0 0,0 z"
             id="path130"
             style="fill:#90c84b;fill-opacity:1;fill-rule:nonzero;stroke:none" /></g><path
           d="m 531.611,223.356 3.904,0 0,-22.464 -3.904,0 0,22.464 z"
           id="path132"
           style="fill:#90c84b;fill-opacity:1;fill-rule:nonzero;stroke:none" /><g
           transform="translate(551.1621,200.8926)"
           id="g134"><path
             d="m 0,0 -8.224,14.112 -0.064,0 c 0.021,-1.046 0.043,-1.931 0.064,-2.656 0.021,-0.726 0.032,-1.312 0.032,-1.76 l 0,-1.28 0,-8.416 -3.808,0 0,22.112 3.264,0.352 8.352,-14.56 0.064,0 c -0.064,2.069 -0.096,3.531 -0.096,4.384 l 0,1.28 0,8.896 3.808,0 L 3.392,0 0,0 z"
             id="path136"
             style="fill:#90c84b;fill-opacity:1;fill-rule:nonzero;stroke:none" /></g><path
           d="m 558.362,223.356 3.904,0 0,-22.464 -3.904,0 0,22.464 z"
           id="path138"
           style="fill:#90c84b;fill-opacity:1;fill-rule:nonzero;stroke:none" /><g
           transform="translate(573.7861,220.125)"
           id="g140"><path
             d="m 0,0 0,-19.232 -3.968,0 0,19.232 -5.408,0 0,3.231 14.784,0 L 5.408,0 0,0 z"
             id="path142"
             style="fill:#90c84b;fill-opacity:1;fill-rule:nonzero;stroke:none" /></g><path
           d="m 581.497,223.356 3.904,0 0,-22.464 -3.904,0 0,22.464 z"
           id="path144"
           style="fill:#90c84b;fill-opacity:1;fill-rule:nonzero;stroke:none" /><g
           transform="translate(598.2012,214.877)"
           id="g146"><path
             d="m 0,0 c -0.107,0.384 -0.235,0.811 -0.385,1.279 -0.128,0.406 -0.277,0.88 -0.447,1.425 -0.171,0.544 -0.353,1.156 -0.544,1.84 l -0.064,0 C -1.633,3.86 -1.813,3.248 -1.984,2.704 -2.155,2.159 -2.305,1.685 -2.433,1.279 -2.582,0.811 -2.71,0.384 -2.816,0 l -1.409,-4.769 5.632,0 L 0,0 z m 4.128,-13.984 -1.824,6.24 -7.424,0 -1.857,-6.24 -4,0 7.233,22.463 4.672,0 7.231,-22.463 -4.031,0 z"
             id="path148"
             style="fill:#90c84b;fill-opacity:1;fill-rule:nonzero;stroke:none" /></g><g
           transform="translate(613.209,220.125)"
           id="g150"><path
             d="m 0,0 0,-19.232 -3.968,0 0,19.232 -5.408,0 0,3.231 14.784,0 L 5.408,0 0,0 z"
             id="path152"
             style="fill:#90c84b;fill-opacity:1;fill-rule:nonzero;stroke:none" /></g><path
           d="m 620.921,223.356 3.904,0 0,-22.464 -3.904,0 0,22.464 z"
           id="path154"
           style="fill:#90c84b;fill-opacity:1;fill-rule:nonzero;stroke:none" /><g
           transform="translate(638.2646,200.8926)"
           id="g156"><path
             d="m 0,0 -4.48,0 -6.816,22.304 3.968,0.32 3.84,-13.792 C -3.382,8.448 -3.264,8.011 -3.136,7.52 -3.029,7.093 -2.901,6.592 -2.752,6.016 -2.603,5.44 -2.443,4.778 -2.272,4.032 l 0.064,0 c 0.149,0.746 0.293,1.408 0.432,1.984 0.138,0.576 0.261,1.077 0.368,1.504 0.128,0.491 0.256,0.928 0.384,1.312 L 2.848,22.624 6.816,22.304 0,0 z"
             id="path158"
             style="fill:#90c84b;fill-opacity:1;fill-rule:nonzero;stroke:none" /></g><g
           transform="translate(647.3838,200.8926)"
           id="g160"><path
             d="m 0,0 0,22.464 12.416,0 -0.288,-3.232 -8.224,0 0,-6.176 7.617,0 0,-3.232 -7.617,0 0,-6.592 8.449,0 L 12.64,0 0,0 z"
             id="path162"
             style="fill:#90c84b;fill-opacity:1;fill-rule:nonzero;stroke:none" /></g><g
           transform="translate(675.2559,207.0361)"
           id="g164"><path
             d="m 0,0 c 0,-1.045 -0.213,-1.973 -0.64,-2.783 -0.426,-0.812 -0.992,-1.488 -1.696,-2.032 -0.704,-0.544 -1.51,-0.96 -2.416,-1.248 -0.907,-0.289 -1.84,-0.432 -2.8,-0.432 -1.131,0 -2.272,0.219 -3.424,0.655 -1.152,0.438 -2.187,0.977 -3.104,1.616 l 1.408,2.817 c 0.362,-0.214 0.752,-0.433 1.168,-0.656 0.416,-0.224 0.843,-0.422 1.28,-0.592 0.437,-0.171 0.885,-0.316 1.344,-0.433 0.459,-0.117 0.901,-0.176 1.328,-0.176 1.088,0 1.947,0.315 2.576,0.945 0.629,0.629 0.944,1.465 0.944,2.511 0,0.704 -0.213,1.286 -0.64,1.745 -0.427,0.458 -0.966,0.874 -1.616,1.248 -0.65,0.373 -1.355,0.741 -2.111,1.103 -0.758,0.363 -1.462,0.811 -2.113,1.345 -0.651,0.532 -1.189,1.183 -1.616,1.951 -0.427,0.769 -0.64,1.739 -0.64,2.912 0,0.96 0.197,1.819 0.592,2.576 0.395,0.757 0.917,1.398 1.569,1.92 0.65,0.523 1.396,0.929 2.239,1.216 0.843,0.288 1.712,0.433 2.608,0.433 1.024,0 2.011,-0.171 2.96,-0.512 0.949,-0.342 1.862,-0.736 2.737,-1.185 l -1.409,-2.815 c -0.662,0.362 -1.36,0.666 -2.095,0.911 -0.737,0.245 -1.456,0.368 -2.161,0.368 -0.491,0 -0.928,-0.08 -1.312,-0.24 -0.384,-0.159 -0.704,-0.373 -0.96,-0.64 -0.256,-0.266 -0.448,-0.571 -0.576,-0.912 -0.128,-0.341 -0.192,-0.704 -0.192,-1.088 0,-0.81 0.218,-1.461 0.656,-1.952 C -7.675,8.085 -7.136,7.659 -6.496,7.297 -5.855,6.934 -5.152,6.581 -4.384,6.24 -3.616,5.899 -2.912,5.478 -2.271,4.977 -1.632,4.475 -1.094,3.829 -0.656,3.04 -0.219,2.251 0,1.237 0,0"
             id="path166"
             style="fill:#90c84b;fill-opacity:1;fill-rule:nonzero;stroke:none" /></g></g></g></g></svg>