<?xml version="1.0" encoding="UTF-8" standalone="no"?>
<!-- Created with Inkscape (http://www.inkscape.org/) -->

<svg
   xmlns:dc="http://purl.org/dc/elements/1.1/"
   xmlns:cc="http://creativecommons.org/ns#"
   xmlns:rdf="http://www.w3.org/1999/02/22-rdf-syntax-ns#"
   xmlns:svg="http://www.w3.org/2000/svg"
   xmlns="http://www.w3.org/2000/svg"
   xmlns:sodipodi="http://sodipodi.sourceforge.net/DTD/sodipodi-0.dtd"
   xmlns:inkscape="http://www.inkscape.org/namespaces/inkscape"
   id="svg2"
   version="1.1"
   inkscape:version="0.91 r13725"
   xml:space="preserve"
   width="1600"
   height="1000"
   viewBox="0 0 1600 1000"
   sodipodi:docname="LOGO_OUISHARE_global-RGB.svg"><metadata
     id="metadata8"><rdf:RDF><cc:Work
         rdf:about=""><dc:format>image/svg+xml</dc:format><dc:type
           rdf:resource="http://purl.org/dc/dcmitype/StillImage" /><dc:title></dc:title></cc:Work></rdf:RDF></metadata><defs
     id="defs6"><clipPath
       clipPathUnits="userSpaceOnUse"
       id="clipPath16"><path
         d="M 0,800 1280,800 1280,0 0,0 0,800 Z"
         id="path18"
         inkscape:connector-curvature="0" /></clipPath></defs><sodipodi:namedview
     pagecolor="#ffffff"
     bordercolor="#666666"
     borderopacity="1"
     objecttolerance="10"
     gridtolerance="10"
     guidetolerance="10"
     inkscape:pageopacity="0"
     inkscape:pageshadow="2"
     inkscape:window-width="863"
     inkscape:window-height="640"
     id="namedview4"
     showgrid="false"
     inkscape:snap-global="false"
     inkscape:zoom="0.236"
     inkscape:cx="850.84746"
     inkscape:cy="500"
     inkscape:window-x="581"
     inkscape:window-y="114"
     inkscape:window-maximized="0"
     inkscape:current-layer="g10" /><g
     id="g10"
     inkscape:groupmode="layer"
     inkscape:label="LOGO_OUISHARE_global-RGB"
     transform="matrix(1.25,0,0,-1.25,0,1000)"><g
       id="g20"
       transform="translate(210.1771,174.9312)"><path
         d="m 0,0 0,14.195 c 0,14.785 11.075,22.281 22.129,22.281 10.86,0 21.717,-7.496 21.717,-22.281 l 0,-14.195 9.053,0 0,14.195 c 0,20.868 -15.494,31.404 -30.77,31.404 -15.688,0 -31.162,-10.536 -31.162,-31.404 L -9.033,0 0,0 Z m 43.846,-13.167 0,-18.034 c 0,-14.595 -11.055,-22.091 -22.128,-22.091 -10.86,0 -21.718,7.3 -21.718,22.091 l 0,18.034 -9.033,0 0,-18.034 c 0,-20.875 15.275,-31.204 30.751,-31.204 15.492,0 31.181,10.536 31.181,31.204 l 0,18.034 -9.053,0 z M 72.201,0 l 0,14.195 c 0,28.57 -21.11,51.259 -49.678,51.259 -28.55,0 -50.878,-22.083 -50.878,-51.259 l 0,-14.195 9.052,0 0,14.195 c 0,23.907 18.3,42.146 41.826,42.146 23.327,0 40.626,-18.648 40.626,-42.146 L 63.149,0 72.201,0 Z M -28.355,-30.798 c 0,-29.184 20.52,-51.269 49.266,-51.269 28.357,0 51.29,22.693 51.29,51.269 l 0,17.631 -9.052,0 0,-17.631 c 0,-23.504 -18.908,-42.143 -42.238,-42.143 -23.522,0 -40.214,18.236 -40.214,42.143 l 0,17.631 -9.052,0 0,-17.631 z"
         style="fill:#001e60;fill-opacity:1;fill-rule:nonzero;stroke:none"
         id="path22"
         inkscape:connector-curvature="0" /></g><g
       id="g24"
       transform="translate(374.9186,158.9302)"><path
         d="m 0,0 0,-16.621 c 0,-17.226 -13.258,-23.3 -21.505,-23.3 -2.412,0 -22.932,0.609 -22.932,23.3 l 0,16.621 -9.032,0 0,-16.621 c 0,-31.609 28.55,-32.424 31.964,-32.424 11.665,0 30.555,8.516 30.555,32.424 L 9.05,0 0,0 Z m -44.437,13.165 0,51.683 c 0,7.898 -6.031,14.383 -13.275,14.383 -7.423,0 -13.254,-6.485 -13.254,-14.383 l 0,-51.683 9.032,0 0,51.683 c 0,2.832 1.826,5.267 4.222,5.267 2.22,0 4.243,-2.435 4.243,-5.267 l 0,-51.683 9.032,0 z m 71.197,0 0,51.683 c 0,7.898 -5.831,14.383 -13.271,14.383 C 6.242,79.231 0,72.746 0,64.848 l 0,-51.683 9.05,0 0,51.683 c 0,2.832 2.023,5.267 4.439,5.267 2.395,0 4.221,-2.435 4.221,-5.267 l 0,-51.683 9.05,0 z m -97.726,-29.786 c 0,-17.828 6.422,-32.216 18.89,-41.744 12.273,-9.319 25.546,-10.329 30.571,-10.329 25.548,0 48.265,20.66 48.265,52.073 l 0,16.621 -9.05,0 0,-16.621 c 0,-25.929 -18.515,-42.96 -39.215,-42.96 -4.219,0 -15.079,0.815 -25.132,8.515 -10.055,7.691 -15.297,19.65 -15.297,34.445 l 0,16.621 -9.032,0 0,-16.621 z"
         style="fill:#001e60;fill-opacity:1;fill-rule:nonzero;stroke:none"
         id="path26"
         inkscape:connector-curvature="0" /></g><g
       id="g28"
       transform="translate(451.8049,174.9312)"><path
         d="m 0,0 0,51.072 c 0,7.907 -6.439,14.382 -14.274,14.382 -7.855,0 -14.278,-6.475 -14.278,-14.382 l 0,-51.072 9.034,0 0,51.072 c 0,2.835 2.416,5.269 5.244,5.269 2.808,0 5.224,-2.434 5.224,-5.269 L -9.05,0 0,0 Z m -28.552,-13.167 0,-54.517 c 0,-7.898 6.423,-14.383 14.278,-14.383 7.835,0 14.274,6.485 14.274,14.383 l 0,54.517 -9.05,0 0,-54.517 c 0,-2.836 -2.416,-5.257 -5.224,-5.257 -2.828,0 -5.244,2.421 -5.244,5.257 l 0,54.517 -9.034,0 z"
         style="fill:#001e60;fill-opacity:1;fill-rule:nonzero;stroke:none"
         id="path30"
         inkscape:connector-curvature="0" /></g><g
       id="g32"
       transform="translate(576.3311,132.991)"><path
         d="M 0,0 C 0,20.67 -14.079,36.269 -37.603,45.392 L -47.657,18.434 c 11.252,-4.446 19.302,-10.331 19.302,-18.837 0,-8.722 -9.248,-13.577 -20.5,-13.577 -25.955,0 -29.571,13.577 -39.821,13.577 -7.442,0 -14.276,-6.289 -14.276,-14.392 0,-18.651 33.579,-27.765 54.097,-27.765 C -21.913,-42.56 0,-25.744 0,-0.805 L 0,0 Z m -86.26,36.476 c 6.439,-5.877 15.081,-10.333 26.136,-13.785 l 10.051,26.752 c -20.911,6.083 -21.304,14.385 -21.304,17.839 0,9.516 10.446,13.772 20.108,13.772 7.032,0 16.672,-3.238 25.938,-8.703 2.415,-1.43 4.811,-2.03 7.228,-2.03 7.44,0 14.275,5.869 14.275,14.384 0,4.855 -2.398,9.524 -6.835,12.163 -9.857,5.877 -24.936,12.962 -40.606,12.962 -27.549,0 -48.678,-18.239 -48.678,-42.548 0,-11.96 4.634,-22.703 13.687,-30.806"
         style="fill:#001e60;fill-opacity:1;fill-rule:nonzero;stroke:none"
         id="path34"
         inkscape:connector-curvature="0" /></g><g
       id="g36"
       transform="translate(690.4096,240.3872)"><path
         d="m 0,0 c -7.852,0 -14.274,-6.475 -14.274,-14.382 l 0,-45.394 -18.302,0 0,-28.776 18.302,0 0,-44.588 c 0,-7.898 6.422,-14.381 14.274,-14.381 7.835,0 14.276,6.483 14.276,14.381 l 0,118.758 C 14.276,-6.475 7.835,0 0,0 m -45.652,-59.776 -18.3,0 0,45.394 C -63.952,-6.475 -70.376,0 -78.228,0 -86.081,0 -92.505,-6.475 -92.505,-14.382 l 0,-118.758 c 0,-7.898 6.424,-14.381 14.277,-14.381 7.852,0 14.276,6.483 14.276,14.381 l 0,44.588 18.3,0 0,28.776 z"
         style="fill:#001e60;fill-opacity:1;fill-rule:nonzero;stroke:none"
         id="path38"
         inkscape:connector-curvature="0" /></g><g
       id="g40"
       transform="translate(844.4884,112.5241)"><path
         d="m 0,0 -45.242,118.542 c -2.218,5.682 -7.227,9.321 -13.273,9.321 -5.832,0 -11.271,-3.639 -13.274,-9.113 l -8.245,-21.888 c 6.437,-3.239 18.298,-13.58 25.15,-31.611 l 1.002,-2.434 c 3.614,-8.308 6.225,-18.236 7.442,-21.072 l 2.613,-6.69 -14.081,0 -11.055,-28.766 35.994,0 6.422,-16.626 c 2.218,-5.877 7.639,-9.321 13.275,-9.321 8.441,0 14.29,6.896 14.29,14.381 C 1.018,-3.454 0.608,-1.824 0,0 M -65.35,55.725 C -72.379,74.769 -79.624,81.262 -84.845,84.5 L -117.228,0 c -0.606,-1.824 -1.001,-3.454 -1.001,-5.277 0,-7.485 5.832,-14.381 14.276,-14.381 5.832,0 11.056,3.444 13.254,9.122 l 25.349,66.261 z"
         style="fill:#001e60;fill-opacity:1;fill-rule:nonzero;stroke:none"
         id="path42"
         inkscape:connector-curvature="0" /></g><g
       id="g44"
       transform="translate(1083.093,119.2062)"><path
         d="m 0,0 -49.268,0 0,-28.773 49.268,0 c 7.854,0 14.276,6.485 14.276,14.39 C 14.276,-6.485 7.854,0 0,0 m -49.268,89.973 49.268,0 c 7.854,0 14.276,6.484 14.276,14.392 0,7.908 -6.422,14.393 -14.276,14.393 l -49.268,0 0,-28.785 z m -13.058,-59.169 48.462,0 c 8.032,0 14.474,6.493 14.474,14.385 0,8.111 -6.442,14.595 -14.474,14.595 l -48.462,0 0,58.974 -14.274,0 c -7.855,0 -14.294,-6.485 -14.294,-14.393 l 0,-118.748 c 0,-7.29 7.047,-14.39 14.294,-14.39 l 14.274,0 0,59.577 z"
         style="fill:#001e60;fill-opacity:1;fill-rule:nonzero;stroke:none"
         id="path46"
         inkscape:connector-curvature="0" /></g><g
       id="g48"
       transform="translate(959.3721,163.7949)"><path
         d="m 0,0 c 7.44,7.908 11.251,20.062 11.251,31.404 0,18.247 -9.445,33.239 -27.548,40.324 -6.226,2.441 -13.471,2.441 -21.305,2.441 l -14.687,0 0,-29.188 13.684,0 c 10.858,0 22.308,-2.226 22.308,-15.196 0,-12.969 -11.45,-15.402 -22.308,-15.402 l -13.684,0 0,-29.178 10.661,0 c 17.494,0 29.16,1.825 41.628,14.795 m -18.3,-64.846 c 2.414,-5.269 7.03,-8.313 12.468,-8.313 8.445,0 13.471,7.3 13.471,14.393 l 0,1.413 c 0,1.62 -0.392,3.246 -1.199,4.857 l -14.077,31.218 c -8.05,-4.054 -17.102,-6.289 -27.355,-6.692 L -18.3,-64.846 Z m -73.989,124.415 0,-118.335 c 0,-8.111 6.029,-14.596 13.666,-14.596 7.639,0 13.866,6.485 13.866,14.596 l 0,132.935 -13.866,0 c -7.637,0 -13.666,-6.485 -13.666,-14.6"
         style="fill:#001e60;fill-opacity:1;fill-rule:nonzero;stroke:none"
         id="path50"
         inkscape:connector-curvature="0" /></g><g
       id="g52"
       transform="translate(784.2166,510.3702)"><path
         d="M 0,0 -146.735,-84.737 -293.516,0 l 0,112.981 48.91,28.247 97.871,-56.491 97.825,56.491 L 0,112.981 0,0 Z m -48.98,197.755 -97.755,-56.527 -97.871,56.49 -97.823,-56.49 0,-169.474 195.694,-112.982 195.648,112.982 0,169.474 -97.893,56.527 z"
         style="fill:#001e60;fill-opacity:1;fill-rule:nonzero;stroke:none"
         id="path54"
         inkscape:connector-curvature="0" /></g></g></svg>