<?xml version="1.0" encoding="UTF-8" standalone="no"?>
<!-- Created with Inkscape (http://www.inkscape.org/) -->

<svg
   xmlns:dc="http://purl.org/dc/elements/1.1/"
   xmlns:cc="http://creativecommons.org/ns#"
   xmlns:rdf="http://www.w3.org/1999/02/22-rdf-syntax-ns#"
   xmlns:svg="http://www.w3.org/2000/svg"
   xmlns="http://www.w3.org/2000/svg"
   xmlns:sodipodi="http://sodipodi.sourceforge.net/DTD/sodipodi-0.dtd"
   xmlns:inkscape="http://www.inkscape.org/namespaces/inkscape"
   id="svg2"
   version="1.1"
   inkscape:version="0.91 r"
   xml:space="preserve"
   width="850"
   height="300"
   viewBox="0 0 849.99996 300"
   sodipodi:docname="logo.svg"><metadata
     id="metadata8"><rdf:RDF><cc:Work
         rdf:about=""><dc:format>image/svg+xml</dc:format><dc:type
           rdf:resource="http://purl.org/dc/dcmitype/StillImage" /><dc:title></dc:title></cc:Work></rdf:RDF></metadata><defs
     id="defs6"><clipPath
       clipPathUnits="userSpaceOnUse"
       id="clipPath22"><path
         d="m 0,595.28 841.89,0 L 841.89,0 0,0 0,595.28 Z"
         id="path24"
         inkscape:connector-curvature="0" /></clipPath></defs><sodipodi:namedview
     pagecolor="#ffffff"
     bordercolor="#666666"
     borderopacity="1"
     objecttolerance="10"
     gridtolerance="10"
     guidetolerance="10"
     inkscape:pageopacity="0"
     inkscape:pageshadow="2"
     inkscape:window-width="1190"
     inkscape:window-height="792"
     id="namedview4"
     showgrid="false"
     inkscape:zoom="0.31716168"
     inkscape:cx="-27.164266"
     inkscape:cy="372.04999"
     inkscape:window-x="0"
     inkscape:window-y="22"
     inkscape:window-maximized="0"
     inkscape:current-layer="g10" /><g
     id="g10"
     inkscape:groupmode="layer"
     inkscape:label="logo-vektor_druckcmyk"
     transform="matrix(1.25,0,0,-1.25,0,300.00003)"><g
       id="g3447"
       transform="translate(-80.71593,-229.53592)"><path
         inkscape:connector-curvature="0"
         id="path12"
         style="fill:#ffffff;fill-opacity:1;fill-rule:nonzero;stroke:none"
         d="m 736,244.281 -641,0 0,206 641,0 0,-206 z" /><g
         transform="translate(497.6396,300.2324)"
         id="g14"><path
           inkscape:connector-curvature="0"
           id="path16"
           style="fill:#4f4c4d;fill-opacity:1;fill-rule:nonzero;stroke:none"
           d="m 0,0 10.965,0 0,-1.921 -8.895,0 0,-5.471 8.304,0 0,-1.921 -8.304,0 0,-6.209 9.338,0 0,-1.921 L 0,-17.443 0,0 Z" /></g><g
         id="g18"><g
           clip-path="url(#clipPath22)"
           id="g20"><path
             inkscape:connector-curvature="0"
             id="path26"
             style="fill:#4f4c4d;fill-opacity:1;fill-rule:nonzero;stroke:none"
             d="m 512.072,294.319 1.921,0 0,-11.53 -1.921,0 0,11.53 z m 0.96,5.913 c 0.789,0 1.406,-0.639 1.406,-1.404 0,-0.811 -0.591,-1.404 -1.406,-1.404 -0.812,0 -1.404,0.593 -1.404,1.404 0,0.765 0.616,1.404 1.404,1.404" /><g
             transform="translate(517.8096,291.585)"
             id="g28"><path
               inkscape:connector-curvature="0"
               id="path30"
               style="fill:#4f4c4d;fill-opacity:1;fill-rule:nonzero;stroke:none"
               d="m 0,0 c 0,1.06 -0.099,1.971 -0.099,2.734 l 1.823,0 c 0,-0.616 0.05,-1.255 0.05,-1.896 l 0.049,0 c 0.519,1.133 1.947,2.193 3.843,2.193 3.03,0 4.386,-1.923 4.386,-4.707 l 0,-7.12 -1.92,0 0,6.924 c 0,1.921 -0.838,3.128 -2.637,3.128 -2.488,0 -3.573,-1.799 -3.573,-4.436 l 0,-5.616 L 0,-8.796 0,0 Z" /></g><g
             transform="translate(536.6758,300.2324)"
             id="g32"><path
               inkscape:connector-curvature="0"
               id="path34"
               style="fill:#4f4c4d;fill-opacity:1;fill-rule:nonzero;stroke:none"
               d="m 0,0 2.29,0 3.968,-14.488 0.05,0 4.287,14.488 2.316,0 4.261,-14.488 0.051,0 4.042,14.488 2.167,0 -5.124,-17.443 -2.244,0 -4.313,14.783 -0.048,0 -4.337,-14.783 -2.266,0 L 0,0 Z" /></g><path
             inkscape:connector-curvature="0"
             id="path36"
             style="fill:#4f4c4d;fill-opacity:1;fill-rule:nonzero;stroke:none"
             d="m 562.24,294.319 1.922,0 0,-11.53 -1.922,0 0,11.53 z m 0.96,5.913 c 0.789,0 1.406,-0.639 1.406,-1.404 0,-0.811 -0.592,-1.404 -1.406,-1.404 -0.811,0 -1.403,0.593 -1.403,1.404 0,0.765 0.617,1.404 1.403,1.404" /><g
             transform="translate(567.9775,291.585)"
             id="g38"><path
               inkscape:connector-curvature="0"
               id="path40"
               style="fill:#4f4c4d;fill-opacity:1;fill-rule:nonzero;stroke:none"
               d="m 0,0 c 0,1.06 -0.098,1.971 -0.098,2.734 l 1.824,0 c 0,-0.616 0.048,-1.255 0.048,-1.896 l 0.051,0 c 0.517,1.133 1.946,2.193 3.843,2.193 0.247,0 0.518,-0.025 0.789,-0.124 L 6.333,0.961 C 6.014,1.06 5.643,1.108 5.298,1.108 2.958,1.108 1.922,-0.543 1.922,-3.18 l 0,-5.616 L 0,-8.796 0,0 Z" /></g><g
             transform="translate(582.9551,292.6934)"
             id="g42"><path
               inkscape:connector-curvature="0"
               id="path44"
               style="fill:#4f4c4d;fill-opacity:1;fill-rule:nonzero;stroke:none"
               d="m 0,0 -3.4,0 0,-5.765 c 0,-1.478 0.025,-2.662 1.725,-2.662 0.567,0 1.182,0.125 1.699,0.396 l 0.075,-1.75 c -0.664,-0.296 -1.527,-0.42 -2.243,-0.42 -2.734,0 -3.178,1.478 -3.178,3.87 l 0,6.331 -2.514,0 0,1.626 2.514,0 0,3.278 1.922,0 0,-3.278 3.4,0 L 0,0 Z" /></g><g
             transform="translate(585.5625,285.8184)"
             id="g46"><path
               inkscape:connector-curvature="0"
               id="path48"
               style="fill:#4f4c4d;fill-opacity:1;fill-rule:nonzero;stroke:none"
               d="m 0,0 c 0.766,-0.935 1.603,-1.552 2.958,-1.552 1.208,0 2.539,0.519 2.539,1.775 0,1.231 -1.232,1.553 -2.465,1.823 -2.195,0.492 -4.065,0.961 -4.065,3.35 0,2.244 2.166,3.402 4.31,3.402 1.627,0 3.131,-0.617 3.92,-2.096 L 5.594,5.644 c -0.493,0.812 -1.307,1.378 -2.44,1.378 -1.059,0 -2.266,-0.516 -2.266,-1.6 0,-0.961 1.381,-1.381 2.907,-1.675 2.046,-0.394 3.769,-1.134 3.769,-3.45 0,-2.612 -2.315,-3.623 -4.606,-3.623 -1.946,0 -3.352,0.517 -4.486,2.144 L 0,0 Z" /></g><g
             transform="translate(604.0137,291.4365)"
             id="g50"><path
               inkscape:connector-curvature="0"
               id="path52"
               style="fill:#4f4c4d;fill-opacity:1;fill-rule:nonzero;stroke:none"
               d="m 0,0 c -0.812,0.986 -1.749,1.404 -2.907,1.404 -2.588,0 -3.893,-1.921 -3.893,-4.286 0,-2.366 1.551,-4.288 3.893,-4.288 1.256,0 2.218,0.443 2.932,1.429 l 1.429,-1.355 c -1.109,-1.281 -2.685,-1.848 -4.361,-1.848 -3.573,0 -5.964,2.514 -5.964,6.062 0,3.497 2.417,6.062 5.964,6.062 1.7,0 3.276,-0.568 4.436,-1.826 L 0,0 Z" /></g><g
             transform="translate(607.6797,301.4155)"
             id="g54"><path
               inkscape:connector-curvature="0"
               id="path56"
               style="fill:#4f4c4d;fill-opacity:1;fill-rule:nonzero;stroke:none"
               d="m 0,0 1.922,0 0,-8.697 0.049,0 c 0.518,0.911 1.898,1.898 3.697,1.898 3.029,0 4.386,-1.923 4.386,-4.707 l 0,-7.12 -1.922,0 0,6.923 c 0,1.921 -0.84,3.128 -2.639,3.128 -2.486,0 -3.571,-1.799 -3.571,-4.435 l 0,-5.616 -1.922,0 L 0,0 Z" /></g><g
             transform="translate(626.7949,288.333)"
             id="g58"><path
               inkscape:connector-curvature="0"
               id="path60"
               style="fill:#4f4c4d;fill-opacity:1;fill-rule:nonzero;stroke:none"
               d="m 0,0 c -2.441,0 -4.018,-0.667 -4.018,-2.218 0,-1.453 1.086,-1.996 2.54,-1.996 2.217,0 3.35,1.602 3.399,3.476 L 1.921,0 0,0 Z m -5.569,4.508 c 1.182,1.208 2.906,1.775 4.584,1.775 3.399,0 4.828,-1.627 4.828,-4.879 l 0,-4.952 c 0,-0.666 0.075,-1.405 0.173,-1.996 l -1.847,0 C 2.044,-5.026 2.044,-4.313 2.044,-3.82 l -0.049,0 c -0.763,-1.183 -2.045,-2.021 -3.794,-2.021 -2.341,0 -4.287,1.184 -4.287,3.425 0,3.82 4.434,4.042 7.268,4.042 l 0.739,0 0,0.346 c 0,1.675 -1.06,2.536 -2.859,2.536 -1.23,0 -2.513,-0.418 -3.423,-1.256 l -1.208,1.256 z" /></g><g
             transform="translate(635.1406,292.6934)"
             id="g62"><path
               inkscape:connector-curvature="0"
               id="path64"
               style="fill:#4f4c4d;fill-opacity:1;fill-rule:nonzero;stroke:none"
               d="m 0,0 -2.513,0 0,1.626 2.513,0 0,2.587 c 0,2.809 0.986,4.805 4.091,4.805 0.493,0 1.108,-0.098 1.478,-0.296 L 5.298,6.998 C 4.881,7.146 4.435,7.244 3.991,7.244 1.996,7.244 1.923,5.79 1.923,3.795 l 0,-2.169 2.807,0 0,-1.626 -2.807,0 0,-9.904 L 0,-9.904 0,0 Z" /></g><g
             transform="translate(648.2207,292.6934)"
             id="g66"><path
               inkscape:connector-curvature="0"
               id="path68"
               style="fill:#4f4c4d;fill-opacity:1;fill-rule:nonzero;stroke:none"
               d="m 0,0 -3.401,0 0,-5.765 c 0,-1.478 0.026,-2.662 1.724,-2.662 0.569,0 1.184,0.125 1.7,0.396 L 0.1,-9.781 c -0.665,-0.296 -1.529,-0.42 -2.244,-0.42 -2.735,0 -3.177,1.478 -3.177,3.87 l 0,6.331 -2.513,0 0,1.626 2.513,0 0,3.278 1.92,0 0,-3.278 L 0,1.626 0,0 Z" /></g><g
             transform="translate(650.8291,285.8184)"
             id="g70"><path
               inkscape:connector-curvature="0"
               id="path72"
               style="fill:#4f4c4d;fill-opacity:1;fill-rule:nonzero;stroke:none"
               d="m 0,0 c 0.765,-0.935 1.603,-1.552 2.957,-1.552 1.206,0 2.539,0.519 2.539,1.775 0,1.231 -1.232,1.553 -2.466,1.823 -2.192,0.492 -4.064,0.961 -4.064,3.35 0,2.244 2.168,3.402 4.311,3.402 1.626,0 3.13,-0.617 3.919,-2.096 L 5.593,5.644 C 5.101,6.456 4.288,7.022 3.153,7.022 2.096,7.022 0.889,6.506 0.889,5.422 0.889,4.461 2.268,4.041 3.796,3.747 5.84,3.353 7.564,2.613 7.564,0.297 c 0,-2.612 -2.316,-3.623 -4.607,-3.623 -1.946,0 -3.352,0.517 -4.485,2.144 L 0,0 Z" /></g><g
             transform="translate(661.0732,291.585)"
             id="g74"><path
               inkscape:connector-curvature="0"
               id="path76"
               style="fill:#4f4c4d;fill-opacity:1;fill-rule:nonzero;stroke:none"
               d="m 0,0 c 0,1.06 -0.098,1.971 -0.098,2.734 l 1.823,0 c 0,-0.616 0.049,-1.255 0.049,-1.896 l 0.05,0 c 0.517,1.133 1.947,2.193 3.844,2.193 2.488,0 3.277,-1.404 3.645,-2.193 0.838,1.354 1.9,2.193 3.648,2.193 3.303,0 4.386,-1.848 4.386,-4.829 l 0,-6.998 -1.922,0 0,6.898 c 0,1.601 -0.567,3.154 -2.808,3.154 -1.629,0 -2.981,-1.331 -2.981,-3.4 l 0,-6.652 -1.923,0 0,6.528 c 0,2.539 -0.642,3.524 -2.218,3.524 -2.489,0 -3.571,-1.799 -3.571,-4.436 l 0,-5.616 L 0,-8.796 0,0 Z" /></g><g
             transform="translate(687.5527,284.2666)"
             id="g78"><path
               inkscape:connector-curvature="0"
               id="path80"
               style="fill:#4f4c4d;fill-opacity:1;fill-rule:nonzero;stroke:none"
               d="M 0,0 C 2.488,0 4.09,1.874 4.09,4.288 4.09,6.703 2.488,8.574 0,8.574 -2.488,8.574 -4.09,6.703 -4.09,4.288 -4.09,1.874 -2.488,0 0,0 m 0,10.35 c 3.548,0 6.16,-2.464 6.16,-6.062 0,-3.6 -2.612,-6.062 -6.16,-6.062 -3.548,0 -6.16,2.462 -6.16,6.062 0,3.598 2.612,6.062 6.16,6.062" /></g><g
             transform="translate(702.1826,292.8408)"
             id="g82"><path
               inkscape:connector-curvature="0"
               id="path84"
               style="fill:#4f4c4d;fill-opacity:1;fill-rule:nonzero;stroke:none"
               d="m 0,0 c -2.489,0 -4.091,-1.871 -4.091,-4.286 0,-2.414 1.602,-4.288 4.091,-4.288 2.487,0 4.089,1.874 4.089,4.288 C 4.089,-1.871 2.487,0 0,0 m 4.089,-8.007 -0.049,0 c -0.715,-1.306 -2.365,-2.342 -4.436,-2.342 -3.228,0 -5.765,2.614 -5.765,6.063 0,3.497 2.44,6.061 6.062,6.061 1.675,0 3.079,-0.74 4.139,-1.971 l 0.049,0 0,8.771 1.923,0 0,-18.627 -1.923,0 0,2.045 z" /></g><g
             transform="translate(720.3848,289.5879)"
             id="g86"><path
               inkscape:connector-curvature="0"
               id="path88"
               style="fill:#4f4c4d;fill-opacity:1;fill-rule:nonzero;stroke:none"
               d="M 0,0 C -0.075,1.947 -1.354,3.253 -3.475,3.253 -5.594,3.253 -6.997,1.947 -7.244,0 L 0,0 Z m 1.651,-4.704 c -1.355,-1.75 -2.981,-2.392 -5.126,-2.392 -3.622,0 -5.839,2.711 -5.839,6.063 0,3.572 2.514,6.061 5.913,6.061 3.254,0 5.469,-2.218 5.469,-6.038 l 0,-0.616 -9.312,0 c 0.147,-1.995 1.676,-3.695 3.769,-3.695 1.651,0 2.761,0.592 3.672,1.75 l 1.454,-1.133 z" /></g><path
             inkscape:connector-curvature="0"
             id="path90"
             style="fill:#4f4c4d;fill-opacity:1;fill-rule:nonzero;stroke:none"
             d="m 725.604,301.416 1.921,0 0,-18.626 -1.921,0 0,18.626 z" /><path
             inkscape:connector-curvature="0"
             id="path92"
             style="fill:#4f4c4d;fill-opacity:1;fill-rule:nonzero;stroke:none"
             d="m 731.513,301.416 1.921,0 0,-18.626 -1.921,0 0,18.626 z" /><g
             transform="translate(497.2949,263.7354)"
             id="g94"><path
               inkscape:connector-curvature="0"
               id="path96"
               style="fill:#4f4c4d;fill-opacity:1;fill-rule:nonzero;stroke:none"
               d="m 0,0 c 0,1.06 -0.099,1.972 -0.099,2.735 l 1.824,0 c 0,-0.617 0.048,-1.256 0.048,-1.896 l 0.049,0 c 0.518,1.133 1.947,2.192 3.846,2.192 2.487,0 3.276,-1.405 3.645,-2.192 0.838,1.353 1.897,2.192 3.648,2.192 3.301,0 4.386,-1.847 4.386,-4.828 l 0,-7 -1.922,0 0,6.9 c 0,1.601 -0.568,3.154 -2.81,3.154 -1.627,0 -2.982,-1.331 -2.982,-3.401 l 0,-6.653 -1.922,0 0,6.53 c 0,2.538 -0.64,3.524 -2.217,3.524 -2.489,0 -3.572,-1.799 -3.572,-4.436 l 0,-5.618 L 0,-8.797 0,0 Z" /></g><path
             inkscape:connector-curvature="0"
             id="path98"
             style="fill:#4f4c4d;fill-opacity:1;fill-rule:nonzero;stroke:none"
             d="m 518.451,266.471 1.922,0 0,-11.532 -1.922,0 0,11.532 z m 0.96,5.913 c 0.789,0 1.405,-0.641 1.405,-1.405 0,-0.812 -0.592,-1.405 -1.405,-1.405 -0.811,0 -1.403,0.593 -1.403,1.405 0,0.764 0.615,1.405 1.403,1.405" /><g
             transform="translate(530.4961,264.8447)"
             id="g100"><path
               inkscape:connector-curvature="0"
               id="path102"
               style="fill:#4f4c4d;fill-opacity:1;fill-rule:nonzero;stroke:none"
               d="m 0,0 -3.399,0 0,-5.767 c 0,-1.477 0.024,-2.66 1.724,-2.66 0.566,0 1.184,0.124 1.7,0.395 l 0.076,-1.749 c -0.668,-0.296 -1.529,-0.421 -2.246,-0.421 -2.733,0 -3.176,1.479 -3.176,3.871 l 0,6.331 -2.513,0 0,1.626 2.513,0 0,3.276 1.922,0 0,-3.276 L 0,1.626 0,0 Z" /></g><g
             transform="translate(538.5967,256.7881)"
             id="g104"><path
               inkscape:connector-curvature="0"
               id="path106"
               style="fill:#4f4c4d;fill-opacity:1;fill-rule:nonzero;stroke:none"
               d="m 0,0 10.077,13.673 -9.93,0 0,1.923 12.444,0 0,-1.774 -10.078,-13.75 10.199,0 0,-1.922 L 0,-1.85 0,0 Z" /></g><g
             transform="translate(563.8955,257.6738)"
             id="g108"><path
               inkscape:connector-curvature="0"
               id="path110"
               style="fill:#4f4c4d;fill-opacity:1;fill-rule:nonzero;stroke:none"
               d="m 0,0 c 0,-1.06 0.099,-1.971 0.099,-2.735 l -1.824,0 c 0,0.617 -0.051,1.257 -0.051,1.897 l -0.047,0 c -0.52,-1.133 -1.948,-2.193 -3.845,-2.193 -3.029,0 -4.386,1.922 -4.386,4.708 l 0,7.12 1.922,0 0,-6.924 c 0,-1.922 0.837,-3.129 2.635,-3.129 2.489,0 3.574,1.8 3.574,4.436 l 0,5.617 L 0,8.797 0,0 Z" /></g><g
             transform="translate(567.5342,273.5674)"
             id="g112"><path
               inkscape:connector-curvature="0"
               id="path114"
               style="fill:#4f4c4d;fill-opacity:1;fill-rule:nonzero;stroke:none"
               d="m 0,0 1.922,0 0,-12.173 5.25,5.076 2.735,0 -5.568,-5.25 6.134,-6.282 -2.833,0 -5.718,6.061 0,-6.061 -1.922,0 L 0,0 Z" /></g><g
             transform="translate(589.9023,257.6738)"
             id="g116"><path
               inkscape:connector-curvature="0"
               id="path118"
               style="fill:#4f4c4d;fill-opacity:1;fill-rule:nonzero;stroke:none"
               d="m 0,0 c 0,-1.06 0.099,-1.971 0.099,-2.735 l -1.824,0 c 0,0.617 -0.048,1.257 -0.048,1.897 l -0.051,0 c -0.516,-1.133 -1.946,-2.193 -3.842,-2.193 -3.032,0 -4.387,1.922 -4.387,4.708 l 0,7.12 1.922,0 0,-6.924 c 0,-1.922 0.839,-3.129 2.637,-3.129 2.489,0 3.572,1.8 3.572,4.436 l 0,5.617 L 0,8.797 0,0 Z" /></g><g
             transform="translate(593.5439,263.7354)"
             id="g120"><path
               inkscape:connector-curvature="0"
               id="path122"
               style="fill:#4f4c4d;fill-opacity:1;fill-rule:nonzero;stroke:none"
               d="m 0,0 c 0,1.06 -0.099,1.972 -0.099,2.735 l 1.824,0 c 0,-0.617 0.048,-1.256 0.048,-1.896 l 0.048,0 c 0.519,1.133 1.947,2.192 3.846,2.192 3.029,0 4.386,-1.922 4.386,-4.706 l 0,-7.122 -1.923,0 0,6.924 c 0,1.923 -0.837,3.13 -2.637,3.13 -2.488,0 -3.571,-1.799 -3.571,-4.436 l 0,-5.618 L 0,-8.797 0,0 Z" /></g><g
             transform="translate(608.2227,264.8447)"
             id="g124"><path
               inkscape:connector-curvature="0"
               id="path126"
               style="fill:#4f4c4d;fill-opacity:1;fill-rule:nonzero;stroke:none"
               d="m 0,0 -2.513,0 0,1.626 2.513,0 0,2.587 c 0,2.808 0.986,4.805 4.09,4.805 0.493,0 1.11,-0.099 1.478,-0.295 L 5.297,6.998 C 4.878,7.144 4.435,7.243 3.99,7.243 1.997,7.243 1.922,5.79 1.922,3.795 l 0,-2.169 2.808,0 0,-1.626 -2.808,0 0,-9.906 L 0,-9.906 0,0 Z" /></g><g
             transform="translate(621.3008,264.8447)"
             id="g128"><path
               inkscape:connector-curvature="0"
               id="path130"
               style="fill:#4f4c4d;fill-opacity:1;fill-rule:nonzero;stroke:none"
               d="m 0,0 -3.398,0 0,-5.767 c 0,-1.477 0.022,-2.66 1.723,-2.66 0.568,0 1.185,0.124 1.7,0.395 l 0.076,-1.749 c -0.667,-0.296 -1.529,-0.421 -2.245,-0.421 -2.732,0 -3.176,1.479 -3.176,3.871 l 0,6.331 -2.513,0 0,1.626 2.513,0 0,3.276 1.922,0 0,-3.276 L 0,1.626 0,0 Z" /></g><g
             transform="translate(125.1113,308.9785)"
             id="g132"><path
               inkscape:connector-curvature="0"
               id="path134"
               style="fill:#83ab29;fill-opacity:1;fill-rule:nonzero;stroke:none"
               d="m 0,0 c 0,2.763 2.377,5.268 5.204,5.268 2.955,0 5.589,-2.184 5.589,-5.268 0,-3.084 -2.313,-5.525 -5.46,-5.525 C 2.313,-5.525 0,-2.956 0,0 m -13.362,0 c 0,2.763 2.376,5.268 5.203,5.268 2.955,0 5.59,-2.184 5.59,-5.268 0,-3.084 -2.313,-5.525 -5.462,-5.525 -3.019,0 -5.331,2.569 -5.331,5.525" /></g><g
             transform="translate(140.8516,326.1255)"
             id="g136"><path
               inkscape:connector-curvature="0"
               id="path138"
               style="fill:#4f4c4d;fill-opacity:1;fill-rule:nonzero;stroke:none"
               d="m 0,0 c -5.268,-3.021 -11.05,-4.112 -16.96,-4.112 -13.878,0 -23.514,10.022 -23.514,23.899 0,13.878 9.636,23.9 23.514,23.9 6.746,0 12.206,-2.057 16.382,-6.297 l -3.083,-3.213 c -2.763,3.341 -8.353,5.654 -13.299,5.654 -11.886,0 -19.274,-8.738 -19.274,-20.044 0,-11.307 7.388,-20.046 19.274,-20.046 4.882,0 9.251,0.644 12.72,2.7 l 0,15.289 -10.922,0 0,3.856 L 0,21.586 0,0 Z" /></g><g
             transform="translate(153.3193,368.6543)"
             id="g140"><path
               inkscape:connector-curvature="0"
               id="path142"
               style="fill:#4f4c4d;fill-opacity:1;fill-rule:nonzero;stroke:none"
               d="m 0,0 27.819,0 0,-3.854 -23.579,0 0,-16.189 22.1,0 0,-3.856 -22.1,0 0,-17.73 24.606,0 0,-3.855 L 0,-45.484 0,0 Z" /></g><g
             transform="translate(190.9688,368.6543)"
             id="g144"><path
               inkscape:connector-curvature="0"
               id="path146"
               style="fill:#4f4c4d;fill-opacity:1;fill-rule:nonzero;stroke:none"
               d="M 0,0 6.361,0 22.936,-38.161 39.511,0 l 6.04,0 0,-45.484 -4.24,0 0,40.089 -0.129,0 -17.347,-40.089 -1.864,0 -17.602,40.089 -0.129,0 0,-40.089 -4.24,0 L 0,0 Z" /></g><g
             transform="translate(248.5361,368.6543)"
             id="g148"><path
               inkscape:connector-curvature="0"
               id="path150"
               style="fill:#4f4c4d;fill-opacity:1;fill-rule:nonzero;stroke:none"
               d="m 0,0 27.819,0 0,-3.854 -23.578,0 0,-16.189 22.1,0 0,-3.856 -22.1,0 0,-17.73 24.606,0 0,-3.855 L 0,-45.484 0,0 Z" /></g><path
             inkscape:connector-curvature="0"
             id="path152"
             style="fill:#4f4c4d;fill-opacity:1;fill-rule:nonzero;stroke:none"
             d="m 286.637,368.654 4.24,0 0,-45.484 -4.24,0 0,45.484 z" /><g
             transform="translate(303.3418,368.6543)"
             id="g154"><path
               inkscape:connector-curvature="0"
               id="path156"
               style="fill:#4f4c4d;fill-opacity:1;fill-rule:nonzero;stroke:none"
               d="m 0,0 5.46,0 27.691,-39.831 0.127,0 0,39.831 4.241,0 0,-45.484 -5.461,0 -27.689,39.83 -0.129,0 0,-39.83 -4.24,0 L 0,0 Z" /></g><g
             transform="translate(347.418,368.6543)"
             id="g158"><path
               inkscape:connector-curvature="0"
               id="path160"
               style="fill:#4f4c4d;fill-opacity:1;fill-rule:nonzero;stroke:none"
               d="m 0,0 4.368,0 11.307,-40.281 0.129,0 11.5,40.281 5.396,0 11.501,-40.281 0.128,0 L 55.636,0 l 4.369,0 -13.234,-45.484 -5.205,0 -11.5,40.473 -0.128,0 -11.5,-40.473 -5.204,0 L 0,0 Z" /></g><g
             transform="translate(434.5391,325.8667)"
             id="g162"><path
               inkscape:connector-curvature="0"
               id="path164"
               style="fill:#4f4c4d;fill-opacity:1;fill-rule:nonzero;stroke:none"
               d="M 0,0 C 11.884,0 19.273,8.739 19.273,20.046 19.273,31.352 11.884,40.09 0,40.09 -11.886,40.09 -19.274,31.352 -19.274,20.046 -19.274,8.739 -11.886,0 0,0 m 0,43.945 c 13.876,0 23.514,-10.022 23.514,-23.899 C 23.514,6.169 13.876,-3.853 0,-3.853 c -13.877,0 -23.514,10.022 -23.514,23.899 0,13.877 9.637,23.899 23.514,23.899" /></g><g
             transform="translate(467.5645,368.6543)"
             id="g166"><path
               inkscape:connector-curvature="0"
               id="path168"
               style="fill:#4f4c4d;fill-opacity:1;fill-rule:nonzero;stroke:none"
               d="m 0,0 4.24,0 0,-20.043 25.442,0 0,20.043 4.241,0 0,-45.484 -4.241,0 0,21.585 -25.442,0 0,-21.585 -4.24,0 L 0,0 Z" /></g><g
             transform="translate(513.9531,368.6543)"
             id="g170"><path
               inkscape:connector-curvature="0"
               id="path172"
               style="fill:#4f4c4d;fill-opacity:1;fill-rule:nonzero;stroke:none"
               d="m 0,0 4.239,0 0,-41.629 21.202,0 0,-3.855 L 0,-45.484 0,0 Z" /></g><g
             transform="translate(123.8262,263.1729)"
             id="g174"><path
               inkscape:connector-curvature="0"
               id="path176"
               style="fill:#4f4c4d;fill-opacity:1;fill-rule:nonzero;stroke:none"
               d="m 0,0 c 8.545,0 14.134,6.166 14.134,14.647 0,8.48 -5.589,14.648 -14.134,14.648 -8.544,0 -14.133,-6.168 -14.133,-14.648 C -14.133,6.166 -8.544,0 0,0 m 0,38.547 c 14.199,0 24.543,-9.316 24.543,-23.9 C 24.543,0.063 14.199,-9.252 0,-9.252 c -14.198,0 -24.542,9.315 -24.542,23.899 0,14.584 10.344,23.9 24.542,23.9" /></g><g
             transform="translate(155.5664,300.5625)"
             id="g178"><path
               inkscape:connector-curvature="0"
               id="path180"
               style="fill:#4f4c4d;fill-opacity:1;fill-rule:nonzero;stroke:none"
               d="m 0,0 10.023,0 0,-18.889 L 27.69,0 40.795,0 20.559,-21.137 l 21.972,-24.348 -14.005,0 -18.503,21.587 0,-21.587 L 0,-45.485 0,0 Z" /></g><g
             transform="translate(223.6704,263.1729)"
             id="g182"><path
               inkscape:connector-curvature="0"
               id="path184"
               style="fill:#4f4c4d;fill-opacity:1;fill-rule:nonzero;stroke:none"
               d="m 0,0 c 8.544,0 14.133,6.166 14.133,14.647 0,8.48 -5.589,14.648 -14.133,14.648 -8.545,0 -14.134,-6.168 -14.134,-14.648 C -14.134,6.166 -8.545,0 0,0 m 0,38.547 c 14.199,0 24.542,-9.316 24.542,-23.9 C 24.542,0.063 14.199,-9.252 0,-9.252 c -14.199,0 -24.542,9.315 -24.542,23.899 0,14.584 10.343,23.9 24.542,23.9" /></g><g
             transform="translate(255.0249,300.5625)"
             id="g186"><path
               inkscape:connector-curvature="0"
               id="path188"
               style="fill:#4f4c4d;fill-opacity:1;fill-rule:nonzero;stroke:none"
               d="m 0,0 13.62,0 19.338,-31.608 0.128,0 0,31.608 10.022,0 0,-45.485 -13.106,0 -19.851,32.38 -0.129,0 0,-32.38 L 0,-45.485 0,0 Z" /></g><g
             transform="translate(329.4893,263.1729)"
             id="g190"><path
               inkscape:connector-curvature="0"
               id="path192"
               style="fill:#4f4c4d;fill-opacity:1;fill-rule:nonzero;stroke:none"
               d="m 0,0 c 8.544,0 14.133,6.166 14.133,14.647 0,8.48 -5.589,14.648 -14.133,14.648 -8.545,0 -14.134,-6.168 -14.134,-14.648 C -14.134,6.166 -8.545,0 0,0 m 0,38.547 c 14.199,0 24.542,-9.316 24.542,-23.9 C 24.542,0.063 14.199,-9.252 0,-9.252 c -14.199,0 -24.542,9.315 -24.542,23.899 0,14.584 10.343,23.9 24.542,23.9" /></g><g
             transform="translate(360.8438,300.5625)"
             id="g194"><path
               inkscape:connector-curvature="0"
               id="path196"
               style="fill:#4f4c4d;fill-opacity:1;fill-rule:nonzero;stroke:none"
               d="m 0,0 15.162,0 10.472,-29.682 0.129,0 L 36.299,0 l 15.097,0 0,-45.485 -10.022,0 0,34.884 -0.128,0 -11.95,-34.884 -7.645,0 -11.5,34.884 -0.129,0 0,-34.884 L 0,-45.485 0,0 Z" /></g><path
             inkscape:connector-curvature="0"
             id="path198"
             style="fill:#4f4c4d;fill-opacity:1;fill-rule:nonzero;stroke:none"
             d="m 422.008,300.563 10.023,0 0,-45.485 -10.023,0 0,45.485 z" /><g
             transform="translate(442.1826,300.5625)"
             id="g200"><path
               inkscape:connector-curvature="0"
               id="path202"
               style="fill:#4f4c4d;fill-opacity:1;fill-rule:nonzero;stroke:none"
               d="m 0,0 30.901,0 0,-9.251 -20.878,0 0,-8.48 19.722,0 0,-9.252 -19.722,0 0,-9.251 22.036,0 0,-9.251 L 0,-45.485 0,0 Z" /></g><g
             transform="translate(649.1963,420.2764)"
             id="g204"><path
               inkscape:connector-curvature="0"
               id="path206"
               style="fill:#83ab29;fill-opacity:1;fill-rule:nonzero;stroke:none"
               d="m 0,0 2.909,-2.911 -46.524,-46.525 -2.91,2.909 L 0,0 Z" /></g><g
             transform="translate(591.1553,359.1943)"
             id="g208"><path
               inkscape:connector-curvature="0"
               id="path210"
               style="fill:#83ab29;fill-opacity:1;fill-rule:nonzero;stroke:none"
               d="m 0,0 c -1.829,1.828 -0.762,6.077 2.775,9.614 3.532,3.533 13.834,7.115 13.834,7.115 0,0 -3.963,-10.979 -6.884,-13.901 C 6.284,-0.614 1.828,-1.827 0,0" /></g><g
             transform="translate(653.8594,420.5742)"
             id="g212"><path
               inkscape:connector-curvature="0"
               id="path214"
               style="fill:#83ab29;fill-opacity:1;fill-rule:nonzero;stroke:none"
               d="m 0,0 c 7.96,-7.964 13.65,-15.31 16.938,-19.908 1.131,-1.583 1.829,-2.704 1.462,-3.071 -0.364,-0.365 -1.587,0.279 -3.17,1.361 -4.693,3.187 -12.135,8.794 -20.107,16.764 l 0.012,-0.013 c -7.966,7.968 -13.574,15.414 -16.763,20.106 -1.079,1.583 -1.722,2.803 -1.357,3.168 0.365,0.366 1.485,-0.33 3.068,-1.46 4.6,-3.287 11.945,-8.977 19.909,-16.938 L 0,0 Z" /></g><g
             transform="translate(654.7402,419.0635)"
             id="g216"><path
               inkscape:connector-curvature="0"
               id="path218"
               style="fill:#83ab29;fill-opacity:1;fill-rule:nonzero;stroke:none"
               d="m 0,0 c 3.014,-10.85 4.364,-20.041 4.965,-25.665 0.207,-1.931 0.257,-3.251 -0.238,-3.391 -0.498,-0.139 -1.241,1.023 -2.091,2.739 -2.519,5.083 -6.245,13.629 -9.271,24.482 l 0.004,-0.012 c -3.019,10.854 -4.244,20.098 -4.718,25.745 -0.156,1.914 -0.121,3.293 0.378,3.429 0.493,0.142 1.137,-1.018 1.954,-2.784 2.39,-5.118 5.992,-13.687 9.013,-24.531 L 0,0 Z" /></g><g
             transform="translate(574.2969,413.0088)"
             id="g220"><path
               inkscape:connector-curvature="0"
               id="path222"
               style="fill:#539cb2;fill-opacity:1;fill-rule:nonzero;stroke:none"
               d="M 0,0 4.114,0.003 4.118,-70.366 0,-70.366 0,0 Z" /></g><g
             transform="translate(576.4463,324.2065)"
             id="g224"><path
               inkscape:connector-curvature="0"
               id="path226"
               style="fill:#539cb2;fill-opacity:1;fill-rule:nonzero;stroke:none"
               d="m 0,0 c -2.587,0.003 -4.837,3.761 -4.837,8.762 0,4.996 4.752,14.814 4.752,14.814 0,0 4.963,-10.57 4.967,-14.697 C 4.882,4.012 2.585,0 0,0" /></g><g
             transform="translate(576.8223,414.5195)"
             id="g228"><path
               inkscape:connector-curvature="0"
               id="path230"
               style="fill:#539cb2;fill-opacity:1;fill-rule:nonzero;stroke:none"
               d="M 0,0 C 10.951,2.625 20.188,3.639 25.827,4.034 27.762,4.173 29.088,4.18 29.209,3.676 29.328,3.173 28.14,2.472 26.392,1.683 21.225,-0.648 12.556,-4.062 1.593,-6.693 l 0.012,0.003 c -10.956,-2.629 -20.23,-3.519 -25.899,-3.783 -1.917,-0.094 -3.293,-0.003 -3.413,0.497 -0.121,0.505 1.061,1.1 2.851,1.854 5.206,2.204 13.895,5.491 24.842,8.119 L 0,0 Z" /></g><g
             transform="translate(580.0576,413.5986)"
             id="g232"><path
               inkscape:connector-curvature="0"
               id="path234"
               style="fill:#539cb2;fill-opacity:1;fill-rule:nonzero;stroke:none"
               d="m 0,0 c 7.955,-7.968 13.642,-15.32 16.92,-19.922 1.134,-1.582 1.824,-2.706 1.458,-3.074 -0.362,-0.362 -1.579,0.285 -3.165,1.366 -4.688,3.191 -12.129,8.805 -20.09,16.778 l 0.008,-0.012 c -7.962,7.976 -13.561,15.426 -16.743,20.119 -1.078,1.587 -1.725,2.808 -1.357,3.176 0.365,0.362 1.49,-0.335 3.071,-1.469 4.593,-3.29 11.935,-8.987 19.891,-16.953 L 0,0 Z" /></g><g
             transform="translate(578.5732,414.478)"
             id="g236"><path
               inkscape:connector-curvature="0"
               id="path238"
               style="fill:#539cb2;fill-opacity:1;fill-rule:nonzero;stroke:none"
               d="m 0,0 c 10.825,-3.095 19.365,-6.753 24.472,-9.181 1.756,-0.831 2.912,-1.477 2.771,-1.974 -0.145,-0.494 -1.523,-0.523 -3.431,-0.349 -5.652,0.51 -14.882,1.799 -25.717,4.896 l 0.014,-0.006 c -10.834,3.097 -19.35,6.885 -24.416,9.435 -1.713,0.866 -2.869,1.615 -2.727,2.113 0.142,0.5 1.465,0.434 3.393,0.212 5.618,-0.64 14.799,-2.05 25.63,-5.141 L 0,0 Z" /></g></g></g></g></g></svg>