<?xml version="1.0" encoding="UTF-8" standalone="no"?>
<!-- Created with Inkscape (http://www.inkscape.org/) -->

<svg
   xmlns:dc="http://purl.org/dc/elements/1.1/"
   xmlns:cc="http://creativecommons.org/ns#"
   xmlns:rdf="http://www.w3.org/1999/02/22-rdf-syntax-ns#"
   xmlns:svg="http://www.w3.org/2000/svg"
   xmlns="http://www.w3.org/2000/svg"
   xmlns:sodipodi="http://sodipodi.sourceforge.net/DTD/sodipodi-0.dtd"
   xmlns:inkscape="http://www.inkscape.org/namespaces/inkscape"
   width="990"
   height="180"
   viewBox="0 0 990.00001 180"
   id="svg2"
   version="1.1"
   inkscape:version="0.91 r13725"
   sodipodi:docname="orangotango.svg">
  <defs
     id="defs4" />
  <sodipodi:namedview
     id="base"
     pagecolor="#ffffff"
     bordercolor="#666666"
     borderopacity="1.0"
     inkscape:pageopacity="0.0"
     inkscape:pageshadow="2"
     inkscape:zoom="0.7"
     inkscape:cx="1036.1081"
     inkscape:cy="188.25155"
     inkscape:document-units="px"
     inkscape:current-layer="layer1"
     showgrid="false"
     units="px"
     showguides="true"
     inkscape:guide-bbox="true"
     inkscape:window-width="1920"
     inkscape:window-height="1014"
     inkscape:window-x="0"
     inkscape:window-y="27"
     inkscape:window-maximized="1">
    <sodipodi:guide
       position="0,1231.4286"
       orientation="1,0"
       id="guide3457"
       inkscape:label=""
       inkscape:color="rgb(0,0,255)" />
  </sodipodi:namedview>
  <metadata
     id="metadata7">
    <rdf:RDF>
      <cc:Work
         rdf:about="">
        <dc:format>image/svg+xml</dc:format>
        <dc:type
           rdf:resource="http://purl.org/dc/dcmitype/StillImage" />
        <dc:title></dc:title>
      </cc:Work>
    </rdf:RDF>
  </metadata>
  <g
     inkscape:label="Ebene 1"
     inkscape:groupmode="layer"
     id="layer1"
     transform="translate(0,-872.36214)">
    <path
       style="fill:#ff9801;fill-opacity:1"
       d="M 917.17969 12 C 904.75091 12 889.84452 23.571514 882.16797 39.177734 C 873.10034 57.612144 870.46103 80.285875 876.23633 90.140625 C 880.27618 97.034085 888.53563 102.71732 894.8125 102.92383 C 896.08403 102.96553 899.64905 101.80421 902.73633 100.34375 C 906.49112 98.56745 911.18979 94.840664 916.92578 89.083984 C 925.03444 80.946074 930 75.365641 930 74.394531 C 930 74.155311 931.04848 72.282029 932.33008 70.230469 C 933.61168 68.178839 935.18387 63.34994 935.82422 59.5 C 936.46457 55.64998 937.26685 51.15002 937.60547 49.5 C 938.79149 43.72123 938.51773 28.548488 937.1582 24.705078 C 934.48212 17.139798 926.3995 12 917.17969 12 z M 836.88281 13.009766 C 834.33239 13.016766 830.26835 14.058939 827.16016 15.505859 C 820.9083 18.416289 806.04477 27.950131 802.19531 31.519531 C 800.72443 32.883441 799.21647 34 798.8457 34 C 797.84145 34 788 46.606398 788 47.892578 C 788 48.502088 787.65531 49 787.23438 49 C 786.07412 49 782.97443 58.416988 782.32227 63.923828 C 782.00477 66.604278 782.06267 71.751648 782.44922 75.361328 C 784.30699 92.708558 802.63784 103.19463 817.60156 95.470703 C 820.29597 94.079913 824.36087 90.890299 826.63477 88.380859 C 831.06623 83.490539 831.38246 83.533833 832.40234 89.189453 C 833.73714 96.591913 842.83945 100.59224 847.81055 95.960938 C 850.54574 93.412738 850.55797 91.530416 847.87305 85.972656 C 846.10669 82.316716 845.84226 80.424726 846.3125 74.816406 C 846.99147 66.717676 849.43303 60.858704 855.48438 52.808594 C 860.64552 45.942774 860.98658 43.896668 857.54492 40.455078 C 855.03957 37.949728 849.39993 37.070742 847.45117 38.882812 C 845.34946 40.837133 827.7272 47.014816 822.50195 47.628906 C 818.21177 48.133186 816.46829 48.861024 814.96094 50.777344 C 812.30077 54.159134 812.47906 55.383376 816.07617 58.410156 C 818.34626 60.320296 820.28611 61 823.4707 61 C 828.99873 61 829.76171 62.796599 826.81641 68.880859 C 823.85944 74.989149 816.22059 82.368321 810.6543 84.494141 C 798.11257 89.283871 791.25858 76.27033 797.22656 59 C 800.01551 50.92933 806.90904 43.593615 819.0918 35.734375 C 832.94805 26.795605 833.5026 26.583714 838.11133 28.427734 C 845.28235 31.297044 848.11698 30.365129 849.54688 24.667969 C 851.02116 18.794029 844.71982 12.992256 836.88281 13.009766 z M 441.65625 13.341797 C 439.46487 13.42111 437.29326 14.09826 434.74023 15.355469 C 428.58321 18.387389 414.46626 30.57136 409.66211 37 C 404.95104 43.30403 396.55693 59.3142 394.08008 66.71875 C 389.02199 81.83993 393.74639 93.747316 406.8418 98.884766 C 416.12318 102.52592 425.53829 100.50669 433.25 93.222656 L 436 90.625 L 436 94.361328 C 436 97.146938 436.69892 98.748149 438.75 100.66211 C 444.05373 105.6114 447.79707 106.11115 451.53711 102.37109 C 453.42063 100.48755 453.98302 99.141354 453.51953 97.621094 C 450.85408 88.878604 452.87055 79.416894 460.12109 66.652344 C 465.34846 57.449484 465.65173 55.868061 462.82227 52.587891 C 459.15851 48.340641 454.14837 47.737429 443.00391 50.199219 C 437.77711 51.353779 431.98048 52.213215 430.12305 52.109375 C 426.00099 51.878905 422.98757 54.340317 423.03125 57.904297 C 423.08625 62.393687 428.59374 67 433.90625 67 C 438.10739 67 438.37152 68.18889 435.1543 72.625 C 426.89177 84.018 414.51902 89.852927 408.12305 85.373047 C 405.99655 83.883557 405.84529 83.213471 406.33203 77.431641 C 407.29897 65.945501 418.27506 47.210183 429.83398 37.314453 C 436.58879 31.531583 442.0699 27.923786 443.11914 28.572266 C 443.60393 28.871846 444 30.160407 444 31.435547 C 444 35.407947 448.9563 37.608658 453.96875 35.861328 C 460.75194 33.496648 458.77102 19.963793 451.06641 16.033203 C 447.3257 14.124815 444.47374 13.239823 441.65625 13.341797 z M 263.76758 13.548828 C 263.12251 13.538398 262.5658 13.697691 261.98633 14.007812 C 260.89415 14.592313 260 15.4744 260 15.96875 C 260 16.46309 257.14944 21.059754 253.66602 26.183594 C 250.18261 31.307364 244.46588 40.44998 240.96094 46.5 C 237.456 52.55001 231.82321 61.77496 228.44531 67 C 225.06743 72.22498 219.90835 80.55001 216.97852 85.5 C 214.04869 90.44998 210.15508 96.036856 208.32617 97.916016 C 205.79712 100.51451 205.00457 102.19076 205.02148 104.91602 C 205.04408 108.55578 207.27823 112.3182 210 113.30078 C 212.84923 114.32927 218.75834 113.99597 219.76367 112.75 C 220.31842 112.06256 222.65154 107.79237 224.94922 103.25977 C 227.24692 98.727106 231.09454 91.762483 233.49805 87.783203 L 237.86719 80.546875 L 245.68359 79.308594 C 249.9825 78.627264 255.48059 77.653108 257.90039 77.142578 L 262.29883 76.212891 L 261.7168 92.617188 L 261.13672 109.01953 L 264.01758 110.50977 C 268.21668 112.68122 271.32884 112.34418 274.07617 109.41992 L 276.5 106.83984 L 276.5 71.669922 C 276.5 38.676882 275.45319 21.874839 273.17383 18.318359 C 272.80377 17.740939 270.58165 16.296502 268.23633 15.107422 C 266.16245 14.055972 264.84269 13.566212 263.76758 13.548828 z M 667.61328 14.158203 C 665.05277 14.17647 662.88938 16.723087 660.06641 22.25 C 659.29388 23.76249 658.28712 25 657.83008 25 C 657.37303 25 657 25.636816 657 26.416016 C 657 27.195146 656.64913 27.982716 656.2207 28.166016 C 655.79227 28.349386 652.09361 32.54995 648 37.5 C 643.90645 42.44998 640.09281 46.995453 639.52734 47.601562 C 638.96187 48.207662 636.7 50.892489 634.5 53.568359 C 632.3 56.244289 627.28025 62.200334 623.3457 66.802734 C 612.98797 78.918464 604 92.549275 604 96.140625 C 604 101.47061 610.93524 105.49617 616.46289 103.375 C 617.35793 103.03152 619.62418 99.54406 621.49805 95.625 C 623.3719 91.70601 626.92663 85.817003 629.39648 82.539062 C 633.60331 76.955603 634.15865 76.571436 638.19336 76.441406 C 640.56214 76.365106 644.46836 75.558581 646.875 74.650391 C 651.26417 72.994131 662.10285 72.344 661.88086 73.75 C 661.81556 74.16253 661.81556 78.246412 661.88086 82.826172 C 661.99137 90.597122 662.19342 91.345832 664.88672 94.039062 C 667.43395 96.586293 668.14847 96.818609 670.98242 96.005859 C 672.74844 95.499359 674.71834 94.649178 675.35938 94.117188 C 676.21388 93.407928 676.47875 83.325061 676.35352 56.332031 L 676.18359 19.515625 L 672.87891 16.757812 C 670.82885 15.046342 669.14959 14.147243 667.61328 14.158203 z M 520.97461 14.650391 C 516.4191 14.522252 512.76327 16.793491 504.78906 23.410156 C 494.74782 31.742066 486.9653 43.08106 481.38867 57.5 C 479.13035 63.33914 478.66517 66.15837 478.58984 74.5 C 478.48496 86.11055 480.24059 90.691001 486.71289 95.707031 C 494.65591 101.86276 502.54673 103.29528 509.9707 99.927734 C 516.41026 97.006674 520.18932 93.855768 527.0293 85.705078 C 534.85945 76.374488 534.27662 77.19441 536.76953 72 C 540.76405 63.67664 544.32806 44.85235 543.50781 36.40625 C 542.37109 24.70131 537.13037 18.435809 526.02344 15.505859 C 524.11163 15.001547 522.49311 14.693104 520.97461 14.650391 z M 186.13281 16.207031 C 183.23597 16.238298 180.31843 16.656868 177.58203 17.517578 C 173.08029 18.933518 171.42907 19.061064 169.42188 18.146484 C 164.83505 16.056584 161.69498 16.726939 159.25 20.318359 C 158.0125 22.136189 157 23.921746 157 24.285156 C 157 24.648576 155.92496 27.320136 154.61133 30.222656 C 152.47657 34.939526 146.04889 52.95006 145.58984 55.5 C 145.49084 56.05005 144.68278 58.52501 143.79492 61 C 142.90705 63.47499 141.43032 68.19997 140.51367 71.5 C 139.59702 74.79997 138.49898 78.40004 138.07422 79.5 C 137.64946 80.60004 135.83332 86.22505 134.03711 92 C 132.2409 97.77502 130.37177 103.53354 129.88477 104.79688 C 127.4924 111.00311 130.43263 116 136.47656 116 C 138.99342 116 140.34747 115.37877 141.37891 113.75 C 142.1626 112.51251 143.12987 109.925 143.5293 108 C 144.95931 101.10834 154.336 72.012039 155.12891 72.005859 C 155.47534 72.005859 157.5484 74.36249 159.73438 77.25 C 161.92034 80.13751 166.92341 86.034156 170.85352 90.353516 C 174.78363 94.672866 178 98.757387 178 99.429688 C 178 101.10554 181.93605 104.65255 185.14258 105.86719 C 188.68251 107.20818 191.55859 106.32183 193.55469 103.27539 C 196.95776 98.081681 196.30596 96.036752 189.00586 89.013672 C 181.88227 82.160422 172 71.137942 172 70.044922 C 172 69.690952 173.6875 68.811817 175.75 68.091797 C 188.22534 63.736737 198.67374 54.956212 204.44336 43.976562 C 208.53422 36.191653 209.05572 30.491495 206.18164 24.984375 C 203.32659 19.513635 194.82335 16.113232 186.13281 16.207031 z M 724.03516 16.486328 C 722.92302 16.455234 721.84598 16.702682 720.89453 17.296875 C 718.94848 18.512215 716.40559 24.49511 715.49414 30 C 714.61256 35.32486 711.40101 44.765698 708.95117 49.236328 C 708.42779 50.191338 708 51.557374 708 52.271484 C 708 53.570454 699.54704 77.20984 696.57617 84.21875 C 694.3579 89.45198 694.57938 93.196836 697.24414 95.478516 C 700.23786 98.041786 705.83308 98.024869 707.32812 95.449219 C 708.60104 93.256299 708.6444 93.144323 716.02734 72.595703 C 719.82193 62.034273 721.57989 58.245953 722.06055 59.595703 C 722.43369 60.643363 723.96471 65.401935 725.46289 70.171875 C 726.96113 74.941885 730.05769 82.591835 732.34375 87.171875 C 735.63983 93.775475 737.22446 95.861487 740 97.248047 C 744.2922 99.392267 743.81761 99.408064 747.7832 96.990234 C 749.58916 95.889164 751.31069 94.203521 751.60742 93.244141 C 751.90408 92.284761 752.56244 90.718752 753.07227 89.763672 C 753.58218 88.808672 754 87.403085 754 86.640625 C 754 85.878095 755.52571 80.584393 757.39062 74.876953 C 759.25549 69.169443 762.19412 58.80487 763.92188 51.84375 C 765.64962 44.8827 768.17387 36.453801 769.53125 33.113281 C 770.88856 29.772751 772 25.937787 772 24.591797 C 772 21.573427 768.04182 18.28693 763.34766 17.40625 C 758.7911 16.55148 757.48056 18.404671 756.10547 27.650391 C 755.5195 31.589661 754.40464 36.76704 753.62891 39.15625 C 751.85352 44.62454 750.63701 49.318435 750.78906 50.109375 C 750.85366 50.444305 749.19278 55.619375 747.09766 61.609375 C 744.71117 68.432615 742.76778 72.5 741.89453 72.5 C 739.08433 72.5 731.90362 34.235638 733.35352 26.986328 C 734.35413 21.983213 728.85442 16.621069 724.03516 16.486328 z M 608.44727 16.728516 C 607.3802 16.731717 606.1882 16.743572 604.85156 16.759766 C 597.94919 16.843466 592.13301 17.394821 590.83789 18.087891 C 588.21505 19.491601 574.27417 19.849759 568.28711 18.667969 C 564.52475 17.925299 563.80171 18.108447 561.53711 20.373047 C 557.64821 24.261957 558.0087 29.804884 562.45703 34.521484 L 565.91211 38.1875 L 574.59766 37.462891 L 583.2832 36.740234 L 582.75586 39.119141 C 582.4657 40.428181 580.78541 45.32501 579.02344 50 C 574.09859 63.06704 570.04815 77.798889 569.35547 85.162109 C 568.81042 90.956019 569.0189 92.293932 570.94727 95.414062 C 575.3046 102.46436 580.58612 103.80972 584.29883 98.814453 C 586.06447 96.438933 586.14691 95.768697 585.00977 93.023438 C 583.2804 88.848287 584.26074 80.78867 587.87109 69.5 C 591.18117 59.15029 596.17297 45.634632 599.22461 38.763672 C 601.56589 33.492092 602.30168 33.191824 613.89844 32.746094 C 619.49785 32.530844 620.54012 32.171181 622.25391 29.869141 C 624.89902 26.316211 623.86423 21.751876 619.75 18.822266 C 617.29408 17.073526 615.91675 16.706106 608.44727 16.728516 z M 98.919922 17.037109 C 93.941937 17.171883 89.729336 18.939007 85.708984 22.400391 C 80.40976 26.962861 73 34.082388 73 34.611328 C 73 34.903128 71.250683 37.246623 69.113281 39.820312 C 65.161514 44.578652 56.994479 60.02509 53.15625 70 C 45.806526 89.10081 46.458197 103.70112 55.068359 112.86328 C 60.706992 118.86342 72.544649 120.75009 80.865234 116.97461 C 85.197161 115.00897 96.351561 104.51931 103.02539 96.132812 C 104.93695 93.730682 106.96652 91.255723 107.53711 90.632812 C 108.10768 90.009963 109.65899 87.69999 110.98438 85.5 C 112.30975 83.3 113.64324 81.27506 113.94727 81 C 114.78636 80.24108 121.6816 65.91242 122.84961 62.5 C 127.4327 49.11011 126.26514 27.526282 120.72852 23.263672 C 120.05243 22.743142 116.21233 21.120613 112.19336 19.658203 C 107.12615 17.814434 102.79169 16.932285 98.919922 17.037109 z M 330.10156 17.322266 C 326.77785 17.383665 323.08491 19.572307 323.03125 21.8125 C 323.01385 22.53404 321.90601 25.45909 320.56836 28.3125 C 311.8851 46.8354 301.12011 80.415317 299.48047 94.091797 C 298.81762 99.620657 298.84628 99.706389 302.1543 101.82422 C 306.423 104.55704 308.31444 104.54197 311.31055 101.75 C 313.22156 99.96912 313.87907 98.04039 314.45898 92.5 C 315.14413 85.95418 319.8685 68.652792 322.0332 64.763672 C 322.56477 63.808672 323.00134 62.458622 323.00391 61.763672 C 323.01091 59.897842 327.26084 49.934195 329.44141 46.671875 C 330.83189 44.591695 331.52929 44.194855 332.07422 45.171875 C 332.97001 46.777925 340.53064 73.07794 341.51172 78 C 341.89543 79.92501 343.0228 83.97503 344.01562 87 C 345.0084 90.02504 346.30384 94.3 346.89453 96.5 C 347.65056 99.31583 348.88423 101.01806 351.06445 102.25 C 358.5588 106.48468 362.52091 103.34537 365.11719 91.117188 C 366.00678 86.927307 367.64948 80.34995 368.76758 76.5 C 369.88565 72.64999 371.89779 65.45005 373.23828 60.5 C 374.57879 55.55002 376.42358 50.059008 377.33789 48.298828 C 378.2522 46.538648 379 44.485658 379 43.736328 C 379 42.986928 380.18755 39.92795 381.63867 36.9375 C 383.08975 33.94711 384.49637 29.596431 384.76562 27.269531 L 385.25586 23.039062 L 380.43945 20.974609 C 373.57542 18.032369 371.76505 18.56811 370.21875 24 C 367.5281 33.45167 363.62353 45.21585 361.42188 50.5 C 360.73442 52.15001 359.16343 56.98753 357.93164 61.25 C 355.55818 69.46306 354.4211 70.72626 353.42969 66.25 C 352.60115 62.50903 349.63142 51.752486 345.72656 38.347656 C 341.92755 25.306236 337.31063 18.523551 331.49023 17.431641 C 331.04213 17.347568 330.57638 17.313494 330.10156 17.322266 z M 919.2832 26.185547 C 920.56993 26.232996 921.49176 27.035919 923.62891 29.082031 C 927.16976 32.472151 927.19431 32.55157 926.61328 39 C 925.85346 47.4329 923.53988 56.188926 920.3457 62.722656 C 916.11977 71.366786 898.18751 88 893.09375 88 C 891.96802 88 890.24859 86.781769 889.27344 85.292969 C 887.94523 83.265239 887.52261 80.693449 887.58984 75.042969 C 887.86018 52.314069 900.14207 31.63329 916.23242 26.8125 C 917.60749 26.400536 918.51117 26.157078 919.2832 26.185547 z M 190.54688 29.673828 C 192.44152 29.732535 192.58287 30.341458 192.80078 32.572266 C 193.19415 36.599406 186.01172 46.519378 179.41992 51.054688 C 171.52715 56.485047 161.12704 59.631499 159.54297 57.068359 C 159.22653 56.556379 159.4254 55.855256 159.98438 55.509766 C 160.54334 55.164346 161 54.188717 161 53.341797 C 161 51.058867 164.02555 44.828052 166.41211 42.195312 C 171.53986 36.538653 173.39553 35.041995 178.28906 32.609375 C 181.15552 31.184405 185.525 29.902236 188 29.759766 C 189.08927 29.697046 189.91533 29.654259 190.54688 29.673828 z M 523.31445 29.724609 C 524.57413 29.821176 525.79626 30.655416 528.37695 32.666016 C 532.83022 36.135526 532.88421 36.247264 532.50195 41.339844 C 532.04463 47.432364 528.71723 58.631778 525.43945 65.111328 C 522.73296 70.461538 514.22905 80.085412 508.59961 84.169922 C 504.51289 87.135022 500.24061 87.705817 496.32031 85.810547 C 494.8614 85.105247 493.76298 83.182761 492.99805 79.994141 C 491.41742 73.405321 492.91272 66.228531 498.13477 55.332031 C 501.50107 48.307701 503.92191 44.950174 509.95703 38.927734 C 514.13085 34.762644 518.96691 30.857913 520.70508 30.251953 C 521.78966 29.873874 522.55865 29.66667 523.31445 29.724609 z M 99.464844 31.263672 C 100.49471 31.256314 101.2171 31.982366 102.80664 33.814453 C 104.48546 35.749463 106.63023 37.028184 108.5 37.208984 L 111.5 37.5 L 111.26758 44.441406 C 111.01158 52.065936 108.95411 59.34239 105.31641 65.5 C 104.0167 67.7 102.20531 70.96245 101.29102 72.75 C 100.37672 74.53748 99.262586 76 98.814453 76 C 98.366319 76 98 76.574484 98 77.277344 C 98 78.458094 88.76108 90.398969 84.761719 94.386719 C 77.904874 101.22364 72.413563 105 69.330078 105 C 66.504684 105 65.754844 104.4405 64.019531 101.03906 C 61.363862 95.833472 61.466444 89.945532 64.367188 80.888672 C 67.012096 72.630602 73.883975 57.755092 77.636719 52.164062 C 82.044683 45.596783 93.863041 33.300104 97.025391 31.990234 C 98.118718 31.537347 98.846921 31.268087 99.464844 31.263672 z M 260.65234 41.013672 C 260.96395 40.992165 261.15006 41.428971 261.35742 42.203125 C 261.69573 43.466115 261.97882 48.15631 261.98633 52.625 L 262 60.75 L 258.875 61.375 C 253.666 62.41676 249 62.113352 249 60.732422 C 249 60.035122 250.125 57.808656 251.5 55.785156 C 252.875 53.761656 254 51.880106 254 51.603516 C 254 51.326856 255.51689 48.581946 257.37109 45.503906 C 259.2653 42.359419 260.13301 41.049517 260.65234 41.013672 z M 661.5957 42.162109 C 662.04136 42.101342 662.21063 42.705974 662.42969 43.714844 C 662.76234 45.246424 662.92809 48.900764 662.79688 51.833984 C 662.51562 58.118004 661.63539 58.765828 654.39844 58.023438 L 649.29688 57.5 L 655.56055 49.214844 C 659.34307 44.212481 660.85294 42.263389 661.5957 42.162109 z M 833.96875 59 C 834.5015 59 834.67786 59.67503 834.36133 60.5 C 834.04473 61.32504 833.60874 62 833.39258 62 C 833.17642 62 833 61.32504 833 60.5 C 833 59.67503 833.43606 59 833.96875 59 z M 722.23828 144.94336 C 692.95991 144.91275 652.796 145.24334 630 145.83984 C 614.32501 146.24994 569.55 146.67064 530.5 146.77344 C 491.45001 146.87634 440.15001 147.19211 416.5 147.47461 C 392.85003 147.75711 351.89999 148.24831 325.5 148.56641 C 299.09997 148.88441 265.35 149.77317 250.5 150.54297 C 219.81213 152.13377 157.97528 156.46259 144.5 157.96289 C 130.16728 159.55859 98.582657 159.25855 88.972656 157.43555 C 84.436489 156.57505 76.850367 155.97943 72.113281 156.11133 C 67.376195 156.24323 61.892097 155.99987 59.925781 155.57227 C 55.05345 154.51237 51.105821 157.79628 50.333984 163.55078 C 49.879307 166.94068 50.228294 168.11763 52.484375 170.79883 C 54.865907 173.62913 55.768251 174 60.273438 174 C 63.075966 174 68.022848 173.2556 71.265625 172.3457 C 76.385344 170.9092 78.565139 170.84396 87.830078 171.84766 C 102.45321 173.43156 130.88991 173.296 147.62109 171.5625 C 155.25443 170.7716 168.25 169.6178 176.5 169 C 184.75 168.3822 199.375 167.23858 209 166.45898 C 256.41736 162.61768 285.38289 161.52214 367.5 160.46484 C 390.05 160.17444 412.77499 159.72334 418 159.46094 C 423.225 159.19854 457.87499 158.77769 495 158.52539 C 532.12499 158.27299 580.04999 157.76393 601.5 157.39453 C 691.78301 155.83963 726.39338 156.06614 759.74219 158.43164 C 763.45856 158.69524 773.02498 159.20295 781 159.56055 C 788.97496 159.91815 796.40004 160.40748 797.5 160.64648 C 799.34985 161.04868 834.25233 161.05336 895.5 160.66016 C 919.40971 160.50686 920.72634 160.5983 925.68555 162.75 C 932.19748 165.5756 935.73643 165.59637 938.68555 162.82617 C 941.22167 160.44357 941.90814 153.56541 939.9707 149.94531 C 937.90101 146.07801 929.33073 143.73928 926.2793 146.20898 C 925.52531 146.81918 921.12744 146.93492 914.7793 146.51172 C 909.12576 146.13482 894.77133 146.32936 882.88086 146.94336 C 845.82901 148.85686 790.71055 148.18476 757.08008 145.41016 C 753.45285 145.11091 739.8053 144.96173 722.23828 144.94336 z "
       transform="translate(0,872.36214)"
       id="rect3459" />
  </g>
</svg>
